<svg width="180" height="171" viewBox="0 0 180 171" fill="none" xmlns="http://www.w3.org/2000/svg">
<path d="M35.7264 136.821C40.7088 132.946 41.3532 126.434 40.6476 120.682C40.5288 119.721 40.554 118.698 39.9924 117.891C39.4308 117.084 38.2428 116.595 37.3572 117.073C36.6372 117.47 36.3636 118.329 35.9964 119.05C35.5027 120.02 34.7317 120.837 33.7716 121.41C33.1452 121.779 32.3532 122.036 31.6764 121.752C30.7512 121.362 30.5496 120.223 30.474 119.266C30.33 117.48 30.1884 115.694 30.0492 113.907C30.0255 112.944 29.8383 111.991 29.4948 111.085C29.0988 110.203 28.3248 109.413 27.3348 109.235C26.3448 109.057 25.1748 109.673 25.0596 110.627C25.055 111.027 25.079 111.427 25.1316 111.824C25.1521 112.022 25.1112 112.222 25.014 112.399C24.9168 112.576 24.7676 112.722 24.5844 112.819C24.1884 112.963 23.7564 112.723 23.4252 112.477C22.2876 111.595 21.4632 110.404 20.6892 109.218C19.9152 108.031 19.1556 106.824 18.108 105.832C17.0604 104.84 15.6636 104.122 14.1948 104.156C12.726 104.19 11.2392 105.165 10.9872 106.55C10.7352 107.935 11.6892 109.235 12.6972 110.254C14.1985 111.759 15.9202 113.052 17.8092 114.091C18.1712 114.244 18.4725 114.503 18.6696 114.83C18.9468 115.452 18.3564 116.136 17.7048 116.4C16.9632 116.697 16.128 116.687 15.3396 116.837C14.5512 116.988 13.716 117.385 13.4748 118.113C13.1436 119.139 14.1048 120.083 15.0192 120.688C16.862 121.901 18.9084 122.806 21.0708 123.366C21.8448 123.565 22.6548 123.729 23.3028 124.177C23.9508 124.625 24.3828 125.456 24.084 126.16C23.7852 126.865 22.8564 127.152 22.0572 127.077C21.258 127.002 20.52 126.656 19.746 126.451C18.306 126.065 16.506 126.297 15.6924 127.504C15.4518 127.916 15.3164 128.376 15.297 128.846C15.2776 129.317 15.3748 129.785 15.5808 130.213C15.9999 131.065 16.5948 131.828 17.3304 132.457C19.7808 134.794 22.8387 136.475 26.1936 137.327C29.5416 138.13 32.5836 138.182 35.7264 136.821Z" fill="#EBEBEB"/>
<path d="M36.162 141.092C35.6445 138.439 34.8572 135.84 33.8112 133.332C32.5186 130.268 31.0389 127.279 29.3796 124.379L28.08 122.094C27.6552 121.342 27.234 120.596 26.7732 119.892C25.8901 118.541 24.9286 117.238 23.8932 115.989C22.9104 114.789 21.9276 113.681 21.0132 112.655C20.0988 111.629 19.2132 110.688 18.36 109.861C17.0324 108.552 15.5988 107.345 14.0724 106.249C13.5324 105.859 13.1004 105.565 12.8088 105.38L12.474 105.162C12.4358 105.137 12.3961 105.114 12.3552 105.093C12.3552 105.093 12.3912 105.124 12.4632 105.175L12.7908 105.404C13.0788 105.603 13.5108 105.897 14.0364 106.294C15.5453 107.404 16.9641 108.62 18.2808 109.932C19.1196 110.76 19.998 111.704 20.9196 112.733C21.8412 113.763 22.8132 114.871 23.7996 116.071C24.8347 117.318 25.7961 118.619 26.6796 119.967C27.1368 120.668 27.5544 121.41 27.9792 122.162L29.268 124.45C30.9135 127.346 32.387 130.328 33.6816 133.38C34.7288 135.879 35.5244 138.467 36.0576 141.109" fill="#E0E0E0"/>
<path d="M26.7444 119.874C26.7782 119.738 26.7975 119.598 26.802 119.457C26.8308 119.19 26.8596 118.797 26.8884 118.315C26.9496 117.35 26.9856 116.017 27.0216 114.553C27.0576 113.089 27.1152 111.749 27.198 110.791C27.234 110.309 27.2736 109.922 27.3024 109.652C27.3234 109.514 27.333 109.374 27.3312 109.235C27.2867 109.368 27.2566 109.506 27.2412 109.645C27.1944 109.912 27.1404 110.302 27.09 110.781C26.9784 111.745 26.9028 113.079 26.8668 114.543C26.8308 116.006 26.8056 117.323 26.784 118.305C26.766 118.766 26.7552 119.153 26.7444 119.447C26.7299 119.589 26.7299 119.732 26.7444 119.874Z" fill="#E0E0E0"/>
<path d="M13.4136 118.602H13.5504H13.9428C14.2812 118.602 14.7708 118.602 15.3828 118.619C16.596 118.643 18.2628 118.732 20.1168 118.913C21.9708 119.095 23.6196 119.327 24.8148 119.529C25.4124 119.628 25.8948 119.717 26.2296 119.779L26.6112 119.85C26.7012 119.85 26.748 119.871 26.748 119.85C26.7075 119.83 26.6637 119.816 26.6184 119.809L26.2404 119.71C25.9128 119.632 25.4304 119.526 24.8328 119.416C23.6412 119.187 21.978 118.937 20.1312 118.753C18.2844 118.568 16.6032 118.5 15.3828 118.503C14.7744 118.503 14.3028 118.503 13.9428 118.534L13.554 118.558C13.505 118.565 13.4576 118.58 13.4136 118.602Z" fill="#E0E0E0"/>
<path d="M33.6456 133.113C33.6739 133.061 33.698 133.008 33.7176 132.952C33.768 132.833 33.8256 132.679 33.9012 132.491C34.0596 132.087 34.2612 131.496 34.5276 130.781C35.0352 129.32 35.6724 127.282 36.3492 125.021C37.026 122.761 37.6416 120.723 38.124 119.255C38.3652 118.537 38.5596 117.949 38.7036 117.518C38.7684 117.326 38.8188 117.176 38.8584 117.046C38.8805 116.992 38.8962 116.936 38.9052 116.878C38.8731 116.928 38.8477 116.981 38.8296 117.036C38.7828 117.159 38.7216 117.313 38.646 117.501C38.4876 117.904 38.286 118.493 38.0232 119.211C37.512 120.671 36.8748 122.71 36.2016 124.97C35.5284 127.231 34.92 129.276 34.4232 130.736C34.1856 131.455 33.9876 132.043 33.8472 132.47C33.7824 132.665 33.732 132.812 33.6888 132.946C33.6687 133 33.6542 133.056 33.6456 133.113Z" fill="#E0E0E0"/>
<path d="M15.7392 129.204C15.795 129.23 15.8544 129.247 15.9156 129.255L16.4376 129.372L18.36 129.789C19.98 130.131 22.212 130.654 24.678 131.229C27.144 131.803 29.3796 132.303 31.0068 132.631C31.8204 132.795 32.4792 132.922 32.9364 133L33.462 133.089C33.5235 133.103 33.5862 133.111 33.6492 133.113C33.592 133.088 33.5314 133.071 33.4692 133.062L32.9472 132.946L31.0284 132.528C29.4084 132.186 27.1764 131.663 24.714 131.089C22.2516 130.514 20.0124 130.015 18.3852 129.686C17.5716 129.522 16.9128 129.396 16.4556 129.317L15.9264 129.225C15.8647 129.213 15.8021 129.206 15.7392 129.204Z" fill="#E0E0E0"/>
<path d="M83.0195 39.0953L56.9914 46.5325L62.2682 63.1993L88.2963 55.7621L83.0195 39.0953Z" fill="white"/>
<path d="M88.3008 55.746C88.3008 55.746 88.2612 55.64 88.1964 55.4416C88.1316 55.2433 88.0344 54.9423 87.9084 54.5593C87.66 53.7863 87.2928 52.6543 86.8284 51.2111C85.8996 48.3143 84.5712 44.159 82.9512 39.1009L83.0448 39.1487L57.024 46.6146L57.0888 46.5017L62.3592 63.1708L62.2512 63.1161L81 57.798L86.3676 56.2898L87.8076 55.8896L88.1676 55.787L88.2972 55.7563L88.182 55.7939L87.822 55.9033L86.4108 56.3137L81.0756 57.863L62.298 63.27L62.2152 63.2939L62.19 63.2153C60.5808 58.1366 58.788 52.4902 56.9052 46.5496L56.88 46.4641L56.9664 46.4402L82.998 39.0188L83.07 38.9983L83.0916 39.0667C84.6864 44.1522 85.9932 48.328 86.9076 51.2384C87.354 52.6817 87.7068 53.8103 87.9444 54.5866C88.0632 54.9628 88.1496 55.2535 88.2144 55.4587C88.2792 55.6639 88.3008 55.746 88.3008 55.746Z" fill="#E0E0E0"/>
<path d="M83.0232 39.0906C83.0137 39.1167 83.0016 39.1419 82.9872 39.1658L82.8648 39.3779C82.746 39.5728 82.584 39.843 82.3824 40.185L80.5644 43.1501L74.466 52.9758L74.4228 53.0408L74.3508 53.0134L73.5552 52.7227L61.83 48.3759L58.284 47.0421L57.3264 46.6693L57.078 46.5701C57.0483 46.5607 57.0203 46.5469 56.9952 46.5291C57.0265 46.5317 57.057 46.5398 57.0852 46.553L57.3372 46.6351L58.3128 46.9771L61.8768 48.2596L73.62 52.5551L74.4192 52.8492L74.304 52.8869C76.716 49.0394 78.8832 45.592 80.4528 43.0852L82.3212 40.1508C82.5372 39.8088 82.71 39.5523 82.8324 39.3574L82.9728 39.1556C83.0016 39.1111 83.0196 39.0872 83.0232 39.0906Z" fill="#E0E0E0"/>
<path d="M158.76 105.678C158.76 105.678 157.072 104.091 153.781 108.055C152.056 110.061 150.472 112.174 149.04 114.378C149.04 114.378 148.219 115.186 147.679 114.454C147.139 113.722 146.581 111.834 145.379 111.93C144.176 112.026 143.485 113.202 143.323 115.08C143.161 116.957 142.654 121.065 142.603 121.434C142.553 121.803 142.243 122.286 141.779 121.844C141.314 121.403 138.978 117.648 137.16 118.804C135.342 119.96 135.803 125.275 135.842 125.853C135.882 126.431 135.716 126.649 135.414 126.732C135.112 126.814 134.446 125.48 133.729 124.437C133.013 123.394 131.994 122.296 131.008 123.052C130.021 123.807 128.974 127.525 131.465 134.355L132.836 137.433L136.346 137.908C143.932 138.486 147.46 136.595 147.982 135.497C148.504 134.399 147.136 133.736 145.89 133.339C144.644 132.942 143.118 132.655 143.129 132.364C143.14 132.074 143.316 131.862 143.917 131.752C144.518 131.643 150.037 130.726 150.757 128.773C151.477 126.82 147.067 125.596 146.502 125.288C145.937 124.98 146.354 124.56 146.714 124.426C147.074 124.293 151.135 122.792 153.011 122.176C154.886 121.56 155.92 120.664 155.707 119.495C155.495 118.325 153.439 118.329 152.557 118.011C151.675 117.692 152.294 116.742 152.294 116.742C154.191 114.877 155.955 112.895 157.576 110.808C160.79 106.786 158.695 105.613 158.695 105.613" fill="#EBEBEB"/>
<path d="M155.794 109.207C155.777 109.238 155.758 109.266 155.736 109.293L155.552 109.539C155.38 109.758 155.138 110.069 154.832 110.466C154.202 111.27 153.284 112.426 152.14 113.848C149.854 116.694 146.657 120.599 143.107 124.895L134.028 135.911L131.288 139.259L130.54 140.165L130.342 140.398C130.295 140.449 130.273 140.477 130.27 140.473C130.286 140.443 130.305 140.414 130.327 140.388L130.511 140.145L131.231 139.215C131.857 138.411 132.779 137.255 133.92 135.832C136.206 132.987 139.406 129.081 142.96 124.786C146.513 120.49 149.706 116.598 152.035 113.77C153.184 112.364 154.12 111.225 154.775 110.425C155.092 110.038 155.344 109.741 155.52 109.515L155.722 109.283C155.765 109.231 155.79 109.204 155.794 109.207Z" fill="#E0E0E0"/>
<path d="M146.048 114.601C146.127 114.894 146.171 115.194 146.182 115.497C146.236 116.051 146.282 116.82 146.315 117.672C146.347 118.524 146.362 119.228 146.38 119.847C146.406 120.147 146.406 120.45 146.38 120.75C146.302 120.457 146.258 120.156 146.25 119.854C146.203 119.296 146.164 118.527 146.131 117.679C146.099 116.831 146.077 116.123 146.052 115.504C146.023 115.203 146.022 114.901 146.048 114.601Z" fill="#E0E0E0"/>
<path d="M146.682 120.87C147.914 120.681 149.155 120.552 150.401 120.483C152.456 120.322 154.13 120.23 154.134 120.278C152.902 120.465 151.661 120.593 150.415 120.661C148.36 120.825 146.689 120.918 146.682 120.87Z" fill="#E0E0E0"/>
<path d="M140.71 127.463C141.033 127.487 141.353 127.536 141.667 127.61C142.258 127.716 143.068 127.864 143.968 128C144.868 128.137 145.685 128.24 146.279 128.312C146.603 128.336 146.924 128.385 147.24 128.459C146.916 128.485 146.59 128.478 146.268 128.438C145.667 128.397 144.828 128.315 143.939 128.175C143.05 128.035 142.222 127.87 141.638 127.734C141.32 127.675 141.008 127.585 140.71 127.463Z" fill="#E0E0E0"/>
<path d="M138.823 121.916C138.973 122.164 139.093 122.427 139.183 122.699C139.374 123.195 139.63 123.879 139.903 124.638C140.177 125.398 140.407 126.089 140.569 126.595C140.671 126.862 140.745 127.138 140.792 127.419C140.641 127.171 140.52 126.907 140.432 126.632C140.238 126.14 139.986 125.456 139.712 124.697C139.439 123.937 139.208 123.243 139.046 122.74C138.941 122.474 138.866 122.198 138.823 121.916Z" fill="#E0E0E0"/>
<path d="M132.772 127.101C132.945 127.426 133.092 127.763 133.211 128.11C133.459 128.742 133.79 129.618 134.147 130.589C134.503 131.561 134.813 132.443 135.032 133.082C135.168 133.425 135.273 133.777 135.346 134.136C135.169 133.806 135.022 133.463 134.906 133.11C134.658 132.481 134.327 131.605 133.97 130.634C133.614 129.662 133.301 128.78 133.085 128.137C132.95 127.801 132.845 127.454 132.772 127.101Z" fill="#E0E0E0"/>
<path d="M135.335 133.951C135.745 133.973 136.153 134.024 136.555 134.102C137.304 134.215 138.355 134.368 139.489 134.512C140.623 134.656 141.678 134.765 142.43 134.854C142.84 134.88 143.248 134.931 143.651 135.008C143.24 135.032 142.828 135.022 142.42 134.981C141.66 134.933 140.62 134.844 139.464 134.697C138.308 134.55 137.275 134.379 136.53 134.238C136.124 134.174 135.724 134.078 135.335 133.951Z" fill="#E0E0E0"/>
<path d="M142.869 72.0294L142.016 98.5528L162.419 99.145L163.272 72.6216L142.869 72.0294Z" fill="#F5F5F5"/>
<path d="M139.113 75.5553L138.26 102.079L158.663 102.671L159.516 76.1475L139.113 75.5553Z" fill="white"/>
<path d="M158.659 102.665C158.657 102.622 158.657 102.578 158.659 102.535C158.659 102.446 158.659 102.323 158.659 102.162C158.659 101.82 158.677 101.341 158.695 100.712C158.731 99.4433 158.782 97.5999 158.846 95.2641C158.987 90.5958 159.185 83.9781 159.419 76.1429L159.502 76.2249L139.1 75.6401L139.198 75.5546C138.87 85.4726 138.571 94.6348 138.326 102.077L138.251 102.001L153.068 102.47L157.19 102.607L158.27 102.648L158.648 102.665H158.288L157.208 102.641L153.104 102.542L138.24 102.149H138.164V102.077C138.398 94.6314 138.686 85.4589 139 75.5512V75.4623H139.097L159.494 76.0642H159.581V76.1463C159.311 84.0123 159.084 90.6402 158.922 95.3188C158.839 97.6444 158.771 99.4844 158.728 100.746C158.702 101.369 158.684 101.848 158.67 102.179C158.67 102.337 158.67 102.46 158.652 102.545C158.634 102.631 158.659 102.665 158.659 102.665Z" fill="#E0E0E0"/>
<path d="M151.56 81.6901C151.56 81.7414 149.339 81.7141 146.603 81.6354C143.867 81.5567 141.646 81.4507 141.646 81.4028C141.646 81.355 143.87 81.3789 146.606 81.4576C149.342 81.5362 151.56 81.6422 151.56 81.6901Z" fill="#E0E0E0"/>
<path d="M156.83 84.1525C156.83 84.2004 153.41 84.1525 149.191 84.0191C144.972 83.8857 141.552 83.7558 141.556 83.7079C141.559 83.66 144.976 83.7079 149.198 83.8413C153.421 83.9747 156.834 84.1012 156.83 84.1525Z" fill="#E0E0E0"/>
<path d="M156.755 86.5568C156.755 86.6047 153.331 86.5568 149.112 86.4234C144.893 86.29 141.476 86.1601 141.476 86.1122C141.476 86.0643 144.9 86.1122 149.119 86.2456C153.338 86.3789 156.755 86.5055 156.755 86.5568Z" fill="#E0E0E0"/>
<path d="M156.676 88.961C156.676 89.0089 153.256 88.961 149.036 88.8276C144.817 88.6943 141.401 88.5643 141.401 88.5164C141.401 88.4686 144.824 88.5164 149.044 88.6498C153.263 88.7832 156.679 88.92 156.676 88.961Z" fill="#E0E0E0"/>
<path d="M156.6 91.3653C156.6 91.4132 153.176 91.3653 148.961 91.2319C144.745 91.0986 141.322 90.9686 141.322 90.9207C141.322 90.8728 144.745 90.9207 148.964 91.0541C153.184 91.1875 156.6 91.314 156.6 91.3653Z" fill="#E0E0E0"/>
<path d="M156.524 93.7696C156.524 93.8175 153.101 93.7696 148.882 93.6362C144.662 93.5028 141.246 93.3729 141.246 93.325C141.246 93.2771 144.67 93.325 148.889 93.4584C153.108 93.5917 156.524 93.708 156.524 93.7696Z" fill="#E0E0E0"/>
<path d="M156.445 96.1738C156.445 96.2217 153.022 96.1738 148.806 96.0405C144.59 95.9071 141.167 95.7771 141.17 95.7292C141.174 95.6814 144.59 95.7292 148.81 95.8626C153.029 95.996 156.449 96.1225 156.445 96.1738Z" fill="#E0E0E0"/>
<path d="M149.303 98.3729C149.303 98.4208 147.463 98.4071 145.195 98.3421C142.927 98.2771 141.091 98.1814 141.091 98.1335C141.091 98.0856 142.931 98.0993 145.199 98.1643C147.467 98.2293 149.303 98.3216 149.303 98.3729Z" fill="#E0E0E0"/>
<path d="M98.2272 51.2885L91.8432 66.5211L111.898 74.1065L118.282 58.874L98.2272 51.2885Z" fill="white"/>
<path d="M118.278 58.8753L118.181 58.8411L117.9 58.7385L116.82 58.3281L112.705 56.772L98.2116 51.3L98.2548 51.2829L91.8756 66.5122L91.854 66.4643L111.906 74.0567H111.866C113.796 69.467 115.398 65.664 116.514 63.0067C117.076 61.6797 117.515 60.6366 117.814 59.9287L118.174 59.1181L118.292 58.8377L118.181 59.1147C118.105 59.2994 117.994 59.5696 117.846 59.9218C117.551 60.6332 117.126 61.6763 116.564 62.9998C115.452 65.6606 113.857 69.4739 111.938 74.0738V74.1011H111.91L91.8288 66.5532H91.7928V66.519C94.1004 61.0196 96.2784 55.8213 98.1792 51.2898V51.259H98.208L112.738 56.772L116.831 58.3315L117.911 58.7419L118.188 58.848L118.278 58.8753Z" fill="#E0E0E0"/>
<path d="M98.5016 52.5259L92.9219 65.8393L111.568 72.8922L117.148 59.5788L98.5016 52.5259Z" fill="#EBEBEB"/>
<path d="M92.9952 65.8795L102.978 60.0655L104.843 66.7687L108.738 65.0381L111.643 72.9315L92.9952 65.8795Z" fill="#E0E0E0"/>
<path d="M109.148 61.218C109.033 61.494 108.834 61.7312 108.576 61.8996C108.318 62.068 108.014 62.16 107.701 62.1641C107.389 62.1681 107.082 62.0839 106.82 61.9223C106.557 61.7606 106.352 61.5286 106.228 61.2557C106.105 60.9828 106.069 60.6813 106.126 60.3892C106.183 60.0971 106.33 59.8277 106.548 59.615C106.766 59.4023 107.046 59.2558 107.352 59.1941C107.658 59.1325 107.976 59.1584 108.266 59.2686C108.459 59.3413 108.635 59.4495 108.784 59.5869C108.933 59.7243 109.051 59.8883 109.133 60.0694C109.215 60.2505 109.259 60.4452 109.261 60.6423C109.264 60.8394 109.226 61.035 109.148 61.218Z" fill="#E0E0E0"/>
<path d="M46.602 82.3741C46.7375 82.4272 46.8842 82.4495 47.0304 82.4391C47.2056 82.42 47.3684 82.3439 47.4912 82.2236C47.6336 82.0363 47.76 81.8385 47.8692 81.632L50.2056 77.7605L50.9832 76.4815L51.3972 75.7975C51.4693 75.6885 51.5319 75.5741 51.5844 75.4555C51.6223 75.3373 51.6223 75.2111 51.5844 75.0929C51.552 74.9713 51.4803 74.8625 51.3792 74.7817C51.2639 74.7042 51.1436 74.6333 51.0192 74.5697L50.2164 74.1456L48.546 73.2564L41.1084 69.2926C40.9617 69.2181 40.7911 69.1978 40.6295 69.2357C40.468 69.2736 40.327 69.367 40.2336 69.4978L39.6756 70.4075C39.3156 71.0095 38.9556 71.608 38.5956 72.1928L36.5076 75.582C36.4248 75.7154 36.342 75.8488 36.2628 75.9821C36.1826 76.0977 36.1412 76.2336 36.144 76.372C36.1497 76.5071 36.2015 76.6367 36.2916 76.7414C36.3939 76.842 36.5163 76.9223 36.6516 76.9774L38.2248 77.8255L41.04 79.344L45.1152 81.5567L46.2204 82.1655L46.5048 82.3262C46.5696 82.3639 46.602 82.3844 46.5984 82.3878L46.4976 82.3433L46.2024 82.1963L45.0828 81.6149L40.9752 79.4534L38.16 77.9384L36.5832 77.1005C36.4304 77.0364 36.2922 76.9446 36.1764 76.8303C36.0639 76.6982 35.9995 76.535 35.9928 76.3652C35.9851 76.196 36.0329 76.0287 36.1296 75.8864C36.2088 75.753 36.2916 75.6196 36.3744 75.4862L38.4372 72.1039L39.5172 70.3186L40.0824 69.3986C40.2016 69.2308 40.3821 69.111 40.5889 69.0624C40.7957 69.0137 41.0142 69.0397 41.202 69.1353L48.6324 73.1128L50.3028 74.0088L51.0984 74.4397C51.2358 74.5061 51.3681 74.5815 51.4944 74.6654C51.6199 74.7672 51.7092 74.9034 51.75 75.0553C51.7933 75.2007 51.7933 75.3546 51.75 75.4999C51.6926 75.6294 51.624 75.7541 51.5448 75.8727L51.1236 76.5567L50.3388 77.8324C49.3344 79.4466 48.5208 80.7565 47.952 81.6764C47.8339 81.8833 47.6991 82.0811 47.5488 82.2681C47.4148 82.3929 47.239 82.4691 47.052 82.4836C46.9389 82.4915 46.8254 82.4739 46.7208 82.4323C46.6786 82.4182 46.6386 82.3986 46.602 82.3741Z" fill="#E0E0E0"/>
<path d="M44.7012 75.3631L45.6084 76.8919L43.7364 76.9261L41.8644 76.9568L42.8292 75.3939L43.794 73.831L44.7012 75.3631Z" fill="#E0E0E0"/>
<path d="M166.788 140.562C166.788 140.613 132.354 140.654 89.892 140.654C47.43 140.654 12.9852 140.62 12.9852 140.562C12.9852 140.504 47.412 140.466 89.892 140.466C132.372 140.466 166.788 140.518 166.788 140.562Z" fill="#263238"/>
<path d="M51.0516 118.842L40.1832 108.469L45.648 98.9338C51.1128 92.2853 62.6832 92.7128 62.6832 92.7128C68.3914 92.3442 74.1258 92.6787 79.7436 93.708C88.9344 95.418 88.1928 101.184 88.1928 101.184L89.424 122.583L90.7452 140.008L56.8512 140.658L51.0516 118.855" fill="#4042FF"/>
<path d="M69.3108 139.639L38.952 139.981C37.2796 139.999 35.6297 139.613 34.1572 138.86C32.6848 138.106 31.4381 137.009 30.5344 135.673C29.6306 134.336 29.0994 132.802 28.9906 131.217C28.8818 129.631 29.199 128.046 29.9124 126.608L42.894 103.739L54.72 111.331L46.6524 127.224L71.226 127.641L69.3108 139.639Z" fill="#4042FF"/>
<path d="M87.12 97.6957L111.481 133.428L97.2684 134.31C97.2684 134.31 88.7796 121.605 88.9704 121.865C89.3088 122.344 87.12 97.6957 87.12 97.6957Z" fill="#4042FF"/>
<path d="M54.108 113.387C54.1089 113.324 54.1198 113.262 54.1404 113.202C54.1764 113.065 54.216 112.894 54.27 112.682C54.3816 112.234 54.5472 111.584 54.7164 110.777C54.8856 109.97 55.0764 108.999 55.1952 107.918C55.3414 106.747 55.3414 105.563 55.1952 104.392C54.9999 103.231 54.5735 102.115 53.9388 101.105C53.4287 100.274 52.8252 99.4978 52.1388 98.7901C51.6761 98.3064 51.1832 97.8496 50.6628 97.4221C50.4644 97.2746 50.2745 97.1171 50.094 96.9502C50.1526 96.9778 50.2081 97.011 50.2596 97.0493C50.3604 97.1212 50.5224 97.2203 50.7096 97.3674C51.2509 97.7735 51.761 98.2158 52.236 98.6909C52.9456 99.3933 53.5688 100.17 54.0936 101.006C54.7506 102.032 55.1908 103.169 55.3896 104.354C55.5321 105.54 55.5225 106.738 55.3608 107.922C55.2392 108.885 55.0662 109.841 54.8424 110.787C54.6552 111.598 54.4824 112.244 54.3348 112.689C54.27 112.911 54.2124 113.082 54.1728 113.199C54.1576 113.263 54.1359 113.326 54.108 113.387Z" fill="#263238"/>
<path d="M53.1288 114.618C53.0768 114.796 53.0069 114.969 52.92 115.134C52.776 115.476 52.56 115.935 52.2828 116.502C51.732 117.662 50.9508 119.255 50.0508 121C49.1508 122.744 48.3012 124.307 47.6712 125.446C47.3544 126.007 47.0952 126.472 46.9116 126.769C46.8239 126.935 46.7228 127.094 46.6092 127.245C46.6738 127.07 46.7533 126.901 46.8468 126.738C47.0304 126.396 47.268 125.938 47.5668 125.387L49.896 120.941C50.778 119.208 51.5808 117.641 52.1784 116.468C52.4592 115.918 52.6896 115.459 52.8696 115.1C52.9416 114.933 53.0283 114.771 53.1288 114.618Z" fill="#263238"/>
<path d="M69.3108 139.639C69.3108 139.639 69.3108 139.618 69.3108 139.58C69.3108 139.543 69.3108 139.474 69.3108 139.403C69.3288 139.238 69.354 139.009 69.3828 138.719C69.4548 138.11 69.5556 137.245 69.6816 136.154C69.948 133.941 70.3296 130.829 70.7616 127.159L70.848 127.248H61.8804L46.2168 127.224L41.4648 127.197L40.1724 127.18H39.834H39.7188C39.7571 127.175 39.7957 127.175 39.834 127.18H40.1724L41.4648 127.162L46.2168 127.135L61.9056 127.111H70.8732H70.9704V127.2C70.4952 130.866 70.0956 133.978 69.8076 136.188C69.6636 137.275 69.5448 138.141 69.4476 138.749C69.4092 139.037 69.3768 139.265 69.3504 139.433L69.3216 139.608C69.318 139.618 69.3144 139.639 69.3108 139.639Z" fill="#263238"/>
<path d="M46.8648 127.477C46.6473 127.249 46.4453 127.008 46.26 126.755C45.2898 125.598 44.0884 124.635 42.7248 123.92C42.4336 123.786 42.15 123.638 41.8752 123.476C42.1948 123.547 42.5016 123.662 42.786 123.818C44.2062 124.484 45.4343 125.469 46.3644 126.687C46.5688 126.927 46.7372 127.193 46.8648 127.477Z" fill="#263238"/>
<path d="M89.928 129.741C89.9016 129.644 89.8848 129.544 89.8776 129.444C89.8524 129.235 89.82 128.951 89.7768 128.592C89.694 127.853 89.5824 126.783 89.4636 125.459C89.2152 122.809 88.9308 119.143 88.6788 115.093C88.4268 111.044 88.2504 107.371 88.1496 104.714C88.0992 103.383 88.0632 102.32 88.0488 101.564C88.0488 101.205 88.0488 100.921 88.0308 100.709C88.0253 100.61 88.0253 100.51 88.0308 100.411C88.0507 100.509 88.0615 100.609 88.0632 100.709C88.0632 100.917 88.092 101.205 88.1136 101.564C88.1532 102.323 88.2072 103.393 88.2756 104.707C88.4088 107.364 88.6068 111.03 88.8588 115.083C89.1108 119.136 89.3772 122.795 89.5788 125.449C89.6868 126.759 89.7732 127.843 89.8344 128.589C89.8632 128.931 89.8848 129.232 89.9028 129.44C89.9208 129.54 89.9292 129.64 89.928 129.741Z" fill="#263238"/>
<path d="M62.8272 110.298C62.8288 110.142 62.842 109.985 62.8668 109.83C62.91 109.505 62.964 109.071 63.0324 108.537C63.1908 107.409 63.3924 105.863 63.6588 104.071L63.7956 104.153L61.4664 105.702L59.0976 107.268L58.9284 107.381L58.9572 107.186C59.2452 105.411 59.49 103.879 59.6772 102.74C59.7708 102.217 59.8428 101.786 59.9004 101.465C59.9197 101.31 59.9535 101.158 60.0012 101.01C60.0014 101.166 59.987 101.321 59.958 101.475C59.9148 101.796 59.8608 102.227 59.7888 102.757C59.6268 103.879 59.4 105.415 59.1408 107.203L59.004 107.121L61.3692 105.548L63.702 104.006L63.8712 103.893L63.8424 104.088C63.5652 105.873 63.324 107.419 63.1512 108.534C63.0612 109.064 62.9892 109.498 62.9352 109.82C62.9143 109.982 62.8782 110.142 62.8272 110.298Z" fill="#E0E0E0"/>
<path d="M76.3776 111.684C76.2479 111.585 76.1274 111.477 76.0176 111.359C75.7836 111.119 75.4668 110.801 75.078 110.411L71.8632 107.101L72.018 107.049C71.9424 107.887 71.8632 108.797 71.7804 109.741C71.6976 110.685 71.6112 111.622 71.5356 112.477L71.5176 112.675L71.3808 112.528L68.2524 109.177L67.3596 108.199C67.246 108.087 67.1447 107.964 67.0572 107.833C67.1867 107.937 67.3071 108.052 67.4172 108.175L68.346 109.119L71.5212 112.426L71.3664 112.477C71.442 111.625 71.5212 110.702 71.6076 109.741C71.694 108.78 71.7732 107.887 71.8488 107.049L71.8668 106.854L72.0036 106.998L75.1716 110.353L76.0752 111.335C76.1854 111.443 76.2865 111.56 76.3776 111.684Z" fill="#E0E0E0"/>
<path d="M83.196 111.225C83.1289 111.369 83.0469 111.507 82.9512 111.636L82.2312 112.737L79.6608 116.526L79.5744 116.396L82.368 115.938L85.212 115.483L85.4172 115.449L85.32 115.596L82.692 119.31L81.9 120.384C81.8121 120.515 81.7134 120.64 81.6048 120.757C81.6759 120.617 81.7577 120.482 81.8496 120.353L82.5696 119.259L85.1436 115.497L85.2336 115.627L82.3896 116.095L79.5852 116.547L79.38 116.578L79.4952 116.417L82.1196 112.655L82.89 111.577C82.9845 111.454 83.0867 111.337 83.196 111.225Z" fill="#E0E0E0"/>
<path d="M74.1276 117.853C74.0599 117.996 73.9779 118.132 73.8828 118.26L73.1628 119.365L70.596 123.151L70.506 123.021L73.3068 122.563L76.1544 122.104L76.3596 122.073L76.2408 122.234L73.6128 125.952L72.8388 127.019C72.7528 127.15 72.654 127.274 72.5436 127.388C72.6156 127.249 72.6974 127.114 72.7884 126.985C72.9756 126.711 73.2204 126.345 73.5084 125.894L76.0824 122.132L76.1724 122.262L73.3284 122.73L70.524 123.178L70.3188 123.212L70.434 123.048L73.0584 119.286C73.3752 118.842 73.6344 118.479 73.8324 118.209C73.9216 118.084 74.0203 117.965 74.1276 117.853Z" fill="#E0E0E0"/>
<path d="M93.7224 111.15C93.651 111.291 93.5692 111.427 93.4776 111.557L92.7576 112.662L90.1908 116.448L90.1008 116.318L92.9016 115.859L95.7492 115.401L95.9544 115.37L95.8392 115.531L93.2076 119.249C92.8908 119.686 92.6316 120.045 92.4336 120.312C92.3484 120.445 92.2495 120.57 92.1384 120.685C92.211 120.545 92.294 120.41 92.3868 120.281L93.1068 119.19L95.6808 115.428L95.7708 115.558L92.9268 116.024L90.1224 116.475L89.9208 116.509L90.0324 116.345L92.6568 112.583L93.4308 111.506C93.5156 111.378 93.6132 111.259 93.7224 111.15Z" fill="#E0E0E0"/>
<path d="M105.026 128.366C104.898 128.273 104.777 128.17 104.666 128.058L103.68 127.156L100.292 124.002L100.444 123.944C100.415 124.786 100.386 125.695 100.354 126.643C100.321 127.59 100.282 128.53 100.249 129.379V129.577L100.102 129.437L96.804 126.239L95.8608 125.305C95.7436 125.2 95.6353 125.085 95.5368 124.963C95.665 125.057 95.7854 125.16 95.8968 125.271L96.876 126.171L100.224 129.324L100.069 129.382C100.098 128.527 100.13 127.604 100.163 126.646C100.195 125.688 100.235 124.789 100.267 123.948V123.753L100.411 123.889L103.748 127.091L104.702 128.028C104.82 128.132 104.929 128.245 105.026 128.366Z" fill="#E0E0E0"/>
<path d="M47.8404 105.657C47.77 105.799 47.6881 105.935 47.5956 106.064L46.8756 107.169L44.3088 110.958L44.2188 110.829L47.0196 110.367L49.8672 109.912L50.0724 109.878L49.9572 110.042L47.3256 113.756L46.5552 114.823C46.4678 114.954 46.369 115.077 46.26 115.192C46.329 115.052 46.4109 114.919 46.5048 114.792L47.2248 113.698C47.8764 112.751 48.7692 111.451 49.7988 109.936L49.8888 110.066L47.0448 110.534L44.2404 110.986L44.0388 111.017L44.1504 110.856C45.2052 109.351 46.1124 108.051 46.7748 107.094L47.5488 106.017C47.6359 105.89 47.7334 105.77 47.8404 105.657Z" fill="#E0E0E0"/>
<path d="M33.606 131.232C33.7273 131.336 33.8382 131.451 33.9372 131.574L34.8156 132.576L37.8 136.075L37.6416 136.116C37.7712 135.285 37.908 134.382 38.0556 133.442C38.2032 132.501 38.3472 131.574 38.4804 130.729L38.5092 130.535L38.6388 130.692L41.5404 134.221L42.3648 135.247C42.4695 135.366 42.5635 135.493 42.6456 135.627C42.5274 135.521 42.4179 135.407 42.318 135.285L41.454 134.286L38.52 130.794L38.6784 130.757C38.5488 131.602 38.4084 132.518 38.2608 133.469C38.1132 134.42 37.9728 135.309 37.8396 136.14L37.8108 136.335L37.6812 136.181L34.7436 132.645L33.9048 131.619C33.7962 131.496 33.6963 131.367 33.606 131.232Z" fill="#E0E0E0"/>
<path d="M66.114 114.673C65.9528 114.705 65.7891 114.726 65.6244 114.734L64.2564 114.847L59.526 115.189L59.5836 115.045L61.6572 116.892L63.756 118.773L63.9072 118.91H63.6984L58.9932 119.156L57.6324 119.211C57.4695 119.224 57.3057 119.224 57.1428 119.211C57.3031 119.18 57.4656 119.161 57.6288 119.153L58.986 119.05L63.6876 118.742L63.6336 118.886L61.5276 117.012L59.4612 115.158L59.31 115.021H59.5152L64.2492 114.751L65.6172 114.686C65.7822 114.67 65.9483 114.665 66.114 114.673Z" fill="#E0E0E0"/>
<path d="M58.1364 131.909C58.2565 132.017 58.3695 132.131 58.4748 132.251L59.3712 133.236L62.4348 136.677L62.2764 136.718C62.388 135.883 62.5104 134.981 62.6364 134.04C62.7624 133.1 62.892 132.166 62.9964 131.321L63.0252 131.123L63.1548 131.277L66.1356 134.748L66.9816 135.774C67.0865 135.893 67.1827 136.019 67.2696 136.15C67.1482 136.045 67.0362 135.931 66.9348 135.808L66.0492 134.827L63.0252 131.407L63.18 131.362C63.0684 132.21 62.946 133.127 62.82 134.081C62.694 135.035 62.568 135.928 62.46 136.762L62.4312 136.957L62.3016 136.807L59.2884 133.325L58.4316 132.299C58.3199 132.179 58.221 132.048 58.1364 131.909Z" fill="#E0E0E0"/>
<path d="M43.8768 119.269C43.7157 119.303 43.5519 119.323 43.3872 119.331L42.0228 119.44L37.2924 119.782L37.3464 119.635L39.4236 121.485L41.5224 123.366L41.6736 123.503H41.4648L36.7596 123.749L35.3988 123.804C35.2395 123.817 35.0793 123.817 34.92 123.804C35.0799 123.771 35.2425 123.752 35.406 123.746L36.7632 123.643L41.4648 123.332L41.4108 123.479L39.3048 121.605L37.2348 119.751L37.0872 119.615H37.2924L42.0264 119.341L43.3944 119.279C43.5547 119.264 43.716 119.261 43.8768 119.269Z" fill="#E0E0E0"/>
<path d="M56.1276 131.523C55.9664 131.555 55.8026 131.575 55.638 131.581L54.27 131.694L49.5396 132.036L49.5972 131.889L51.6708 133.739L53.7696 135.62L53.9208 135.757H53.7156L49.0068 136L47.646 136.058C47.4831 136.071 47.3193 136.071 47.1564 136.058C47.3163 136.025 47.4789 136.006 47.6424 136L48.9996 135.897L53.7012 135.586L53.6472 135.733L51.5412 133.859L49.4748 132.012L49.3236 131.879H49.5288L54.2628 131.605L55.6344 131.543C55.7978 131.522 55.9629 131.516 56.1276 131.523Z" fill="#E0E0E0"/>
<path d="M83.7792 100.346C83.618 100.379 83.4543 100.4 83.2896 100.408L81.9216 100.517L77.1948 100.859L77.2488 100.716L79.3224 102.562L81.4212 104.443L81.5724 104.58H81.3672L76.6584 104.826L75.2976 104.881C75.1347 104.895 74.9709 104.895 74.808 104.881C74.9679 104.848 75.1305 104.829 75.294 104.823L76.6512 104.72L81.3564 104.413L81.2988 104.556L79.2 102.685L77.1336 100.832L76.9824 100.695H77.1876L81.9216 100.421L83.2932 100.36C83.4546 100.344 83.6171 100.339 83.7792 100.346Z" fill="#E0E0E0"/>
<path d="M70.3296 131.523C70.3296 131.523 76.3848 129.864 78.39 129.379C79.1712 129.191 82.5156 130.866 84.8268 132.262C84.8268 132.262 88.0092 134.054 87.7536 134.604C87.4692 135.213 86.3136 135.09 84.4236 134.262C84.4236 134.262 85.0788 136.065 83.7936 136.024C83.7936 136.024 84.4308 137.973 83.2284 138.175C82.026 138.377 81.7452 135.89 80.6868 135.757C79.6284 135.624 77.4468 135.487 77.4468 135.487C77.4468 135.487 75.6216 138.359 74.2068 138.565C72.792 138.77 69.5268 138.404 69.5268 138.404L70.3296 131.523Z" fill="#FFBE9D"/>
<path d="M80.6652 131.92C81.258 132.17 81.8245 132.474 82.3572 132.826C82.9224 133.13 83.4553 133.485 83.9484 133.886C82.7889 133.334 81.6892 132.676 80.6652 131.92Z" fill="#EB996E"/>
<path d="M80.3088 133.038C81.0005 133.245 81.6724 133.507 82.3176 133.821C82.9845 134.079 83.6275 134.389 84.24 134.748C83.548 134.543 82.876 134.283 82.2312 133.968C81.563 133.712 80.9198 133.401 80.3088 133.038Z" fill="#EB996E"/>
<path d="M80.9568 135.709C81.8714 135.706 82.7821 135.821 83.664 136.051C82.7495 136.054 81.8389 135.938 80.9568 135.709Z" fill="#EB996E"/>
<path d="M62.4492 72.162C62.5205 72.3836 62.5215 72.6203 62.4521 72.8424C62.3827 73.0646 62.246 73.2624 62.059 73.4113C61.872 73.5601 61.6431 73.6533 61.4007 73.6793C61.1583 73.7053 60.9132 73.6629 60.696 73.5574C59.8752 73.1641 59.7708 72.0868 59.9328 71.2283C60.0948 70.3699 60.4008 69.4499 60.0228 68.6531C59.7312 68.0443 59.1012 67.6579 58.6116 67.1791C58.1795 66.7629 57.8549 66.2573 57.6631 65.7018C57.4714 65.1464 57.4177 64.5564 57.5064 63.9779C57.6102 63.4012 57.8795 62.863 58.2848 62.4224C58.6901 61.9819 59.2155 61.6562 59.8032 61.4813C61.0092 61.1633 62.496 61.5155 63.4032 60.6845C64.0548 60.0826 64.0944 59.101 64.5984 58.3828C65.3796 57.2679 67.032 57.0901 68.4288 57.2713C69.8256 57.4526 71.244 57.8801 72.612 57.5552C73.7532 57.285 74.6892 56.5292 75.762 56.0641C76.9312 55.5563 78.2382 55.4084 79.5003 55.641C80.7624 55.8736 81.9163 56.4751 82.8009 57.3614C83.6854 58.2477 84.2562 59.3744 84.4336 60.5841C84.6109 61.7937 84.3859 63.0257 83.79 64.1079C83.3927 64.8998 82.7165 65.535 81.8784 65.9034" fill="#263238"/>
<path d="M69.3972 100.415C70.3152 100.413 71.2238 100.238 72.0702 99.9003C72.9166 99.5626 73.684 99.0686 74.3279 98.447C74.9718 97.8254 75.4795 97.0885 75.8215 96.2791C76.1634 95.4698 76.3329 94.604 76.32 93.7319L76.23 87.446C76.23 87.446 81.7884 86.9159 82.1556 81.6833C82.5228 76.4507 82.26 64.3747 82.26 64.3747C79.2016 62.9333 75.7938 62.2929 72.3881 62.5195C68.9823 62.7461 65.7018 63.8316 62.8848 65.664L62.0352 66.2215L62.4492 93.9029C62.471 95.6389 63.213 97.2966 64.514 98.5159C65.8149 99.7351 67.5697 100.417 69.3972 100.415Z" fill="#FFBE9D"/>
<path d="M80.8056 73.872C80.6046 73.85 80.4191 73.7586 80.2844 73.6151C80.1498 73.4717 80.0754 73.2862 80.0754 73.094C80.0754 72.9017 80.1498 72.7162 80.2844 72.5728C80.4191 72.4293 80.6046 72.3379 80.8056 72.3159C80.8493 72.3056 80.895 72.3056 80.9388 72.3159C81.1398 72.3379 81.3253 72.4293 81.4599 72.5728C81.5946 72.7162 81.669 72.9017 81.669 73.094C81.669 73.2862 81.5946 73.4717 81.4599 73.6151C81.3253 73.7586 81.1398 73.85 80.9388 73.872C80.8947 73.8788 80.8497 73.8788 80.8056 73.872Z" fill="#263238"/>
<path d="M81.8856 72.1825C81.7956 72.2714 81.2772 71.8405 80.5176 71.8029C79.758 71.7653 79.1856 72.1039 79.11 72.0081C79.0344 71.9123 79.164 71.8063 79.416 71.6456C79.7527 71.4403 80.1499 71.3431 80.5491 71.3684C80.9483 71.3936 81.3285 71.5399 81.6336 71.7858C81.8604 71.9773 81.9324 72.162 81.8856 72.1825Z" fill="#263238"/>
<path d="M73.1052 72.3604C73.2358 72.4463 73.3367 72.567 73.395 72.7074C73.4533 72.8478 73.4665 73.0014 73.4328 73.1489C73.3992 73.2964 73.3202 73.4311 73.206 73.536C73.0917 73.6408 72.9473 73.7111 72.7909 73.7379C72.6346 73.7647 72.4734 73.7469 72.3278 73.6867C72.1821 73.6264 72.0586 73.5265 71.9727 73.3995C71.8869 73.2725 71.8426 73.1242 71.8456 72.9733C71.8485 72.8224 71.8985 72.6758 71.9892 72.5519C72.1106 72.3861 72.2963 72.2728 72.5055 72.2369C72.7147 72.201 72.9304 72.2454 73.1052 72.3604Z" fill="#263238"/>
<path d="M73.6056 72.3911C73.512 72.4801 72.9936 72.0491 72.2376 72.0115C71.4816 71.9739 70.9056 72.3125 70.8264 72.2167C70.7868 72.1723 70.884 72.0149 71.1324 71.8542C71.4691 71.6489 71.8663 71.5518 72.2656 71.577C72.6648 71.6023 73.0449 71.7486 73.35 71.9944C73.5768 72.1859 73.6488 72.3535 73.6056 72.3911Z" fill="#263238"/>
<path d="M76.32 78.4992C76.32 78.4445 76.7916 78.3761 77.562 78.3146C77.76 78.3146 77.922 78.2701 77.94 78.1709C77.9545 77.9824 77.916 77.7935 77.8284 77.6237C77.6592 77.1347 77.49 76.6422 77.31 76.1258C76.59 73.9951 76.1184 72.2406 76.23 72.2064C76.3416 72.1722 77.0112 73.872 77.7204 76.0026C77.886 76.5225 78.048 77.0286 78.2028 77.5074C78.317 77.7564 78.3399 78.0347 78.2676 78.2975C78.2354 78.3684 78.1861 78.4311 78.1235 78.4805C78.0609 78.5298 77.9869 78.5644 77.9076 78.5813C77.7954 78.6051 77.6802 78.6132 77.5656 78.6053C76.788 78.5916 76.32 78.5574 76.32 78.4992Z" fill="#263238"/>
<path d="M73.8 79.1696C74.9571 79.7339 76.1902 80.1447 77.4648 80.3905C77.1853 80.7552 76.7842 81.0193 76.3266 81.1398C75.869 81.2602 75.382 81.23 74.9448 81.054C73.3212 80.3939 73.8 79.1696 73.8 79.1696Z" fill="white"/>
<path d="M76.2516 87.3707C73.7032 87.2844 71.2394 86.4796 69.174 85.0588C69.174 85.0588 70.6572 88.9132 76.1832 88.7285L76.2516 87.3707Z" fill="#EB996E"/>
<path d="M82.3068 65.6982C82.3068 65.6982 78.9768 67.3056 74.5668 65.3151C71.6868 64.0087 68.3136 63.4034 67.5864 63.9677C66.8592 64.532 66.762 67.3364 63.9396 68.2085C63.9396 68.2085 64.2456 73.5642 61.992 73.4137C59.7384 73.2632 60.9768 64.9424 60.9768 64.9424L66.4236 62.2885L72.4032 61.1017L78.0732 61.7549L82.4724 62.8117L82.3068 65.6982Z" fill="#263238"/>
<path d="M62.4024 71.6935C62.3124 71.649 58.6764 70.4315 58.5936 74.0191C58.5108 77.6066 62.316 76.9466 62.3232 76.844C62.3304 76.7414 62.4024 71.6935 62.4024 71.6935Z" fill="#FFBE9D"/>
<path d="M61.2 75.4589C61.2 75.4589 61.1316 75.5033 61.02 75.5478C60.8619 75.6088 60.6849 75.6088 60.5268 75.5478C60.1308 75.4007 59.8068 74.792 59.8068 74.1456C59.8063 73.8375 59.8763 73.5329 60.012 73.253C60.0507 73.1419 60.1171 73.0413 60.2055 72.9598C60.2938 72.8782 60.4016 72.8181 60.5196 72.7845C60.5958 72.7713 60.6744 72.7818 60.7438 72.8145C60.8132 72.8471 60.8696 72.9002 60.9048 72.9657C60.9516 73.0649 60.9264 73.1367 60.9444 73.1435C60.9624 73.1504 61.0272 73.0854 61.002 72.9384C60.9822 72.8489 60.9315 72.7682 60.858 72.7092C60.756 72.6331 60.627 72.5975 60.498 72.61C60.3421 72.6356 60.1957 72.6987 60.0728 72.7933C59.9499 72.8879 59.8546 73.0108 59.796 73.1504C59.6297 73.4583 59.5433 73.7995 59.544 74.1456C59.544 74.8672 59.9256 75.5546 60.4656 75.7154C60.5666 75.7447 60.6731 75.7525 60.7776 75.7383C60.8821 75.7241 60.9821 75.6883 61.0704 75.6333C61.2 75.5478 61.2 75.4657 61.2 75.4589Z" fill="#EB996E"/>
<path d="M60.48 60.4656C60.9108 60.3455 61.3709 60.3613 61.7914 60.5105C62.212 60.6597 62.5703 60.9343 62.8128 61.2932C62.4772 61.0517 62.1151 60.8453 61.7328 60.6776C61.3241 60.5658 60.9042 60.4947 60.48 60.4656Z" fill="#263238"/>
<path d="M62.7516 58.3178C62.82 58.3178 62.7156 59.0737 62.8452 59.9697C62.9572 60.5084 63.1348 61.0329 63.3744 61.5326C63.3744 61.5326 63.216 61.4061 63.0576 61.1393C62.8543 60.7843 62.7201 60.3974 62.6616 59.9971C62.5567 59.4381 62.5875 58.8638 62.7516 58.3178Z" fill="#263238"/>
<path d="M78.264 70.452C78.2424 70.411 78.4044 70.2844 78.7104 70.1682C79.5227 69.8697 80.4245 69.8783 81.2304 70.1921C81.5328 70.3152 81.6948 70.4418 81.6732 70.4828C81.6264 70.5786 80.8992 70.3084 79.9668 70.3084C79.0344 70.3084 78.3072 70.558 78.264 70.452Z" fill="#263238"/>
<path d="M69.84 69.7064C69.8184 69.6654 69.9804 69.5423 70.2864 69.4226C70.6892 69.2747 71.1182 69.2015 71.55 69.2071C71.9837 69.207 72.4131 69.2884 72.8136 69.4465C73.116 69.5696 73.2744 69.6962 73.2564 69.7406C73.2384 69.7851 72.4824 69.5662 71.5464 69.5628C70.6104 69.5594 69.8904 69.8022 69.84 69.7064Z" fill="#263238"/>
<path d="M77.6124 71.0266C77.6205 71.097 77.6205 71.1681 77.6124 71.2386C77.6124 71.3891 77.6124 71.5806 77.6304 71.8166C77.6484 72.0526 77.6304 72.3706 77.652 72.7126C77.6384 73.1073 77.6994 73.5011 77.832 73.8754C78.0056 74.3609 78.3061 74.7967 78.7053 75.1418C79.1044 75.4869 79.5893 75.7302 80.1144 75.8488C80.4157 75.9187 80.7266 75.9441 81.036 75.924C81.3579 75.9103 81.6753 75.8467 81.9756 75.7359C82.616 75.508 83.1616 75.0892 83.5308 74.5423C83.8803 74.0201 84.0559 73.4098 84.0348 72.7913C84.0348 72.1791 84.0348 71.5909 84.0348 71.0266L84.1212 71.1086L79.4412 71.0676L78.084 71.0437H77.724H77.5908C77.745 71.0274 77.9001 71.0205 78.0552 71.0231L79.3908 70.9992L84.1212 70.9582H84.24V71.0437C84.24 71.608 84.24 72.1962 84.24 72.8084C84.2641 73.4607 84.0796 74.1046 83.7108 74.6552C83.3194 75.2342 82.7408 75.677 82.062 75.9172C81.7431 76.0336 81.4062 76.0994 81.0648 76.1121C80.7393 76.1305 80.4128 76.1017 80.0964 76.0266C79.5457 75.9002 79.0385 75.6412 78.6236 75.2746C78.2088 74.9081 77.9002 74.4462 77.7276 73.9336C77.5983 73.5424 77.5446 73.1322 77.5692 72.7229C77.5692 72.3809 77.5692 72.0628 77.5872 71.8029C77.6052 71.543 77.5872 71.3822 77.6052 71.2318C77.6019 71.1633 77.6043 71.0947 77.6124 71.0266Z" fill="#263238"/>
<path d="M68.7888 70.8487C68.7888 70.8487 68.7888 70.9274 68.7888 71.0608V71.6388C68.7888 71.8918 68.7888 72.1928 68.8068 72.5382C68.7973 72.9327 68.8582 73.3258 68.9868 73.701C69.1526 74.1513 69.4248 74.5596 69.7824 74.8946C70.1953 75.2759 70.709 75.5441 71.2692 75.6709C71.8886 75.8127 72.5386 75.7734 73.134 75.5581C73.7726 75.3304 74.3167 74.913 74.6856 74.3679C75.0363 73.846 75.2132 73.2358 75.1932 72.6169C75.1932 72.0047 75.1932 71.413 75.1932 70.8487L75.2796 70.9308L70.5996 70.8898L69.246 70.8693H68.886H68.7528C68.9058 70.8531 69.0597 70.8462 69.2136 70.8487L70.5492 70.8282L75.2796 70.7872H75.366V70.8693C75.366 71.4336 75.366 72.0252 75.366 72.6374C75.3877 73.2899 75.202 73.9334 74.8332 74.4842C74.4419 75.0612 73.8648 75.5027 73.188 75.7427C72.869 75.8588 72.5321 75.9247 72.1908 75.9377C71.8641 75.956 71.5364 75.9272 71.2188 75.8522C70.6305 75.7146 70.0929 75.4272 69.6636 75.0211C69.2922 74.6667 69.0136 74.2345 68.85 73.7591C68.7207 73.368 68.667 72.9578 68.6916 72.5485C68.6916 72.2065 68.6916 71.8884 68.7132 71.6285C68.7348 71.3686 68.7132 71.2078 68.7132 71.0574C68.7263 70.9844 68.7519 70.9139 68.7888 70.8487Z" fill="#263238"/>
<path d="M77.6916 71.2762C76.8683 71.3949 76.0309 71.3949 75.2076 71.2762C76.0305 71.1531 76.8687 71.1531 77.6916 71.2762Z" fill="#263238"/>
<path d="M61.92 71.3207C63.0646 71.23 64.2134 71.1969 65.3616 71.2215C66.5107 71.1905 67.6606 71.2168 68.8068 71.3001C67.6625 71.395 66.5135 71.4281 65.3652 71.3993C64.2162 71.4342 63.066 71.408 61.92 71.3207Z" fill="#263238"/>
<path d="M98.9532 135.86C99.7621 137.286 100.987 138.46 102.482 139.241C103.976 140.022 105.676 140.376 107.377 140.261C109.387 140.127 111.289 139.347 112.769 138.048C114.249 136.749 115.218 135.01 115.517 133.117L117.605 110.411L109.242 108.448L105.826 126.232C105.826 126.232 104.04 133.684 98.9532 135.86Z" fill="#FFBE9D"/>
<path d="M109.166 110.093L109.444 106.109C109.444 106.109 110.628 97.169 110.628 96.2935C110.628 95.288 111.136 95.0418 111.528 95.0692C112.136 95.1068 112.568 95.8216 112.608 96.6868C112.608 96.9844 112.579 101.711 112.579 101.711C112.867 101.264 113.188 100.838 113.54 100.435C114.26 99.5494 116.003 99.0432 117.778 99.0979C119.552 99.1526 120.038 99.3168 120.049 99.97C120.043 100.095 120.007 100.217 119.945 100.327C119.883 100.437 119.795 100.532 119.689 100.606C119.362 100.866 118.945 101.002 118.519 100.989C115.679 100.941 114.919 102.381 114.919 102.381L114.883 102.904C114.883 102.904 116.608 101.731 117.983 102.22C118.186 102.292 118.372 102.401 118.53 102.542C118.917 102.543 119.297 102.641 119.633 102.825C119.968 103.009 120.247 103.273 120.441 103.591C120.636 103.909 120.74 104.27 120.742 104.638C120.745 105.006 120.646 105.368 120.456 105.688C120.382 105.853 120.257 105.992 120.097 106.086C119.938 106.181 119.751 106.227 119.563 106.218C119.373 106.164 119.2 106.064 119.063 105.928C118.982 105.863 118.897 105.803 118.807 105.75L118.49 107.196C118.49 107.196 117.594 110.411 117.371 111.854" fill="#FFBE9D"/>
<path d="M109.984 109.782C110.502 109.919 111.038 109.556 111.319 109.119C111.6 108.681 111.719 108.164 111.964 107.706C112.705 106.338 114.484 105.688 115.164 104.286C115.258 104.091 115.308 103.824 115.128 103.694C114.948 103.564 114.725 103.67 114.541 103.766L109.861 106.229" fill="#FFBE9D"/>
<path d="M109.858 106.222C110.003 106.099 110.164 105.993 110.336 105.907C110.653 105.719 111.118 105.459 111.694 105.141L113.728 104.036L114.314 103.722C114.533 103.557 114.811 103.482 115.088 103.513C115.174 103.539 115.249 103.59 115.304 103.658C115.358 103.725 115.39 103.807 115.394 103.893C115.404 104.033 115.378 104.174 115.319 104.303C115.211 104.531 115.075 104.747 114.916 104.946C114.268 105.746 113.429 106.249 112.824 106.834C112.53 107.099 112.28 107.404 112.082 107.74C111.906 108.055 111.794 108.383 111.658 108.681C111.574 108.929 111.433 109.157 111.247 109.348C111.06 109.54 110.832 109.69 110.578 109.789C110.192 109.898 109.976 109.789 109.991 109.768C110.177 109.774 110.363 109.745 110.538 109.683C110.763 109.574 110.962 109.421 111.122 109.235C111.282 109.049 111.399 108.834 111.467 108.602C111.582 108.271 111.715 107.946 111.866 107.627C112.065 107.263 112.324 106.932 112.633 106.646C113.252 106.03 114.073 105.514 114.678 104.772C114.82 104.593 114.941 104.399 115.038 104.194C115.128 103.999 115.114 103.804 114.998 103.783C114.883 103.763 114.656 103.855 114.458 103.961L113.861 104.269L111.798 105.336C111.208 105.634 110.718 105.866 110.394 106.02C110.226 106.111 110.046 106.179 109.858 106.222Z" fill="#EB996E"/>
<path d="M114.818 102.942C114.85 102.618 114.962 102.307 115.146 102.032C115.359 101.751 115.662 101.542 116.01 101.437C116.446 101.301 116.901 101.232 117.36 101.232C117.831 101.236 118.301 101.198 118.764 101.116C119.152 101.041 119.512 100.869 119.808 100.62C119.906 100.534 119.983 100.427 120.031 100.309C120.08 100.19 120.1 100.063 120.089 99.9358C120.084 99.8426 120.051 99.7526 119.995 99.6759C119.977 99.6759 119.995 99.7751 120.013 99.9392C120.011 100.054 119.984 100.167 119.931 100.27C119.879 100.373 119.804 100.465 119.711 100.538C119.423 100.753 119.084 100.898 118.724 100.962C118.271 101.033 117.812 101.065 117.353 101.058C116.877 101.053 116.404 101.123 115.952 101.266C115.575 101.391 115.252 101.632 115.034 101.95C114.893 102.165 114.812 102.409 114.797 102.662C114.776 102.755 114.784 102.852 114.818 102.942Z" fill="#EB996E"/>
<path d="M112.583 96.3517C112.552 96.6645 112.552 96.9793 112.583 97.2922C112.583 97.9351 112.583 98.7046 112.608 99.5528C112.633 100.401 112.608 101.17 112.608 101.813C112.586 102.127 112.594 102.442 112.63 102.754C112.708 102.447 112.748 102.133 112.748 101.817C112.792 101.239 112.82 100.449 112.817 99.5528C112.813 98.6567 112.777 97.8633 112.734 97.2853C112.719 96.9698 112.668 96.6568 112.583 96.3517Z" fill="#EB996E"/>
<path d="M115.942 103.992C116.042 103.969 116.139 103.933 116.23 103.886C116.347 103.829 116.476 103.796 116.607 103.79C116.739 103.785 116.87 103.805 116.993 103.852C117.068 103.891 117.131 103.947 117.177 104.016C117.222 104.085 117.248 104.164 117.252 104.245C117.264 104.449 117.248 104.654 117.205 104.854C117.146 105.105 117.188 105.369 117.324 105.593C117.41 105.707 117.523 105.801 117.655 105.866C117.786 105.932 117.932 105.967 118.08 105.969C118.226 105.968 118.37 105.939 118.503 105.884C118.637 105.828 118.758 105.748 118.858 105.647C119.045 105.468 119.171 105.239 119.218 104.991C119.274 104.588 119.268 104.18 119.2 103.78C119.162 103.509 119.076 103.246 118.944 103.004C118.843 102.833 118.75 102.768 118.742 102.774C118.735 102.781 118.8 102.867 118.876 103.034C118.974 103.28 119.036 103.538 119.059 103.8C119.107 104.186 119.1 104.576 119.041 104.96C118.995 105.177 118.877 105.375 118.703 105.523C118.529 105.671 118.309 105.761 118.076 105.781C117.959 105.78 117.844 105.753 117.74 105.703C117.635 105.652 117.545 105.579 117.475 105.49C117.366 105.302 117.332 105.084 117.378 104.874C117.418 104.659 117.428 104.439 117.407 104.221C117.396 104.117 117.358 104.017 117.295 103.932C117.232 103.846 117.146 103.777 117.047 103.732C116.907 103.681 116.756 103.663 116.607 103.679C116.458 103.694 116.315 103.743 116.19 103.821C116.021 103.917 115.92 103.968 115.942 103.992Z" fill="#EB996E"/>
<path d="M118.775 105.504C118.75 105.593 118.76 105.688 118.804 105.77C118.854 105.888 118.932 105.992 119.032 106.077C119.132 106.161 119.251 106.222 119.38 106.256C119.574 106.296 119.775 106.287 119.964 106.23C120.153 106.174 120.324 106.072 120.46 105.935C120.784 105.596 120.958 105.151 120.946 104.693C120.946 104.241 120.797 103.8 120.521 103.431C120.295 103.131 119.988 102.894 119.632 102.747C119.398 102.647 119.146 102.59 118.89 102.579C118.71 102.579 118.613 102.579 118.613 102.607C118.945 102.648 119.269 102.735 119.574 102.867C119.894 103.018 120.168 103.242 120.373 103.52C120.612 103.865 120.738 104.27 120.733 104.683C120.745 105.093 120.596 105.493 120.316 105.805C120.202 105.927 120.056 106.02 119.894 106.075C119.731 106.129 119.557 106.143 119.387 106.116C119.273 106.092 119.167 106.045 119.074 105.978C118.982 105.911 118.905 105.826 118.85 105.729C118.8 105.599 118.8 105.504 118.775 105.504Z" fill="#EB996E"/>
<path d="M115.355 108.664C115.2 108.617 115.034 108.617 114.88 108.664C114.474 108.748 114.11 108.957 113.843 109.259L114.008 109.307C113.986 109.095 113.95 108.885 113.9 108.677C113.757 107.942 113.402 107.259 112.874 106.704C113.227 107.346 113.507 108.021 113.71 108.718C113.76 108.93 113.796 109.136 113.821 109.327L113.85 109.539L113.99 109.372C114.229 109.092 114.548 108.884 114.908 108.773C115.178 108.694 115.355 108.688 115.355 108.664Z" fill="#EB996E"/>
<path d="M115.445 100.623C115.398 100.644 115.589 100.965 116.028 101.16C116.467 101.355 116.856 101.242 116.838 101.194C116.82 101.147 116.478 101.15 116.118 100.989C115.758 100.828 115.492 100.589 115.445 100.623Z" fill="#EB996E"/>
<path d="M107.726 112.672L118.235 113.387C118.235 113.387 116.618 131.051 116.305 133.79C115.992 136.53 114.145 140.661 107.726 140.661C101.308 140.661 100.112 138.585 97.2576 134.31C100.624 132.094 105.97 125.476 105.97 125.476L107.726 112.672Z" fill="#4042FF"/>
<path d="M112.68 115.049C112.626 115.198 112.561 115.343 112.486 115.483L111.899 116.66L109.825 120.726L109.721 120.606L112.446 119.837L115.214 119.064L115.416 119.009L115.319 119.184L113.159 123.168L112.522 124.314C112.451 124.454 112.368 124.587 112.273 124.714C112.328 124.567 112.393 124.425 112.468 124.286C112.619 123.992 112.828 123.602 113.058 123.12L115.15 119.108L115.254 119.228L112.489 120.008L109.76 120.767L109.562 120.822L109.656 120.647L111.805 116.622C112.068 116.147 112.28 115.757 112.439 115.466C112.507 115.321 112.587 115.181 112.68 115.049Z" fill="#E0E0E0"/>
<path d="M111.686 132.039C111.525 132.072 111.361 132.093 111.197 132.101L109.829 132.214L105.098 132.556L105.156 132.409L107.23 134.256L109.328 136.137L109.48 136.273H109.271L104.566 136.52L103.205 136.574C103.042 136.588 102.878 136.588 102.715 136.574C102.875 136.544 103.038 136.526 103.201 136.52L104.558 136.414L109.26 136.106L109.206 136.253L107.1 134.375L105.034 132.522L104.882 132.388H105.088L109.822 132.118L111.193 132.053C111.357 132.037 111.522 132.032 111.686 132.039Z" fill="#E0E0E0"/>
<path d="M130.396 68.9369L119.678 65.2809L109.08 68.889C107.726 69.4944 106.538 69.8603 106.538 71.0573V77.0286C106.513 81.2227 107.719 85.3404 110.02 88.92C112.318 92.5323 115.725 95.3904 119.783 97.1109C124.103 95.7737 127.343 92.2032 129.341 89.1525C131.648 85.5748 132.86 81.4569 132.84 77.2612V71.8918C132.84 70.1818 131.882 69.3473 130.396 68.9369Z" fill="#4042FF"/>
<g opacity="0.3">
<path opacity="0.3" d="M119.783 93.6362C116.567 92.2585 113.873 89.9791 112.061 87.104C110.237 84.2752 109.278 81.0197 109.292 77.7024V73.53C109.292 72.5792 109.897 71.69 111.092 71.1599L119.682 68.1093V65.2946L109.08 68.8891C107.968 69.3508 106.538 69.8603 106.538 71.0573V77.0287C106.513 81.2227 107.719 85.3405 110.02 88.92C112.318 92.5324 115.725 95.3905 119.783 97.1109V93.6362Z" fill="black"/>
</g>
<g opacity="0.4">
<path opacity="0.4" d="M119.783 97.1006C120.51 96.875 121.215 96.5889 121.889 96.2456C123.547 95.3547 125.054 94.2318 126.36 92.9146C127.541 91.7061 128.58 90.3793 129.46 88.9576C131.794 85.3534 132.969 81.1799 132.84 76.95V72.0218C132.84 69.5662 131.508 69.385 130.392 68.9233L119.675 65.2673V68.0819L128.365 71.1839C129.56 71.714 130.165 72.6032 130.165 73.5505V77.74C130.179 81.0562 129.221 84.3107 127.397 87.1382C125.624 90 122.961 92.27 119.776 93.6362L119.783 97.1006Z" fill="black"/>
</g>
<path opacity="0.5" d="M122.522 77.4356V76.6285C122.522 75.9274 122.229 75.255 121.707 74.7592C121.185 74.2634 120.478 73.9849 119.74 73.9849C119.002 73.9849 118.294 74.2634 117.772 74.7592C117.25 75.255 116.957 75.9274 116.957 76.6285V77.4493C116.588 77.5017 116.252 77.6779 116.009 77.9459C115.766 78.2139 115.632 78.5559 115.632 78.9097V83.6635C115.632 84.0553 115.796 84.4311 116.087 84.7082C116.379 84.9852 116.775 85.1409 117.187 85.1409H122.4C122.812 85.1409 123.208 84.9852 123.5 84.7082C123.791 84.4311 123.955 84.0553 123.955 83.6635V78.9097C123.955 78.5377 123.808 78.1794 123.543 77.9062C123.277 77.6329 122.913 77.4649 122.522 77.4356ZM120.496 82.4767H119.135L119.347 81.5431C119.198 81.4509 119.085 81.3156 119.023 81.1571C118.962 80.9987 118.956 80.8257 119.007 80.6639C119.057 80.5021 119.162 80.3601 119.304 80.2592C119.447 80.1582 119.619 80.1037 119.797 80.1037C119.975 80.1037 120.148 80.1582 120.29 80.2592C120.433 80.3601 120.537 80.5021 120.587 80.6639C120.638 80.8257 120.632 80.9987 120.571 81.1571C120.51 81.3156 120.396 81.4509 120.247 81.5431C120.341 81.8919 120.496 82.4767 120.496 82.4767ZM121.936 77.4288H117.558V76.6285C117.581 76.093 117.821 75.5866 118.228 75.2154C118.635 74.8441 119.177 74.6368 119.741 74.6368C120.306 74.6368 120.848 74.8441 121.255 75.2154C121.662 75.5866 121.902 76.093 121.925 76.6285L121.936 77.4288Z" fill="white"/>
<path d="M111.031 77.3775C110.938 77.11 110.883 76.8315 110.869 76.5498C110.789 75.8767 110.76 75.1989 110.783 74.5218C110.783 74.1251 110.822 73.7489 110.858 73.4069C110.876 73.095 110.958 72.7894 111.1 72.5074C111.201 72.3142 111.365 72.1571 111.568 72.0594C111.715 71.9944 111.805 71.9978 111.805 72.0081C111.547 72.1208 111.339 72.3171 111.218 72.5621C111.103 72.8356 111.04 73.1262 111.031 73.4205C111.002 73.7625 110.981 74.1353 110.97 74.5286C110.945 75.3118 110.97 76.0232 111.002 76.5396C111.035 76.8177 111.045 77.0979 111.031 77.3775Z" fill="white"/>
<path d="M111.186 79.9733C111.136 79.9733 111.089 79.7305 111.082 79.4261C111.074 79.1217 111.114 78.8755 111.164 78.8755C111.215 78.8755 111.262 79.1183 111.269 79.4227C111.276 79.727 111.24 79.9733 111.186 79.9733Z" fill="white"/>
<path d="M100.555 111.229L88.6068 139.3H67.0608V140.569H131.238L144.367 111.229H100.555Z" fill="#263238"/>
<path d="M118.822 127.802C118.39 129.214 117.13 130.107 116.006 129.799C114.883 129.491 114.325 128.089 114.757 126.677C115.189 125.264 116.453 124.372 117.576 124.679C118.699 124.987 119.257 126.389 118.822 127.802Z" fill="#FAFAFA"/>
</svg>
