<svg width="175" height="147" viewBox="0 0 175 147" fill="none" xmlns="http://www.w3.org/2000/svg">
<path d="M88.7425 141.614C134.879 141.614 172.281 125.53 172.281 105.69C172.281 85.8499 134.879 69.7662 88.7425 69.7662C42.6057 69.7662 5.2045 85.8499 5.2045 105.69C5.2045 125.53 42.6057 141.614 88.7425 141.614Z" fill="#FAFAFA"/>
<path d="M136.367 128.881C148.937 128.881 159.127 123.593 159.127 117.071C159.127 110.548 148.937 105.261 136.367 105.261C123.797 105.261 113.607 110.548 113.607 117.071C113.607 123.593 123.797 128.881 136.367 128.881Z" fill="#E0E0E0"/>
<path d="M82.3375 95.8793L67.753 88.8086C67.5109 88.7043 67.2428 88.65 66.9707 88.65C66.6987 88.65 66.4306 88.7043 66.1885 88.8086L17.85 112.255C17.7553 112.282 17.6729 112.333 17.6145 112.401C17.5561 112.469 17.5247 112.55 17.5247 112.634C17.5247 112.718 17.5561 112.8 17.6145 112.868C17.6729 112.936 17.7553 112.987 17.85 113.014L32.431 120.087C32.6739 120.189 32.9417 120.242 33.2132 120.242C33.4848 120.242 33.7526 120.189 33.9955 120.087L38.304 117.997L78.0255 98.784L82.341 96.6525C82.4386 96.6261 82.5236 96.5742 82.5837 96.5046C82.6439 96.4349 82.6762 96.3509 82.6758 96.2648C82.6754 96.1787 82.6424 96.0949 82.5816 96.0256C82.5208 95.9563 82.4353 95.9051 82.3375 95.8793Z" fill="#E0E0E0"/>
<path d="M147.9 112.678L145.646 111.673C145.646 111.673 145.866 102.43 148.148 95.2707C150.486 87.9413 157.29 79.8445 163.719 82.8786C170.149 85.9127 158.722 92.1484 155.285 98.1666C151.848 104.185 147.9 112.678 147.9 112.678Z" fill="#4054FF"/>
<path opacity="0.15" d="M147.9 112.678L145.646 111.673C145.646 111.673 145.866 102.43 148.148 95.2707C150.486 87.9413 157.29 79.8445 163.719 82.8786C170.149 85.9127 158.722 92.1484 155.285 98.1666C151.848 104.185 147.9 112.678 147.9 112.678Z" fill="black"/>
<path d="M147.602 110.485C147.572 110.484 147.543 110.479 147.515 110.468C147.488 110.458 147.464 110.443 147.443 110.425C147.423 110.407 147.407 110.385 147.396 110.362C147.386 110.338 147.381 110.313 147.381 110.288C147.864 95.9439 155.33 87.1857 161.577 84.0458C161.629 84.0196 161.692 84.0119 161.75 84.0243C161.809 84.0368 161.86 84.0682 161.891 84.1119C161.922 84.1556 161.931 84.2078 161.916 84.2572C161.901 84.3065 161.864 84.3489 161.812 84.375C155.662 87.465 148.316 96.1086 147.836 110.297C147.836 110.322 147.83 110.347 147.818 110.371C147.805 110.394 147.788 110.415 147.766 110.432C147.744 110.45 147.719 110.464 147.69 110.473C147.662 110.482 147.632 110.486 147.602 110.485Z" fill="white"/>
<path d="M148.918 113.119L146.906 112.252C146.906 112.252 147.154 107.713 151.295 101.798C154.97 96.5438 162.418 92.4278 165.547 93.8948C167.976 95.0297 168.536 97.5169 166.208 99.1721C163.881 100.827 153.136 104.299 148.918 113.119Z" fill="#4054FF"/>
<path d="M148.11 111.67C148.46 111.729 148.582 111.003 148.652 110.817C148.785 110.47 148.925 110.129 149.079 109.788C149.38 109.125 149.723 108.475 150.104 107.842C150.84 106.624 151.7 105.462 152.677 104.37C153.59 103.348 154.585 102.379 155.655 101.471C156.622 100.655 157.638 99.8813 158.7 99.1544C159.589 98.5429 160.513 97.9637 161.462 97.4198C162.162 97.02 162.862 96.6378 163.593 96.2791C163.975 96.0909 164.356 95.9057 164.752 95.7352L164.864 95.6881C164.927 95.6624 164.975 95.6168 164.997 95.5614C165.02 95.506 165.015 95.4453 164.985 95.3927C164.954 95.34 164.9 95.2998 164.834 95.2808C164.768 95.2617 164.696 95.2655 164.633 95.2912C164.388 95.3912 164.153 95.5029 163.933 95.6146C163.317 95.9086 162.715 96.2026 162.123 96.5319C161.246 97.0082 160.39 97.5119 159.554 98.0431C158.518 98.7016 157.523 99.4004 156.569 100.139C155.481 100.976 154.457 101.87 153.503 102.815C152.469 103.833 151.532 104.92 150.703 106.063C149.821 107.274 149.082 108.554 148.498 109.885C148.388 110.142 148.283 110.398 148.183 110.653C148.036 110.907 147.947 111.182 147.921 111.464C147.925 111.509 147.944 111.552 147.975 111.588C148.007 111.624 148.05 111.653 148.099 111.67H148.11Z" fill="white"/>
<path d="M33.894 104.617C33.894 104.617 33.95 98.8516 31.2515 94.08C28.553 89.3084 24.332 86.0803 20.0515 85.3423C15.771 84.6044 11.823 87.5738 16.093 90.3403C20.363 93.1069 28.2065 96.3085 30.7125 105.27L33.894 104.617Z" fill="#4054FF"/>
<path opacity="0.15" d="M33.894 104.617C33.894 104.617 33.95 98.8516 31.2515 94.08C28.553 89.3084 24.332 86.0803 20.0515 85.3423C15.771 84.6044 11.823 87.5738 16.093 90.3403C20.363 93.1069 28.2065 96.3085 30.7125 105.27L33.894 104.617Z" fill="black"/>
<path d="M32.109 103.62C32.0643 103.62 32.0214 103.606 31.9888 103.58C31.9563 103.555 31.9367 103.52 31.934 103.482C31.276 94.2534 22.225 88.2529 17.752 87.2298C17.7076 87.2195 17.6698 87.1948 17.6469 87.1613C17.6239 87.1277 17.6177 87.0879 17.6295 87.0504C17.6418 87.0124 17.6715 86.9799 17.7121 86.9601C17.7527 86.9403 17.801 86.9347 17.8465 86.9446C22.3965 87.9883 31.6155 94.0888 32.284 103.464C32.2851 103.503 32.2687 103.541 32.2382 103.57C32.2077 103.598 32.1653 103.617 32.1195 103.62H32.109Z" fill="white"/>
<path d="M34.447 112.531C35.3141 111.612 35.8959 110.527 36.1402 109.372C36.3846 108.218 36.2838 107.03 35.847 105.916C35.5929 105.244 35.1865 104.619 34.65 104.076C34.2195 103.65 33.6 103.429 33.096 103.073C32.011 102.318 30.751 101.515 30.359 100.316C30.044 99.3602 30.1105 98.4547 29.4805 97.558C29.1093 96.9965 28.5182 96.5602 27.8075 96.3232C26.88 96.0292 25.858 96.2232 24.878 96.3232C23.478 96.4555 22.428 96.0498 21.217 95.5088C19.8835 94.9208 18.326 94.4563 16.8805 94.8179C16.4104 94.9349 15.9748 95.1336 15.6019 95.401C15.2291 95.6685 14.9273 95.9988 14.7161 96.3705C14.5049 96.7422 14.389 97.147 14.376 97.5587C14.363 97.9704 14.4531 98.3799 14.6405 98.7605C14.9625 99.419 15.5575 99.9541 15.995 100.566C16.4325 101.177 16.6635 101.877 16.345 102.544C16.1 103.038 15.645 103.426 15.463 103.929C14.945 105.252 15.2355 106.428 16.8 107.11C18.4345 107.813 21 107.284 21.819 109.009C22.127 109.665 22.1375 110.391 22.3055 111.082C22.6503 112.472 23.6128 113.7 24.997 114.516C26.8765 115.613 29.428 115.345 31.3775 114.581C32.5752 114.106 33.6258 113.404 34.447 112.531Z" fill="#4054FF"/>
<path d="M19.712 104.182C19.7503 104.187 19.7896 104.182 19.824 104.167C21.2025 103.72 22.6819 103.534 24.156 103.623C25.6302 103.713 27.0624 104.075 28.35 104.685C28.3941 104.704 28.4458 104.709 28.4937 104.697C28.5416 104.684 28.5818 104.657 28.6055 104.62C28.6178 104.602 28.6257 104.582 28.6286 104.561C28.6316 104.541 28.6295 104.52 28.6227 104.5C28.6158 104.48 28.6043 104.461 28.5887 104.445C28.5731 104.429 28.5539 104.415 28.532 104.405C27.1943 103.774 25.7067 103.4 24.1762 103.309C22.6457 103.219 21.1103 103.415 19.6805 103.882C19.6469 103.897 19.6197 103.921 19.6025 103.95C19.5853 103.979 19.5789 104.011 19.5842 104.043C19.5896 104.075 19.6063 104.105 19.6322 104.129C19.6582 104.152 19.6921 104.169 19.7295 104.176L19.712 104.182Z" fill="white"/>
<path d="M31.934 112.581C31.8882 112.582 31.8438 112.568 31.8104 112.542C31.777 112.515 31.7573 112.479 31.7555 112.44C31.43 105.796 23.4885 98.7693 18.165 96.8583C18.1435 96.8509 18.124 96.84 18.1075 96.8262C18.0911 96.8124 18.0781 96.796 18.0693 96.7779C18.0605 96.7599 18.0561 96.7405 18.0563 96.721C18.0565 96.7015 18.0613 96.6822 18.0705 96.6643C18.0897 96.6281 18.1251 96.5998 18.169 96.5855C18.2129 96.5712 18.2618 96.572 18.305 96.5878C23.7125 98.5341 31.7765 105.678 32.109 112.434C32.1099 112.454 32.1062 112.474 32.0981 112.492C32.09 112.511 32.0776 112.528 32.0617 112.542C32.0458 112.557 32.0266 112.568 32.0053 112.577C31.984 112.585 31.9609 112.589 31.9375 112.59L31.934 112.581Z" fill="white"/>
<path d="M75.768 17.64L36.155 36.8441C35.7627 37.0592 35.4367 37.3493 35.2037 37.6907C34.9707 38.0321 34.8373 38.415 34.8145 38.808V117.168C34.8145 117.885 35.4165 118.176 36.155 117.815L75.768 98.6047C76.1577 98.39 76.4819 98.1016 76.7148 97.7625C76.9476 97.4235 77.0824 97.0433 77.1085 96.6525V18.2809C77.1085 17.5636 76.5065 17.2696 75.768 17.64ZM75.18 90.846C75.18 91.4604 74.6655 91.8515 74.032 92.1572L37.758 109.756C37.128 110.05 36.61 109.815 36.61 109.197V44.0324C36.6102 43.6954 36.716 43.3645 36.917 43.0728C37.1179 42.7812 37.4068 42.5392 37.7545 42.3713L74.0285 24.7695C74.1449 24.7127 74.2771 24.6827 74.4117 24.6824C74.5463 24.6821 74.6786 24.7116 74.7953 24.7679C74.9121 24.8243 75.0091 24.9054 75.0766 25.0032C75.1441 25.101 75.1798 25.2121 75.18 25.3252V90.846Z" fill="#455A64"/>
<path d="M75.18 90.846C75.18 91.4604 74.6655 91.8515 74.032 92.1572L37.758 109.756C37.128 110.05 36.61 109.815 36.61 109.197V44.0324C36.6101 43.6954 36.716 43.3645 36.9169 43.0728C37.1179 42.7812 37.4068 42.5392 37.7545 42.3713L74.0285 24.7695C74.1449 24.7127 74.277 24.6826 74.4117 24.6824C74.5463 24.6821 74.6786 24.7116 74.7953 24.7679C74.912 24.8243 75.009 24.9054 75.0766 25.0032C75.1441 25.101 75.1798 25.2121 75.18 25.3251V90.846Z" fill="#263238"/>
<path d="M37.758 109.756L74.032 92.1631C74.2867 92.0475 74.522 91.9041 74.732 91.7368L36.61 73.7028V109.197C36.61 109.815 37.128 110.062 37.758 109.756Z" fill="#37474F"/>
<path d="M72.2435 89.7023V25.6368L37.7545 42.3713C37.4068 42.5392 37.1179 42.7812 36.9169 43.0728C36.716 43.3645 36.6101 43.6954 36.61 44.0324V107.739L71.0955 91.0136C71.729 90.7078 72.2435 90.3168 72.2435 89.7023Z" fill="#4054FF"/>
<path d="M35.987 117.894C35.587 118.036 35.1551 118.103 34.7213 118.091C34.2874 118.078 33.8618 117.987 33.474 117.823L31.941 117.08C31.5498 116.867 31.2241 116.579 30.9905 116.241C30.7569 115.902 30.6221 115.521 30.597 115.13V36.75C30.6058 36.4595 30.6844 36.1735 30.828 35.9092C30.877 35.818 30.9295 35.7298 30.989 35.6387L35.189 37.6967C35.1007 37.8292 35.0235 37.9667 34.958 38.1083C34.856 38.3309 34.8004 38.5666 34.7935 38.8051V117.168C34.8145 117.829 35.3255 118.129 35.987 117.894Z" fill="#263238"/>
<path d="M57.1445 102.106C58.002 102.106 58.093 102.915 58.093 103.262C58.0418 103.957 57.7992 104.632 57.3844 105.235C56.9696 105.838 56.3939 106.352 55.7025 106.737C55.4251 106.885 55.1068 106.97 54.7785 106.984C53.921 106.984 53.83 106.175 53.83 105.828C53.8817 105.133 54.124 104.458 54.5381 103.854C54.9522 103.251 55.5268 102.736 56.217 102.35C56.4968 102.205 56.8158 102.121 57.1445 102.106Z" fill="#4054FF"/>
<path d="M55.9335 28.4915C56.2835 28.3151 56.588 28.4562 56.588 28.809C56.5753 28.9998 56.5094 29.1853 56.3958 29.3508C56.2821 29.5162 56.1237 29.657 55.9335 29.7616C55.5835 29.9351 55.2755 29.7939 55.2755 29.4441C55.2875 29.2529 55.3534 29.0668 55.4678 28.9012C55.5822 28.7356 55.7418 28.5952 55.9335 28.4915Z" fill="#263238"/>
<path d="M51.7055 33.1338C52.0275 32.978 52.2865 33.1044 52.2865 33.4278C52.2758 33.597 52.2176 33.7617 52.1166 33.9083C52.0156 34.055 51.8748 34.1795 51.7055 34.2716C51.3835 34.4274 51.1245 34.301 51.1245 33.9776C51.1357 33.8085 51.1942 33.644 51.2951 33.4975C51.396 33.3509 51.5366 33.2263 51.7055 33.1338Z" fill="#263238"/>
<path d="M53.648 32.1695L60.1545 29.0149C60.5045 28.8414 60.7985 28.9649 60.7985 29.2883C60.7814 29.4699 60.7144 29.6457 60.6026 29.8018C60.4909 29.958 60.3375 30.0901 60.1545 30.1879L53.648 33.3426C53.298 33.516 53.004 33.3925 53.004 33.0691C53.0211 32.8875 53.0881 32.7117 53.1999 32.5556C53.3116 32.3995 53.465 32.2673 53.648 32.1695Z" fill="#263238"/>
<path d="M77.0945 18.1016C76.9965 17.5136 76.44 17.3048 75.7715 17.6312L36.1515 36.8441C35.7551 37.0508 35.4294 37.3406 35.2065 37.6849L31.0065 35.6269C31.2329 35.2853 31.5594 34.9979 31.955 34.792L71.5505 15.582C71.966 15.4051 72.4252 15.3129 72.891 15.3129C73.3568 15.3129 73.8161 15.4051 74.2315 15.582L75.7715 16.3229C76.1304 16.5229 76.4341 16.7851 76.6623 17.0919C76.8905 17.3987 77.0379 17.743 77.0945 18.1016Z" fill="#37474F"/>
<path d="M66.7031 20.479C66.4975 20.5713 66.2688 20.6212 66.0358 20.6248C65.8028 20.6284 65.5721 20.5855 65.3626 20.4996C65.2925 20.4745 65.2317 20.4339 65.1867 20.3821C65.1417 20.3304 65.1142 20.2694 65.1071 20.2056C65.1071 20.1233 65.1071 19.8175 65.1071 19.7323C65.1184 19.6589 65.152 19.5892 65.2047 19.53C65.2574 19.4707 65.3275 19.424 65.4081 19.3942L69.6536 17.3362C69.8601 17.2446 70.0893 17.195 70.3227 17.1914C70.5561 17.1879 70.7873 17.2304 70.9976 17.3156C71.0665 17.3419 71.126 17.3829 71.1702 17.4344C71.2144 17.486 71.2418 17.5464 71.2496 17.6096C71.2496 17.6948 71.2496 18.0124 71.2496 18.0947C71.2386 18.1685 71.2051 18.2386 71.1524 18.2984C71.0997 18.3581 71.0295 18.4054 70.9486 18.4357L66.7031 20.479Z" fill="#4054FF"/>
<path opacity="0.25" d="M66.7031 20.479C66.4975 20.5713 66.2688 20.6212 66.0358 20.6248C65.8028 20.6284 65.5721 20.5855 65.3626 20.4996C65.2925 20.4745 65.2317 20.4339 65.1867 20.3821C65.1417 20.3304 65.1142 20.2694 65.1071 20.2056C65.1071 20.1233 65.1071 19.8175 65.1071 19.7323C65.1184 19.6589 65.152 19.5892 65.2047 19.53C65.2574 19.4707 65.3275 19.424 65.4081 19.3942L69.6536 17.3362C69.8601 17.2446 70.0893 17.195 70.3227 17.1914C70.5561 17.1879 70.7873 17.2304 70.9976 17.3156C71.0665 17.3419 71.126 17.3829 71.1702 17.4344C71.2144 17.486 71.2418 17.5464 71.2496 17.6096C71.2496 17.6948 71.2496 18.0124 71.2496 18.0947C71.2386 18.1685 71.2051 18.2386 71.1524 18.2984C71.0997 18.3581 71.0295 18.4054 70.9486 18.4357L66.7031 20.479Z" fill="black"/>
<path d="M66.703 20.0125L70.9485 17.9545C71.3335 17.7664 71.351 17.4753 70.994 17.3019C70.7837 17.2166 70.5525 17.1741 70.3191 17.1777C70.0856 17.1813 69.8565 17.2308 69.65 17.3224L65.4045 19.3804C65.023 19.5657 65.002 19.8567 65.3625 20.0302C65.5719 20.1158 65.8024 20.1588 66.0352 20.1558C66.2681 20.1527 66.4969 20.1036 66.703 20.0125Z" fill="#4054FF"/>
<path opacity="0.3" d="M66.703 20.0125L70.9485 17.9545C71.3335 17.7664 71.351 17.4753 70.994 17.3019C70.7837 17.2166 70.5525 17.1741 70.3191 17.1777C70.0856 17.1813 69.8565 17.2308 69.65 17.3224L65.4045 19.3804C65.023 19.5657 65.002 19.8567 65.3625 20.0302C65.5719 20.1158 65.8024 20.1588 66.0352 20.1558C66.2681 20.1527 66.4969 20.1036 66.703 20.0125Z" fill="black"/>
<path d="M33.25 48.56C33.2417 48.3643 33.1784 48.1731 33.0652 48.0019C32.9521 47.8307 32.7923 47.6845 32.599 47.5751C32.5357 47.5358 32.4606 47.512 32.3822 47.5063C32.3037 47.5006 32.2249 47.5132 32.1545 47.5428C32.074 47.5839 31.752 47.7339 31.668 47.778C31.5977 47.8227 31.5424 47.8819 31.5074 47.9499C31.4725 48.0179 31.4591 48.0924 31.4685 48.166V56.9037C31.477 57.099 31.54 57.2899 31.6524 57.461C31.7649 57.6321 31.9237 57.7786 32.116 57.8886C32.1793 57.9244 32.2524 57.9458 32.3284 57.951C32.4044 57.9561 32.4807 57.9448 32.55 57.918C32.641 57.8798 32.9665 57.721 33.054 57.6769C33.1243 57.6322 33.1796 57.5729 33.2146 57.5049C33.2495 57.4369 33.2629 57.3625 33.2535 57.2888L33.25 48.56Z" fill="#4054FF"/>
<path opacity="0.3" d="M33.25 48.56C33.2417 48.3643 33.1784 48.1731 33.0652 48.0019C32.9521 47.8307 32.7923 47.6845 32.599 47.5751C32.5357 47.5358 32.4606 47.512 32.3822 47.5063C32.3037 47.5006 32.2249 47.5132 32.1545 47.5428C32.074 47.5839 31.752 47.7339 31.668 47.778C31.5977 47.8227 31.5424 47.8819 31.5074 47.9499C31.4725 48.0179 31.4591 48.0924 31.4685 48.166V56.9037C31.477 57.099 31.54 57.2899 31.6524 57.461C31.7649 57.6321 31.9237 57.7786 32.116 57.8886C32.1793 57.9244 32.2524 57.9458 32.3284 57.951C32.4044 57.9561 32.4807 57.9448 32.55 57.918C32.641 57.8798 32.9665 57.721 33.054 57.6769C33.1243 57.6322 33.1796 57.5729 33.2146 57.5049C33.2495 57.4369 33.2629 57.3625 33.2535 57.2888L33.25 48.56Z" fill="black"/>
<path d="M32.7672 48.804V57.5417C32.7672 57.9121 32.4767 58.0709 32.1162 57.8974C31.9239 57.7874 31.7651 57.6409 31.6526 57.4698C31.5401 57.2988 31.4771 57.1079 31.4687 56.9125V48.166C31.4687 47.7927 31.7592 47.6339 32.1162 47.8074C32.311 47.9182 32.4716 48.0664 32.5848 48.2397C32.698 48.413 32.7605 48.6064 32.7672 48.804Z" fill="#4054FF"/>
<path opacity="0.4" d="M32.7672 48.804V57.5417C32.7672 57.9121 32.4767 58.0709 32.1162 57.8974C31.9239 57.7874 31.7651 57.6409 31.6526 57.4698C31.5401 57.2988 31.4771 57.1079 31.4687 56.9125V48.166C31.4687 47.7927 31.7592 47.6339 32.1162 47.8074C32.311 47.9182 32.4716 48.0664 32.5848 48.2397C32.698 48.413 32.7605 48.6064 32.7672 48.804Z" fill="black"/>
<path d="M33.25 60.27C33.2417 60.0743 33.1784 59.8831 33.0652 59.7119C32.9521 59.5407 32.7923 59.3945 32.599 59.2851C32.5357 59.2458 32.4606 59.222 32.3822 59.2163C32.3037 59.2106 32.2249 59.2232 32.1545 59.2528C32.074 59.2939 31.752 59.4439 31.668 59.488C31.5977 59.5327 31.5424 59.592 31.5074 59.66C31.4725 59.728 31.4591 59.8024 31.4685 59.8761V63.9921C31.4775 64.1869 31.5408 64.3772 31.6532 64.5477C31.7657 64.7183 31.9242 64.8643 32.116 64.974C32.1772 65.012 32.2494 65.0356 32.3251 65.0423C32.4007 65.0491 32.4772 65.0387 32.5465 65.0122C32.6375 64.974 32.963 64.8153 33.0505 64.7712C33.1205 64.7269 33.1757 64.6681 33.2106 64.6007C33.2456 64.5332 33.2591 64.4592 33.25 64.386V60.27Z" fill="#4054FF"/>
<path opacity="0.3" d="M33.25 60.27C33.2417 60.0743 33.1784 59.8831 33.0652 59.7119C32.9521 59.5407 32.7923 59.3945 32.599 59.2851C32.5357 59.2458 32.4606 59.222 32.3822 59.2163C32.3037 59.2106 32.2249 59.2232 32.1545 59.2528C32.074 59.2939 31.752 59.4439 31.668 59.488C31.5977 59.5327 31.5424 59.592 31.5074 59.66C31.4725 59.728 31.4591 59.8024 31.4685 59.8761V63.9921C31.4775 64.1869 31.5408 64.3772 31.6532 64.5477C31.7657 64.7183 31.9242 64.8643 32.116 64.974C32.1772 65.012 32.2494 65.0356 32.3251 65.0423C32.4007 65.0491 32.4772 65.0387 32.5465 65.0122C32.6375 64.974 32.963 64.8153 33.0505 64.7712C33.1205 64.7269 33.1757 64.6681 33.2106 64.6007C33.2456 64.5332 33.2591 64.4592 33.25 64.386V60.27Z" fill="black"/>
<path d="M32.7672 60.4905V64.6065C32.7672 64.977 32.4767 65.1387 32.1162 64.9623C31.9239 64.8522 31.7651 64.7058 31.6526 64.5347C31.5401 64.3636 31.4771 64.1727 31.4687 63.9774V59.8614C31.4687 59.4909 31.7592 59.3292 32.1162 59.5027C32.3092 59.613 32.4686 59.7599 32.5817 59.9315C32.6948 60.1031 32.7583 60.2946 32.7672 60.4905Z" fill="#4054FF"/>
<path opacity="0.4" d="M32.7672 60.4905V64.6065C32.7672 64.977 32.4767 65.1387 32.1162 64.9623C31.9239 64.8522 31.7651 64.7058 31.6526 64.5347C31.5401 64.3636 31.4771 64.1727 31.4687 63.9774V59.8614C31.4687 59.4909 31.7592 59.3292 32.1162 59.5027C32.3092 59.613 32.4686 59.7599 32.5817 59.9315C32.6948 60.1031 32.7583 60.2946 32.7672 60.4905Z" fill="black"/>
<path d="M44.849 52.9758C44.8838 53.1186 44.9306 53.2591 44.989 53.3963C45.2165 53.9137 45.626 54.4017 45.591 54.9545C45.5525 55.5777 44.968 56.0599 44.52 56.5568C43.9378 57.2137 43.5497 57.9775 43.3879 58.7851C43.226 59.5927 43.2949 60.4211 43.589 61.202C44.0193 62.1531 44.6162 63.0449 45.36 63.848L47.0505 65.8619C47.5617 66.4257 48.214 66.8884 48.9615 67.2172C50.4141 67.9069 52.0349 68.3091 53.7005 68.3932C56.4383 68.5484 59.1616 67.9487 61.4565 66.6851C63.889 65.3327 62.818 61.8635 65.3065 60.5963C68.3165 59.0675 69.7515 53.7579 66.0625 51.5411C66.0625 51.5411 66.6575 48.2895 65.5655 47.4604C64.4773 46.6955 63.1306 46.2368 61.7155 46.1492C59.7625 45.9786 57.806 46.2991 55.8565 46.2932C53.8496 46.2878 51.8445 46.3929 49.854 46.6078C49.154 46.6872 48.167 46.9018 47.789 47.4751C47.6823 47.7 47.6532 47.9455 47.705 48.1836C47.6996 48.5614 47.5388 48.926 47.25 49.2156C46.816 49.6566 46.2 49.9535 45.738 50.3681C45.3568 50.7137 45.0777 51.1299 44.9232 51.5829C44.7688 52.0359 44.7434 52.5131 44.849 52.9758Z" fill="#263238"/>
<path d="M64.274 57.668C67.424 57.7415 67.8335 58.306 70.6545 60.6521C72.9995 62.6013 80.7695 68.6254 80.7695 68.6254L90.0795 70.7069L87.8815 75.4785C87.8815 75.4785 85.7815 75.405 81.5815 75.4021C79.002 75.4021 78.106 74.917 75.509 73.4617C74.186 72.7179 66.7205 68.6136 66.7205 68.6136L64.274 57.668Z" fill="#E6E6E6"/>
<path d="M100.38 61.0579L83.3175 66.1088L78.6135 83.1608L78.995 83.5019L95.2175 78.4186L100.758 61.399L100.38 61.0579Z" fill="#4054FF"/>
<path opacity="0.35" d="M83.6955 66.4499L78.995 83.5018L78.6135 83.1608L83.3175 66.1088L83.6955 66.4499Z" fill="black"/>
<path opacity="0.25" d="M100.758 61.3989L83.6955 66.4498L78.995 83.5018L95.2175 78.4186L100.758 61.3989Z" fill="black"/>
<g opacity="0.2">
<path opacity="0.2" d="M92.68 74.9494C92.8375 75.2845 94.1465 76.0225 96.04 75.8902L96.3585 74.9082L92.68 74.9494Z" fill="black"/>
</g>
<g opacity="0.1">
<path opacity="0.1" d="M95.62 64.8917L95.76 64.3184C95.837 64.0038 94.836 64.1684 93.5235 64.6888L90.4435 65.4708C89.131 65.9912 87.892 66.3793 87.8115 66.6939L87.6715 67.2643L95.62 64.8917Z" fill="black"/>
</g>
<path d="M96.635 62.3044C96.684 62.1074 96.285 62.1486 95.7495 62.2691L94.766 62.5484C94.766 62.5484 95.1685 61.7193 92.841 62.2544C90.2825 62.8424 90.2265 63.9096 90.2265 63.9096C89.8262 64.0554 89.416 64.1811 88.998 64.286C88.1475 64.5182 88.0565 64.6564 87.9865 64.8563L87.8605 65.2179L96.558 62.6484C96.558 62.6484 96.6 62.5014 96.635 62.3044Z" fill="#37474F"/>
<path d="M95.718 63.4011C94.913 63.6951 94.5805 63.8568 94.458 64.3449C94.3215 64.9005 94.2935 65.1328 94.2935 65.1328L89.7645 66.6322C89.7645 66.6322 90.0095 65.8119 90.069 65.5385C90.1285 65.2651 89.53 65.2651 88.746 65.5679L88.9315 64.8858L95.977 62.6896L95.718 63.4011Z" fill="#37474F"/>
<path d="M95.851 64.9004C95.851 64.9004 95.9175 64.6446 95.9945 64.3271C96.0715 64.0096 95.0705 64.1772 93.758 64.6976L90.678 65.4796C89.3655 66 88.123 66.3881 88.046 66.7026L87.906 67.2906L95.851 64.9004Z" fill="#37474F"/>
<path d="M98.861 67.2319C98.861 67.2319 98.2555 69.1017 98.0945 69.5839C97.9335 70.0661 95.1405 71.1392 93.744 71.2862C91.07 71.5655 90.7655 72.0506 91.406 73.6382C92.001 75.1082 93.7405 75.6668 96.1555 75.4286C97.2895 75.3169 98.854 74.4731 99.47 73.0002C100.254 71.1186 99.82 69.1106 100.146 68.0022C100.471 66.8938 99.54 66.5763 98.861 67.2319Z" fill="#FFA8A7"/>
<path d="M72.422 92.9451L70.6125 93.8271L69.853 94.1946L59.899 99.0192L58.541 99.666L56.2485 100.777L56.9485 94.7767L58.2855 83.1579V83.0373L58.3485 82.517L60.0985 67.326L60.865 60.6786L61.1345 58.2943L61.2255 57.524H61.2745C62.0851 57.3346 62.9419 57.3346 63.7525 57.524C63.9332 57.57 64.1089 57.629 64.2775 57.7004C65.3275 58.1385 66.0275 58.9911 66.6085 59.8878C66.7513 60.1061 66.8798 60.3309 66.9935 60.561C67.425 61.4324 67.7578 62.3361 67.9875 63.2599C68.446 64.9651 69.0375 66.7086 69.272 69.4575C69.3089 70.165 69.2644 70.8739 69.139 71.5743C68.9813 73.4274 68.9544 75.2868 69.0585 77.1426C69.3525 81.3468 70.6125 83.252 72.422 92.9451Z" fill="#E0E0E0"/>
<path d="M69.853 94.1888L59.899 99.0133L58.541 99.666L56.2485 100.777L54.67 101.542L45.087 106.187C45.1885 102.953 45.234 99.4455 45.143 96.1321C45.115 95.0237 45.1045 93.8918 45.1605 92.7335C45.3425 88.7115 46.2525 84.3986 49.5145 79.8592L49.665 79.6299C50.05 81.5497 53.55 82.7963 56.7 83.0903L57.05 83.1167C57.4455 83.1491 57.855 83.1638 58.2785 83.1638H58.5445C61.208 83.1432 64.3615 82.6169 67.9945 81.585C68.3445 83.2902 68.6945 85.5275 69.069 88.1441C69.237 89.3201 69.4073 90.5735 69.58 91.9044C69.65 92.6482 69.7585 93.4097 69.853 94.1888Z" fill="#FFA8A7"/>
<path d="M70.6125 93.8213L69.853 94.1888L59.899 99.0133L58.541 99.666L56.2485 100.777L54.67 101.542L45.087 106.187L44.037 106.696C44.0895 103.215 44.1245 99.8042 44.121 97.6638C44.121 95.6735 44.1735 93.9036 44.303 92.3336C44.5585 89.2349 45.0905 86.9034 45.9795 85.1394C47.0226 83.2088 48.2566 81.355 49.6685 79.5975C49.6685 79.5975 50.5435 82.0789 57.0885 82.4699H57.1305C57.5155 82.4934 57.9215 82.5081 58.3485 82.514H58.8455C66.9935 82.514 67.893 80.7882 67.893 80.7882C68.6889 83.3259 69.3187 85.8984 69.7795 88.494C69.9522 89.4113 70.119 90.3913 70.28 91.434C70.399 92.1984 70.511 92.9922 70.6125 93.8213Z" fill="#4054FF"/>
<path opacity="0.4" d="M70.6125 93.8213L69.853 94.1888L59.899 99.0133L58.541 99.666L56.2485 100.777L54.67 101.542L45.087 106.187L44.037 106.696C44.0895 103.215 44.1245 99.8042 44.121 97.6638C44.121 95.6735 44.1735 93.9036 44.303 92.3336C44.5585 89.2349 45.0905 86.9034 45.9795 85.1394C47.0226 83.2088 48.2566 81.355 49.6685 79.5975C49.6685 79.5975 50.5435 82.0789 57.0885 82.4699H57.1305C57.5155 82.4934 57.9215 82.5081 58.3485 82.514H58.8455C66.9935 82.514 67.893 80.7882 67.893 80.7882C68.6889 83.3259 69.3187 85.8984 69.7795 88.494C69.9522 89.4113 70.119 90.3913 70.28 91.434C70.399 92.1984 70.511 92.9922 70.6125 93.8213Z" fill="black"/>
<path opacity="0.2" d="M65.94 89.9199C65.94 89.9199 65.03 92.3483 61.201 93.7095L61.019 94.4533L59.899 99.0133L58.541 99.666L59.353 94.6356L59.703 92.4483C62.0693 92.2421 64.2755 91.3477 65.94 89.9199Z" fill="black"/>
<path d="M54.2955 58.2266L50.4455 58.5677C47.8975 59.091 46.746 60.0377 46.4835 61.9281C46.361 62.8101 45.7275 65.1621 46.6165 68.1021C47.4215 70.7716 49.5705 77.3043 49.5705 77.3043C49.5705 77.3043 44.625 82.7256 43.729 92.0219C52.78 96.9846 66.6645 94.3181 70.42 91.3193C70.105 88.4792 67.9455 80.6853 67.676 78.1539C67.676 78.1539 67.8755 74.1996 68.25 72.4856C71.113 69.8602 70.749 67.3494 69.4645 65.3238C67.0915 61.5841 63.5145 58.2972 62.356 58.3001L54.2955 58.2266Z" fill="#4054FF"/>
<path opacity="0.7" d="M54.2955 58.2266L50.4455 58.5677C47.8975 59.091 46.746 60.0377 46.4835 61.9281C46.361 62.8101 45.7275 65.1621 46.6165 68.1021C47.4215 70.7716 49.5705 77.3043 49.5705 77.3043C49.5705 77.3043 44.625 82.7256 43.729 92.0219C52.78 96.9846 66.6645 94.3181 70.42 91.3193C70.105 88.4792 67.9455 80.6853 67.676 78.1539C67.676 78.1539 67.8755 74.1996 68.25 72.4856C71.113 69.8602 70.749 67.3494 69.4645 65.3238C67.0915 61.5841 63.5145 58.2972 62.356 58.3001L54.2955 58.2266Z" fill="white"/>
<path d="M57.631 78.4686C57.631 78.5274 57.631 78.5803 57.631 78.6244V78.7008C57.6333 78.7253 57.6333 78.7499 57.631 78.7743C57.498 79.9503 57.3405 81.1998 57.1725 82.4729C57.1725 82.4729 57.1725 82.4729 57.1725 82.4905C57.148 82.6963 57.12 82.9021 57.092 83.1108C56.5775 86.9475 55.965 91.0488 55.4925 94.7826C55.377 95.6882 55.272 96.5702 55.1775 97.4286C55.0305 98.7134 54.873 100.122 54.712 101.545L45.129 106.19L44.079 106.698L41.4015 107.995C41.9405 103.541 43.197 93.2215 43.897 88.5645C43.9775 88.0383 44.0825 87.512 44.2015 86.9887L44.296 86.6065L44.338 86.4507C44.3835 86.2743 44.429 86.1038 44.478 85.9303C44.527 85.7568 44.5725 85.6098 44.618 85.454C44.7265 85.0983 44.842 84.7484 44.968 84.4074C45.0275 84.2427 45.0835 84.0781 45.1465 83.9164C45.2095 83.7547 45.262 83.593 45.325 83.4342C45.451 83.1167 45.5735 82.8051 45.703 82.5023C45.7015 82.4964 45.7015 82.4904 45.703 82.4846C45.7625 82.3406 45.8255 82.1906 45.8885 82.0554C45.9725 81.8555 46.06 81.6614 46.1475 81.4674L46.2525 81.2351C46.305 81.1293 46.3505 81.0264 46.3995 80.9235C46.571 80.5619 46.7495 80.2179 46.907 79.8974C46.942 79.8269 46.9805 79.7563 47.0155 79.6887C47.0505 79.6211 47.1065 79.5211 47.1485 79.4388C47.2535 79.233 47.3585 79.0419 47.46 78.8508C47.502 78.7685 47.5475 78.6891 47.5895 78.6126C47.6315 78.5362 47.691 78.4362 47.7365 78.3539L47.803 78.2363L47.873 78.1217C47.8776 78.1066 47.8859 78.0926 47.8975 78.0805C47.9071 78.0591 47.9188 78.0385 47.9325 78.0188C47.941 78.0056 47.948 77.9918 47.9535 77.9776C47.9826 77.936 48.0084 77.8928 48.0305 77.8482L48.265 77.466C48.265 77.4455 48.2895 77.4308 48.2965 77.4131L48.3875 77.272L45.4755 67.129L44.0265 62.0898V62.0075C44.093 61.5606 44.5375 59.4527 47.0995 58.8117C48.5459 58.4981 50.0275 58.3129 51.52 58.259C52.094 58.2296 52.612 58.2179 53.0355 58.209H53.704H54.1065C54.1074 58.2159 54.1074 58.2228 54.1065 58.2296C54.1275 58.2737 54.187 58.406 54.278 58.6118C54.2879 58.6463 54.3019 58.6798 54.32 58.7118C54.3203 58.7167 54.3203 58.7216 54.32 58.7265C54.95 60.1788 56.7175 64.4066 57.596 68.0786C57.75 68.7137 57.876 69.334 57.967 69.922C58.2295 71.7595 58.037 74.8347 57.631 78.4686Z" fill="#FAFAFA"/>
<path d="M48.482 72.4151C48.482 72.4151 48.832 70.9657 49.3465 67.8346C49.945 64.2243 49.7315 62.4397 49.084 61.299L45.4335 67.1467L48.3455 77.2897C48.3455 77.2897 45.353 81.8937 44.1455 86.9917C47.0085 80.1973 50.141 78.1717 50.141 78.1717L48.482 72.4151Z" fill="#E6E6E6"/>
<path d="M61.271 55.9628C62.405 55.9628 62.538 56.1216 63.5145 57.2211C64.0955 57.8768 67.774 62.9777 67.774 62.9777C67.774 62.9777 64.848 59.7437 62.6395 58.7617C62.2143 58.5524 61.7542 58.3978 61.2745 58.3031L61.271 55.9628Z" fill="#EBEBEB"/>
<path d="M52.885 66.8027C52.885 66.5087 52.85 65.8737 52.7905 65.074C52.5 61.152 52.36 57.624 53.935 57.33L54.0715 57.871C52.9235 58.0797 53.3015 63.1277 53.445 65.0269C53.508 65.8443 53.557 66.4969 53.5395 66.8145L52.885 66.8027Z" fill="#4054FF"/>
<path d="M47.635 41.1247L50.085 42.8093C50.2182 42.6813 50.3189 42.5317 50.3809 42.3698C50.4428 42.208 50.4648 42.0371 50.4455 41.8679C50.4262 41.6986 50.3659 41.5344 50.2684 41.3854C50.1709 41.2364 50.0382 41.1056 49.8785 41.0012C49.5564 40.7774 49.1446 40.6656 48.7276 40.6886C48.3105 40.7115 47.9196 40.8675 47.635 41.1247Z" fill="#263238"/>
<path d="M54.033 56.2128C54.033 54.9221 50.4525 52.9788 48.6045 50.2651C46.7565 47.5515 47.6805 43.0886 50.2145 42.4036C50.2355 42.4036 50.3055 41.8303 50.316 41.7891C50.4561 41.2713 50.6923 40.7753 51.016 40.3191C52.0485 38.8256 54.236 37.6731 56.266 37.432C64.2915 36.4501 67.9805 39.0696 69.454 41.9508C69.9316 42.92 70.1445 43.9669 70.077 45.0143C70.0357 45.7836 69.6959 46.5204 69.1095 47.1123C68.523 47.7042 67.7221 48.1186 66.829 48.2924L54.033 56.2128Z" fill="#263238"/>
<path d="M65.1665 40.9865C66.738 41.5745 68.2325 43.5825 68.208 49.2332C68.187 54.0254 66.437 55.2367 65.555 55.5924C64.673 55.9482 62.9475 55.7659 61.271 55.5513V58.3031C61.271 58.3031 62.5275 59.3409 62.0865 59.9936C61.6455 60.6463 60.018 61.199 57.4875 60.5316C54.621 59.7761 53.9665 58.1796 53.9665 58.1796L53.9 52.1409C53.9 52.1409 52.9375 52.9905 51.24 51.744C49.84 50.712 49.336 48.9451 50.3895 47.9749C51.443 47.0047 52.794 46.9283 54.012 48.0131L54.887 47.625C56.448 47.4722 58.737 47.2517 60.424 46.5372C64.75 44.688 65.198 42.6829 65.1665 40.9865Z" fill="#FFA8A7"/>
<path d="M54.0365 47.2311L54.0575 49.8771C54.2598 49.8816 54.461 49.8513 54.6489 49.7881C54.8367 49.7248 55.0072 49.63 55.1498 49.5094C55.2924 49.3888 55.4041 49.2449 55.4781 49.0867C55.5521 48.9285 55.5868 48.7593 55.58 48.5894C55.5762 48.2406 55.4146 47.9062 55.1279 47.6539C54.8412 47.4017 54.451 47.2505 54.0365 47.2311Z" fill="#263238"/>
<path d="M65.3135 47.6074C65.315 47.7317 65.3599 47.8529 65.4426 47.956C65.5253 48.0591 65.6423 48.1395 65.7789 48.1873C65.9155 48.2351 66.0659 48.2482 66.2113 48.2249C66.3566 48.2015 66.4907 48.1429 66.5967 48.0562C66.7028 47.9695 66.7763 47.8585 66.8079 47.7371C66.8396 47.6156 66.8282 47.489 66.775 47.373C66.7219 47.257 66.6293 47.1566 66.5089 47.0843C66.3885 47.0121 66.2454 46.9711 66.0975 46.9665C65.9957 46.9645 65.8944 46.9796 65.7996 47.0109C65.7048 47.0422 65.6184 47.0891 65.5454 47.1488C65.4724 47.2084 65.4143 47.2797 65.3745 47.3585C65.3347 47.4372 65.3139 47.5218 65.3135 47.6074Z" fill="black"/>
<path d="M59.276 47.8896C59.2699 47.9808 59.2852 48.072 59.3211 48.1582C59.3571 48.2444 59.4129 48.3237 59.4854 48.3917C59.5579 48.4597 59.6457 48.515 59.7437 48.5545C59.8417 48.594 59.948 48.6168 60.0565 48.6217C60.1666 48.6225 60.2759 48.6049 60.378 48.5702C60.48 48.5354 60.5729 48.484 60.6513 48.419C60.7297 48.354 60.792 48.2766 60.8347 48.1913C60.8773 48.106 60.8995 48.0145 60.9 47.922C60.9034 47.8324 60.8859 47.7431 60.8482 47.6593C60.8106 47.5754 60.7537 47.4986 60.6807 47.4332C60.6078 47.3678 60.5202 47.3151 60.423 47.2782C60.3258 47.2412 60.2209 47.2207 60.1143 47.2178C60.0076 47.2149 59.9014 47.2297 59.8015 47.2613C59.7017 47.2929 59.6102 47.3407 59.5324 47.402C59.4546 47.4633 59.3919 47.5369 59.3479 47.6185C59.3039 47.7002 59.2795 47.7883 59.276 47.8779V47.8896Z" fill="black"/>
<path d="M67.3155 46.4225L65.366 45.7728C65.4111 45.6626 65.4828 45.5615 65.5765 45.4756C65.6703 45.3898 65.7842 45.3211 65.911 45.2739C66.0378 45.2267 66.1748 45.202 66.3135 45.2014C66.4522 45.2007 66.5895 45.2241 66.717 45.2701C66.9739 45.3608 67.1793 45.5312 67.2907 45.7457C67.4021 45.9603 67.411 46.2026 67.3155 46.4225Z" fill="black"/>
<path d="M63.4655 47.0899L63.3675 51.0119L65.877 50.5444L63.4655 47.0899Z" fill="#F28F8F"/>
<path d="M60.508 51.8116L62.958 52.4496C62.9224 52.5899 62.8528 52.7226 62.7535 52.8393C62.6543 52.9561 62.5276 53.0545 62.3812 53.1283C62.2348 53.2022 62.0719 53.2501 61.9026 53.2688C61.7333 53.2876 61.5612 53.277 61.397 53.2376C61.0608 53.1394 60.7817 52.9373 60.6166 52.6724C60.4514 52.4075 60.4126 52.0997 60.508 51.8116Z" fill="#B16668"/>
<path d="M61.8625 53.2727C61.8597 52.9865 61.7224 52.7129 61.4805 52.5113C61.2386 52.3098 60.9117 52.1967 60.571 52.1967C60.5372 52.1953 60.5033 52.1953 60.4695 52.1967C60.482 52.4264 60.5765 52.6476 60.7407 52.8317C60.9048 53.0157 61.131 53.154 61.39 53.2286C61.5421 53.2708 61.703 53.2858 61.8625 53.2727Z" fill="#F28F8F"/>
<path d="M61.271 55.566C59.5035 55.3896 55.86 54.537 55.2685 53.2933C55.5055 53.9176 55.9603 54.4676 56.574 54.8721C57.673 55.6659 61.271 56.4921 61.271 56.4921V55.566Z" fill="#F28F8F"/>
<path d="M53.949 55.9776C53.487 55.8982 53.0775 56.0687 52.6995 56.6038C52.3215 57.1389 51.492 58.2796 51.492 58.2796C51.492 58.2796 51.0615 62.0399 51.492 62.9836C51.863 63.795 55.9545 66.8379 55.9545 66.8379C55.9545 66.8379 54.887 70.216 54.8485 71.3244C54.81 72.4328 57.2985 76.6399 57.5995 78.792C57.5995 78.792 58.485 72.03 58.1035 69.5927C57.4455 65.368 55.0865 59.9113 53.9735 58.1767L53.949 55.9776Z" fill="#EBEBEB"/>
<path d="M56.4515 69.972C56.1784 69.4261 55.8567 68.8984 55.489 68.3932C54.908 67.5847 54.1905 66.8086 53.543 66.6086C53.4448 66.5759 53.3406 66.558 53.235 66.5557H53.2C53.0934 66.5608 52.9889 66.5827 52.892 66.6204C52.381 66.8115 51.842 67.3966 51.4045 68.0698C50.9564 68.7459 50.5872 69.4568 50.302 70.1925C50.134 70.6482 50.2075 71.6155 50.407 72.7209C50.799 74.8671 51.6705 77.5484 52.157 78.0776C52.5136 78.4473 52.9348 78.7695 53.4065 79.0331C53.1177 79.1935 52.8061 79.3229 52.479 79.4182C52.2939 79.4749 52.0985 79.5038 51.9015 79.5035V79.8886H51.9575C52.1656 79.8859 52.372 79.8571 52.57 79.8034C53.0288 79.6783 53.462 79.4949 53.8545 79.2595C54.2689 79.4667 54.7186 79.6194 55.188 79.7122C55.409 79.7567 55.6376 79.7687 55.8635 79.7475L55.8075 79.3653C55.6115 79.3792 55.4141 79.3663 55.223 79.3271C54.8863 79.2533 54.5618 79.1447 54.257 79.0037C54.7012 78.7067 55.0904 78.3559 55.412 77.9629C55.685 77.6131 56.021 76.4077 56.273 75.0229C56.427 74.1968 56.553 73.3089 56.623 72.5004C56.7 71.3714 56.665 70.4042 56.4515 69.972ZM55.006 77.7512C54.6776 78.1491 54.2745 78.4996 53.8125 78.7891C53.3216 78.5344 52.8841 78.2136 52.5175 77.8395C52.0625 77.3426 51.2225 74.726 50.8445 72.6621C50.652 71.6184 50.582 70.7158 50.736 70.3101C51.0214 69.5655 51.3991 68.8481 51.863 68.1698C52.346 67.4701 52.8605 66.9556 53.2175 66.9438C53.641 66.9438 54.327 67.5877 54.9675 68.4138C55.097 68.5755 55.2195 68.7519 55.3385 68.9283C55.5996 69.3082 55.8333 69.7009 56.0385 70.1043C56.231 70.5041 56.252 71.4067 56.1645 72.4563C56.1155 73.0443 56.0385 73.6588 55.9405 74.2703C55.6745 75.8667 55.3 77.3632 55.006 77.7424V77.7512Z" fill="#455A64"/>
<path d="M56.49 79.5211C56.4955 79.6333 56.4612 79.7444 56.3914 79.8402C56.3217 79.936 56.2196 80.0123 56.0983 80.0594C55.9769 80.1065 55.8416 80.1222 55.7095 80.1047C55.5774 80.0871 55.4546 80.037 55.3564 79.9608C55.2582 79.8845 55.1892 79.7855 55.1581 79.6763C55.127 79.567 55.1352 79.4525 55.1816 79.3472C55.2281 79.2418 55.3107 79.1505 55.419 79.0846C55.5273 79.0187 55.6564 78.9814 55.79 78.9772C55.9686 78.9716 56.1426 79.0257 56.2738 79.1277C56.405 79.2296 56.4827 79.3711 56.49 79.5211Z" fill="#263238"/>
<path d="M52.5665 79.674C52.5727 79.7863 52.539 79.8976 52.4697 79.9938C52.4004 80.09 52.2986 80.1668 52.1773 80.2143C52.056 80.2618 51.9206 80.278 51.7883 80.2608C51.6561 80.2436 51.5329 80.1938 51.4344 80.1176C51.3359 80.0415 51.2665 79.9425 51.2351 79.8332C51.2037 79.7239 51.2116 79.6093 51.2579 79.5038C51.3042 79.3983 51.3868 79.3067 51.4951 79.2407C51.6035 79.1747 51.7328 79.1372 51.8665 79.133C51.9548 79.1299 52.0429 79.1414 52.1259 79.1669C52.2089 79.1923 52.285 79.2313 52.3501 79.2816C52.4151 79.3318 52.4677 79.3923 52.5048 79.4597C52.5419 79.527 52.5629 79.5998 52.5665 79.674Z" fill="#263238"/>
<path d="M56.567 72.4945L56.1785 72.471C56.1389 72.468 56.1022 72.4522 56.0761 72.427C56.05 72.4018 56.0365 72.3691 56.0385 72.3357C56.119 71.2568 56.077 70.463 55.9195 70.1454C55.2405 68.7519 53.8195 67.0055 53.221 67.0261C52.6225 67.0467 51.3835 68.8901 50.8445 70.3248C50.722 70.6541 50.7605 71.4479 50.946 72.518C50.9521 72.5507 50.9427 72.5841 50.9198 72.6111C50.8969 72.638 50.8623 72.6563 50.8235 72.6621L50.4385 72.7121C50.3981 72.7162 50.3575 72.7068 50.3253 72.6859C50.2932 72.665 50.2722 72.6342 50.267 72.6003C50.0535 71.4008 50.029 70.5776 50.19 70.1513C50.477 69.381 51.8315 66.4969 53.193 66.4499C54.5545 66.4028 56.196 69.1782 56.56 69.9279C56.7595 70.3395 56.819 71.1627 56.728 72.371C56.7253 72.4051 56.7071 72.4369 56.6771 72.4599C56.6471 72.483 56.6076 72.4953 56.567 72.4945Z" fill="#4054FF"/>
<path d="M48.174 58.7735C45.612 58.7382 44.429 59.4644 42.805 61.2901C41.517 62.7396 36.505 70.5717 34.8425 72.859L25.7915 68.796C23.961 67.7346 23.3695 66.0588 22.211 65.0798C21.0525 64.1008 19.852 63.9038 18.578 63.0953C17.304 62.2868 16.786 61.6576 16.4185 62.4132C16.051 63.1688 17.4685 64.3918 17.738 64.6947C18.0075 64.9975 19.4285 65.6707 17.584 65.6943C15.7395 65.7178 12.089 64.1125 11.2 63.8274C10.311 63.5422 10.3635 64.433 10.801 65.0034C11.2385 65.5737 11.2175 67.1848 11.956 68.1168C12.7365 69.1047 13.1635 69.5339 14.903 70.1748C16.52 70.7628 19.915 70.998 21.6335 71.9006C23.352 72.8032 27.6115 75.9843 30.2015 77.8923C33.495 80.3178 35.7665 80.7618 37.6005 79.3065C39.382 77.7394 41.188 75.9019 42.07 74.97C44.4465 72.4563 48.2055 66.738 48.2055 66.738C48.2055 66.738 49.833 63.798 48.174 58.7735Z" fill="#FFA8A7"/>
<path d="M48.5275 58.5589C44.7545 58.5589 43.6275 59.7055 41.6955 62.3544C39.7635 65.0034 34.8075 72.5856 34.8075 72.5856L27.671 69.4457C27.671 69.4457 26.3865 71.8212 25.0215 74.2703C25.0215 74.2703 29.0605 77.2103 30.9715 78.6009C32.8825 79.9915 35.4165 81.0822 37.765 79.38C40.2745 77.5631 48.412 68.1227 48.412 68.1227C50.344 65.1768 49.9135 60.711 48.5275 58.5589Z" fill="#F0F0F0"/>
<path d="M34.8075 72.5857C35.973 73.7381 37.3835 75.0347 37.3205 76.0548C37.3205 76.0548 38.1185 75.1493 35.315 71.8124L34.8075 72.5857Z" fill="#E0E0E0"/>
<path d="M21.308 44.3117L18.389 45.717L18.3995 42.9005L16.2155 41.8421L11.123 44.3117V49.2509L6.03049 51.7205V56.6597L8.21449 57.7181L11.123 56.3069V59.1322L13.307 60.1906L18.3995 57.7181V52.7789L23.492 50.3093V45.3701L21.308 44.3117Z" fill="#4054FF"/>
<path d="M8.21449 52.7789V57.7181L13.307 55.2485V60.1906L18.3995 57.7181V52.7789L23.492 50.3093V45.3701L18.382 47.8485L18.3995 42.9005L13.307 45.3701V50.3093L8.21449 52.7789Z" fill="#4054FF"/>
<g opacity="0.2">
<path opacity="0.2" d="M8.21449 57.718L6.03049 56.6596V51.7204L8.21449 52.7788V57.718Z" fill="black"/>
<path opacity="0.2" d="M13.307 45.37L11.123 44.3116V49.2509L13.307 50.3092V45.37Z" fill="black"/>
<path opacity="0.2" d="M13.307 60.1906L11.123 59.1322V56.3068L13.307 55.2484V60.1906Z" fill="black"/>
</g>
<g opacity="0.5">
<path opacity="0.5" d="M13.307 50.3093L11.123 49.2509L6.03049 51.7204L8.21449 52.7789L13.307 50.3093Z" fill="white"/>
<path opacity="0.5" d="M18.3995 42.9005L16.2155 41.8421L11.123 44.3117L13.307 45.3701L18.3995 42.9005Z" fill="white"/>
<path opacity="0.5" d="M23.492 45.3701L21.308 44.3117L18.389 45.717L18.382 47.8485L23.492 45.3701Z" fill="white"/>
</g>
<path d="M105.07 34.398C104.978 34.3307 104.878 34.2707 104.772 34.2186C104.401 34.0334 102.721 33.222 102.634 33.1779C101.745 32.7016 100.338 32.8074 99.085 33.3396C97.2895 34.101 95.795 35.7092 94.654 38.3876C94.654 38.3876 93.499 37.6908 93.1245 37.5056C92.197 37.0793 91.112 37.2851 89.8905 37.9524C88.515 38.7051 87.577 39.6812 86.7195 41.157V41.1835C85.9764 42.4367 85.5702 43.8117 85.5295 45.2113C85.5295 48.3071 87.038 49.783 89.0015 50.8914C89.5615 51.2089 91.042 51.8763 91.189 51.9586C92.3739 52.6158 93.6845 53.0971 95.0635 53.3816L96.999 53.7608L98.9345 51.5058C100.344 49.8432 101.637 48.1135 102.809 46.3256C104.772 43.3121 106.309 40.3603 106.281 37.2762C106.253 35.9562 105.801 34.986 105.07 34.398Z" fill="#4054FF"/>
<path opacity="0.3" d="M105.07 34.398C104.978 34.3307 104.878 34.2707 104.772 34.2186C104.401 34.0334 102.721 33.222 102.634 33.1779C101.745 32.7016 100.338 32.8074 99.085 33.3396C97.2895 34.101 95.795 35.7092 94.654 38.3876C94.654 38.3876 93.499 37.6908 93.1245 37.5056C92.197 37.0793 91.112 37.2851 89.8905 37.9524C88.515 38.7051 87.577 39.6812 86.7195 41.157V41.1835C85.9764 42.4367 85.5702 43.8117 85.5295 45.2113C85.5295 48.3071 87.038 49.783 89.0015 50.8914C89.5615 51.2089 91.042 51.8763 91.189 51.9586C92.3739 52.6158 93.6845 53.0971 95.0635 53.3816L96.999 53.7608L98.9345 51.5058C100.344 49.8432 101.637 48.1135 102.809 46.3256C104.772 43.3121 106.309 40.3603 106.281 37.2762C106.253 35.9562 105.801 34.986 105.07 34.398Z" fill="black"/>
<path d="M105.07 34.398C104.978 34.3307 104.878 34.2707 104.773 34.2186C104.402 34.0334 102.722 33.222 102.634 33.1779C101.745 32.7016 100.338 32.8074 99.085 33.3396C97.2895 34.101 95.795 35.7092 94.654 38.3876C94.654 38.3876 93.499 37.6908 93.1245 37.5056C92.197 37.0793 91.112 37.2851 89.8905 37.9524C88.515 38.7051 87.577 39.6812 86.7195 41.157V41.1835C86.681 41.2482 86.6495 41.3129 86.6145 41.3775L101.315 48.4982C101.836 47.7867 102.344 47.0664 102.827 46.3256C104.79 43.3121 106.327 40.3603 106.299 37.2762C106.253 35.9562 105.802 34.986 105.07 34.398Z" fill="#4054FF"/>
<path opacity="0.15" d="M105.07 34.398C104.978 34.3307 104.878 34.2707 104.773 34.2186C104.402 34.0334 102.722 33.222 102.634 33.1779C101.745 32.7016 100.338 32.8074 99.085 33.3396C97.2895 34.101 95.795 35.7092 94.654 38.3876C94.654 38.3876 93.499 37.6908 93.1245 37.5056C92.197 37.0793 91.112 37.2851 89.8905 37.9524C88.515 38.7051 87.577 39.6812 86.7195 41.157V41.1835C86.681 41.2482 86.6495 41.3129 86.6145 41.3775L101.315 48.4982C101.836 47.7867 102.344 47.0664 102.827 46.3256C104.79 43.3121 106.327 40.3603 106.299 37.2762C106.253 35.9562 105.802 34.986 105.07 34.398Z" fill="black"/>
<path d="M94.6435 38.3758L96.6105 40.5308L99.7815 37.3791L96.1975 35.6416C95.5592 36.5012 95.0379 37.4184 94.6435 38.3758Z" fill="#4054FF"/>
<path opacity="0.3" d="M94.6435 38.3758L96.6105 40.5308L99.7815 37.3791L96.1975 35.6416C95.5592 36.5012 95.0379 37.4184 94.6435 38.3758Z" fill="black"/>
<path d="M105.07 34.398C104.212 33.7541 102.651 33.81 101.272 34.398C99.393 35.1977 97.839 36.9234 96.677 39.8458C95.515 38.0524 93.961 37.9965 92.0815 39.0226C90.7025 39.7752 89.7645 40.7513 88.9105 42.2272L88.893 42.2536C88.1526 43.5086 87.7476 44.8842 87.7065 46.2844C87.7065 49.3802 89.2185 50.8561 91.1785 51.9645C92.3634 52.6217 93.674 53.103 95.053 53.3874L96.9885 53.7667L98.924 51.5117C100.333 49.849 101.627 48.1194 102.798 46.3314C104.762 43.3179 106.298 40.3662 106.27 37.2821C106.253 35.9562 105.802 34.986 105.07 34.398Z" fill="#4054FF"/>
<g opacity="0.07">
<path opacity="0.07" d="M103.418 34.1039C103.958 34.0832 104.488 34.2262 104.912 34.5067C104.92 34.5194 104.931 34.5305 104.944 34.5391C105.665 35.0918 106.067 36.0737 106.071 37.2968C106.071 40.5161 104.321 43.6413 102.623 46.2697C101.46 48.0518 100.175 49.7756 98.7735 51.4323L96.915 53.605L95.1055 53.2492C93.747 52.9689 92.4556 52.4956 91.287 51.8498C89.537 50.8502 87.885 49.4978 87.899 46.2991C87.9361 44.9235 88.329 43.5712 89.0505 42.3359V42.3095C89.9115 40.8248 90.839 39.8869 92.155 39.1696C92.7663 38.7887 93.4954 38.5641 94.255 38.5228C95.144 38.5228 95.8755 38.9843 96.4915 39.934C96.5067 39.9594 96.5303 39.9806 96.5595 39.9952C96.5886 40.0098 96.6221 40.0171 96.656 40.0163H96.6735C96.7096 40.0135 96.7439 40.002 96.7725 39.9832C96.801 39.9645 96.8225 39.9392 96.8345 39.9104C97.944 37.1204 99.4175 35.3681 101.335 34.5538C101.976 34.272 102.685 34.1181 103.407 34.1039H103.418ZM103.407 33.9481C102.656 33.9611 101.918 34.1201 101.251 34.4126C99.372 35.2123 97.818 36.9381 96.656 39.8605C95.984 38.8197 95.179 38.364 94.255 38.364C93.4619 38.4078 92.7004 38.6414 92.0605 39.0373C90.6815 39.7899 89.7435 40.766 88.8895 42.2419L88.872 42.2683C88.1315 43.5232 87.7266 44.8989 87.6855 46.2991C87.6855 49.3949 89.1975 50.8708 91.1575 51.9791C92.3424 52.6363 93.653 53.1177 95.032 53.4021L96.9675 53.7814L98.903 51.5264C100.312 49.8637 101.606 48.1341 102.777 46.3461C104.741 43.3326 106.277 40.3808 106.249 37.2968C106.249 35.9708 105.791 34.9859 105.059 34.4215C104.598 34.1054 104.013 33.9431 103.418 33.9658L103.407 33.9481Z" fill="black"/>
</g>
<path d="M104.856 42.7328L101.09 44.5615L99.6905 40.2838C99.6706 40.2191 99.6252 40.162 99.5616 40.122C99.4979 40.0819 99.42 40.0612 99.3405 40.0633C99.2586 40.0619 99.1787 40.0847 99.1148 40.1277C99.0508 40.1707 99.0069 40.2311 98.9905 40.2985L96.81 48.6658L94.976 44.4498C94.9723 44.3718 94.9318 44.2983 94.8636 44.2454C94.7953 44.1924 94.7048 44.1644 94.612 44.1676C94.5192 44.1707 94.4316 44.2046 94.3686 44.262C94.3056 44.3193 94.2723 44.3953 94.276 44.4733L93.037 48.1689L88.893 50.1799C89.0293 50.3463 89.1766 50.5063 89.334 50.6591L93.534 48.6275C93.6152 48.588 93.6753 48.5238 93.702 48.4482L94.6785 45.5317L96.558 49.8418C96.583 49.9021 96.6306 49.9539 96.6938 49.9894C96.7569 50.025 96.8321 50.0423 96.908 50.0387C96.9856 50.0355 97.0598 50.0106 97.1187 49.968C97.1777 49.9254 97.218 49.8675 97.2335 49.8035L99.3685 41.6245L100.495 45.0966C100.509 45.1413 100.535 45.1827 100.57 45.2175C100.606 45.2523 100.652 45.2795 100.702 45.2969C100.753 45.3144 100.808 45.3216 100.863 45.3179C100.917 45.3143 100.97 45.2999 101.017 45.2759L104.363 43.656C104.555 43.3473 104.709 43.0415 104.856 42.7328Z" fill="white"/>
<path d="M120.662 121.36C120.519 121.759 120.507 122.182 120.627 122.586C120.767 122.833 121.642 123.645 123.427 123.939C125.212 124.233 127.666 123.939 128.723 123.886C129.78 123.833 133.098 124.18 134.151 124.291C135.81 124.48 137.084 124.174 137.704 123.671C137.804 123.57 137.878 123.452 137.921 123.326C137.964 123.199 137.975 123.066 137.952 122.936C137.949 122.601 137.89 122.267 137.777 121.945L120.662 121.36Z" fill="#263238"/>
<path d="M137.504 120.487C137.536 120.602 137.567 120.719 137.595 120.837C137.757 121.428 137.808 122.038 137.746 122.642C137.532 123.083 136.948 123.327 136.475 123.451C135.226 123.786 134.277 123.745 132.895 123.512C131.505 123.342 130.1 123.269 128.695 123.295C127.606 123.357 126.108 123.533 125.02 123.448C124.094 123.415 123.181 123.259 122.314 122.983C121.59 122.724 120.848 122.395 120.669 121.76C120.456 120.437 121.117 119.855 121.863 119.485C122.608 119.114 123.669 119.144 124.803 119.082C125.828 119.023 126.577 119.023 127.491 118.964C128.281 118.932 129.066 118.84 129.836 118.691C130.536 118.508 131.236 117.771 131.523 117.744C131.523 117.744 136.09 117.715 136.524 117.744C137.028 117.779 137.182 119.091 137.245 119.376C137.294 119.599 137.305 119.84 137.375 120.055C137.42 120.199 137.462 120.343 137.504 120.487Z" fill="#37474F"/>
<path d="M123.431 123.271C123.287 122.319 123.081 120.255 125.181 119.061H125.443C124.5 118.832 123.499 118.832 122.556 119.061C120.886 119.435 120.144 120.569 120.561 121.769C120.568 121.757 120.939 122.918 123.431 123.271Z" fill="#FAFAFA"/>
<path d="M129.524 118.758C128.849 119.261 128.614 120.405 128.614 120.405C128.527 120.834 127.603 120.899 127.69 120.484C127.832 119.914 128.104 119.373 128.492 118.891C128.809 118.75 129.172 118.704 129.524 118.758Z" fill="#FAFAFA"/>
<path d="M127.631 118.955C127.122 119.374 126.789 119.921 126.682 120.514C126.588 120.925 125.818 120.919 125.874 120.514C125.874 120.514 125.962 119.499 126.682 119.026C126.822 118.951 126.981 118.905 127.146 118.893C127.312 118.881 127.478 118.902 127.631 118.955Z" fill="#FAFAFA"/>
<path d="M136.664 114.954C136.664 114.954 136.542 117.421 136.381 118.229C136.283 118.711 135.53 119.217 133.658 119.164C132.342 119.126 131.306 119.217 131.358 118.353L131.474 115.833L136.664 114.954Z" fill="#FFA8A7"/>
<path d="M139.601 109.127C139.534 109.8 139.426 110.409 139.755 111.15C140.224 112.214 141.218 112.702 141.802 113.119C142.417 113.631 142.985 114.182 143.5 114.766C144.074 115.354 144.224 115.704 145.085 116.345C145.515 116.622 146.022 116.801 146.558 116.865C147.094 116.928 147.641 116.873 148.144 116.706C148.89 116.439 149.149 116.227 149.103 115.266C149.058 114.304 145.411 113.978 145.411 113.978L139.601 109.127Z" fill="#263238"/>
<path d="M148.631 112.402C148.942 112.496 149.019 112.97 149.068 113.91C149.103 114.622 149.478 115.674 148.249 116.112C147.259 116.474 145.677 116.233 145.008 115.563C144.175 114.725 143.608 113.987 142.418 112.967C141.368 112.085 140.318 111.791 139.853 110.012C139.555 108.871 139.79 108.401 140.749 108.074C142.068 107.625 144.137 109.092 145.173 109.324C146.062 109.521 148.319 112.308 148.631 112.402Z" fill="#37474F"/>
<path d="M145.173 109.324L144.998 109.274C144.408 109.292 143.834 109.44 143.333 109.703C142.832 109.965 142.421 110.333 142.142 110.77C141.967 111.079 142.492 111.32 142.842 111.079C143.577 109.903 145.089 109.65 145.694 109.594C145.545 109.474 145.368 109.382 145.173 109.324Z" fill="#FAFAFA"/>
<path d="M146.023 109.859C145.469 109.903 144.937 110.061 144.474 110.32C144.011 110.579 143.632 110.931 143.37 111.344C143.195 111.638 143.738 111.893 144.07 111.638C144.32 111.27 144.663 110.952 145.074 110.707C145.485 110.462 145.955 110.295 146.45 110.218C146.3 110.1 146.16 109.974 146.023 109.859Z" fill="#FAFAFA"/>
<path d="M148.809 110.703L148.631 112.687C148.631 112.687 147.129 113.608 144.977 112.764C144.914 112.655 144.732 110.879 144.732 110.879L148.809 110.703Z" fill="#FFA8A7"/>
<path d="M140.458 111.32C140.458 111.32 140.56 109.212 144.126 108.921L144.333 109.012C143.927 108.484 143.304 108.099 142.583 107.93C141.4 107.675 140.462 107.93 139.839 108.56C139.216 109.189 139.842 110.912 140.458 111.32Z" fill="#FAFAFA"/>
<path d="M149.849 97.4845C149.338 94.0124 149.149 92.0778 149.149 92.0778C149.149 92.0778 149.047 87.1886 149.401 82.6698C149.555 80.6883 149.635 78.495 149.684 76.4958C149.75 74.2943 149.541 72.093 149.061 69.9279C149.061 69.9279 130.76 66.8703 130.532 72.5092C130.256 79.2712 130.291 90.8283 129.979 95.2413C129.808 97.7197 130.105 99.7748 130.291 104.59C130.441 108.583 130.396 118.408 130.396 118.408C132.412 120.734 137.172 118.961 137.172 118.961C137.172 118.961 138.642 105.164 138.859 102.312C139.09 99.2456 138.705 97.6932 138.705 97.6932L140.591 83.4078C140.591 83.4078 140.735 87.9912 140.896 90.4638C141.057 92.9363 141.487 94.4563 142.254 99.0692C142.919 103.073 144.333 113.293 144.333 113.293C146.783 114.51 149.149 113.293 149.149 113.293C149.149 113.293 150.36 100.957 149.849 97.4845Z" fill="#455A64"/>
<path d="M147.35 77.7543C147.35 77.7543 145.057 80.2121 142.1 81.2676C142.1 81.2676 140.819 89.9082 140.829 89.7377L140.497 81.0412C140.497 81.0412 144.9 79.4065 147.35 77.7543Z" fill="#37474F"/>
<path d="M147.287 49.98C149.257 49.6096 151.487 50.7915 152.971 53.4287C154.406 55.9512 158.326 62.3222 158.42 64.1067C158.522 65.956 148.729 71.5655 148.97 71.4567C149.047 71.4244 147.28 67.2143 147.28 67.2143L152.036 63.9068L149.45 59.4321L147.287 49.98Z" fill="#FFA8A7"/>
<path d="M146.251 49.5831C147.91 49.4126 150.916 49.9389 152.064 51.6147C153.73 54.0402 155.249 56.8449 157.185 60.4699C157.185 60.4699 155.75 63.0807 151.62 63.3276L149.145 59.682L146.251 49.5831Z" fill="#37474F"/>
<path d="M137.9 47.3987L138.187 52.5437L144.256 52.2703L144.07 46.2933L137.9 47.3987Z" fill="#FFA8A7"/>
<path d="M150.216 52.1732C149.705 50.7708 147.941 49.6154 145.712 49.5596C145.215 49.5596 144.172 49.5596 144.172 49.5596C143.92 50.4269 140.759 50.7356 138.057 50.2152C137.242 50.3975 133.857 51.0972 133.157 51.2736C131.215 51.8145 130.616 53.4786 130.315 58.8C130.315 58.8 130.375 69.2899 130.315 74.2967C133.731 75.8108 139.009 75.6226 142.765 75.3022C148.666 74.8024 149.544 73.006 149.544 73.006C149.296 70.0866 149.446 68.9871 149.544 66.1059C149.618 63.9391 150.36 61.6488 150.594 59.1939C150.941 55.5454 150.563 53.1375 150.216 52.1732Z" fill="#4054FF"/>
<path d="M136.952 48.3748C135.552 48.2925 133.802 49.2303 133.35 51.2384L134.491 50.9826L136.952 48.3748Z" fill="#4054FF"/>
<path opacity="0.3" d="M136.952 48.3748C135.552 48.2925 133.802 49.2303 133.35 51.2384L134.491 50.9826L136.952 48.3748Z" fill="black"/>
<path d="M137.977 48.804C139.027 49.098 142.089 49.0569 143.115 48.804C144.14 48.5512 144.13 48.169 144.13 48.169V47.7368C144.721 47.7354 145.299 47.8863 145.785 48.169C146.44 48.6159 147.567 50.227 147.535 51.0002C147.504 51.7734 145.537 53.8138 141.743 53.7638C137.949 53.7138 135.818 52.5349 135.163 51.7587L134.505 50.9796C134.505 50.9796 135.405 49.4273 136.29 48.7746C136.744 48.405 137.326 48.1661 137.953 48.0926L137.977 48.804Z" fill="#4054FF"/>
<path opacity="0.2" d="M137.977 48.804C139.027 49.098 142.089 49.0569 143.115 48.804C144.14 48.5512 144.13 48.169 144.13 48.169V47.7368C144.721 47.7354 145.299 47.8863 145.785 48.169C146.44 48.6159 147.567 50.227 147.535 51.0002C147.504 51.7734 145.537 53.8138 141.743 53.7638C137.949 53.7138 135.818 52.5349 135.163 51.7587L134.505 50.9796C134.505 50.9796 135.405 49.4273 136.29 48.7746C136.744 48.405 137.326 48.1661 137.953 48.0926L137.977 48.804Z" fill="black"/>
<path d="M133.815 41.0894C133.815 41.0894 132.37 42.9328 132.534 43.1121C132.699 43.2915 133.763 43.4591 133.763 43.4591L133.815 41.0894Z" fill="#F28F8F"/>
<path d="M137.833 35.9856C134.907 36.506 133.738 37.2263 133.556 41.4275C133.381 45.5141 133.994 46.8606 134.631 47.4104C135.061 47.7809 137.459 47.8485 138.666 47.5662C140.178 47.2164 143.598 46.1991 145.197 44.147C147.08 41.7303 147.574 38.4552 145.547 37.1116C142.723 35.2212 139.027 35.7739 137.833 35.9856Z" fill="#FFA8A7"/>
<path d="M134.631 47.4075C134.981 47.7015 136.657 47.8133 137.917 47.6839L137.9 47.0753C136.856 47.3988 135.737 47.5126 134.631 47.4075Z" fill="#F28F8F"/>
<path d="M133.168 37.5644C133.897 38.0034 134.801 38.1859 135.688 38.073C135.67 38.4024 135.776 38.7282 135.989 39.005C136.286 39.3824 136.736 39.6562 137.256 39.7753C136.936 40.3027 136.765 40.8854 136.759 41.4775C136.739 41.6634 136.787 41.8499 136.895 42.0126C136.929 42.0718 136.982 42.1217 137.048 42.1566C137.114 42.1916 137.19 42.2102 137.268 42.2102C137.346 42.2102 137.423 42.1916 137.489 42.1566C137.555 42.1217 137.607 42.0718 137.641 42.0126C137.806 41.6998 138.012 41.4039 138.257 41.1306C138.574 40.8117 139.02 40.6023 139.51 40.5426C141.347 40.375 141.578 42.3948 140.843 43.2327C139.639 44.6028 138.617 43.6737 138.617 43.6737C138.571 44.3159 138.687 44.9592 138.958 45.5609C139.23 46.1625 139.65 46.7088 140.192 47.1635C141.499 47.4868 142.883 47.5162 144.207 47.2488C145.838 45.3642 146.863 44.4469 147.735 42.8211C149.576 39.3784 148.687 37.2175 147.262 36.3061C146.982 34.7214 145.495 34.0099 143.797 33.6836C141.263 33.1926 138.897 34.4568 136.384 33.9776C135.972 33.9051 135.564 33.8148 135.163 33.7071C135.008 33.6462 134.832 33.6368 134.669 33.6807C134.579 33.7309 134.509 33.8023 134.467 33.8859C134.424 33.9695 134.412 34.0617 134.431 34.1511C134.463 34.5568 134.953 35.0066 135.201 35.2242C134.653 35.2663 134.099 35.2396 133.56 35.1448C133.373 35.1153 133.18 35.1153 132.993 35.1448C132.787 35.2151 132.614 35.3384 132.497 35.4968C132.38 35.6553 132.326 35.8408 132.342 36.0268C132.344 36.3173 132.419 36.6043 132.561 36.8691C132.703 37.134 132.91 37.3708 133.168 37.5644Z" fill="#263238"/>
<path d="M147.308 36.8176L149.058 35.9356C148.919 35.7407 148.693 35.6002 148.43 35.5451C148.168 35.4899 147.89 35.5247 147.658 35.6416C147.426 35.7586 147.259 35.9482 147.193 36.1687C147.127 36.3893 147.169 36.6227 147.308 36.8176Z" fill="#263238"/>
<path d="M124.502 59.976C124.105 58.6668 123.723 57.3555 123.354 56.0423C123.004 54.834 122.465 53.4345 122.958 52.1997C123.239 51.6605 123.591 51.1496 124.008 50.6768C124.37 50.1785 124.674 49.6529 124.918 49.1069C125.041 48.8423 125.153 48.5718 125.268 48.3042C125.384 48.0367 125.548 47.8838 125.471 47.628C125.216 46.7901 123.928 47.8897 123.665 48.2337C123.549 48.4143 123.413 48.5855 123.259 48.7452C123.091 48.8952 122.682 49.0833 122.486 48.8628C122.421 48.7744 122.384 48.6729 122.381 48.5688C122.248 47.2782 122.801 46.1228 123.259 44.9174C123.332 44.7591 123.376 44.5926 123.389 44.4235C123.397 44.339 123.384 44.254 123.349 44.1743C123.315 44.0947 123.26 44.0222 123.189 43.9619C123.075 43.8883 122.94 43.8415 122.798 43.826C122.655 43.8105 122.51 43.8269 122.377 43.8737C122.118 43.9472 121.894 44.0853 121.635 44.153C121.376 44.2206 121.184 44.2206 120.956 44.2706C120.417 44.3716 119.897 44.537 119.413 44.7616C118.573 45.1761 118.202 45.7817 117.981 46.552C117.717 47.4981 117.627 48.4729 117.715 49.442C117.775 50.0859 117.911 50.7209 118.006 51.356L118.321 53.4816C118.534 54.8987 118.597 61.9782 118.888 63.3864C119.178 64.7947 119.738 65.7384 121.065 66.2059C122.99 66.8645 126.101 63.8892 127.869 62.3486L124.502 59.976Z" fill="#FFA8A7"/>
<path d="M123.798 59.1734C122.559 59.9525 121.016 61.249 120.704 62.5485C120.704 62.5485 120.396 60.2112 123.798 58.1385V59.1734Z" fill="#F28F8F"/>
<path d="M133.06 51.3059C131.87 51.4 129.909 51.4353 127.914 53.2375C125.601 55.3425 122.034 59.4938 122.034 59.4938C122.034 59.4938 122.5 62.7984 126.287 63.9832C126.287 63.9832 131.792 59.5732 132.976 57.6739C134.159 55.7747 134.425 52.626 133.06 51.3059Z" fill="#37474F"/>
<path d="M131.474 44.3206L129.969 43.6414L130.833 43.0211L127.708 41.7922L129.073 41.1277L125.706 39.6224L127.708 41.1071L126.08 41.7922L129.752 43.1269L128.845 43.8884L131.474 44.3206Z" fill="#4054FF"/>
<path d="M132.24 42.6535L131.26 41.8656L131.796 41.5334L130.935 40.6749L131.761 40.4397L131.474 39.3519L132.055 40.525L131.474 40.7367L132.405 41.5951L131.775 41.9715L132.24 42.6535Z" fill="#4054FF"/>
<path d="M131.67 45.5642L129.822 46.7755L129.139 45.9317L127.522 46.6696L126.861 45.6259L124.358 46.1639L127.253 44.9997L128.082 45.9611L129.426 45.3554L129.986 46.1639L131.67 45.5642Z" fill="#4054FF"/>
<path d="M118.821 67.2407C118.878 67.2015 118.95 67.1826 119.023 67.1881C119.096 67.1936 119.163 67.2231 119.21 67.2701C119.568 67.6077 120.033 67.8528 120.55 67.9767C121.068 68.1006 121.616 68.0982 122.132 67.9699C122.168 67.9594 122.205 67.9551 122.242 67.9571C122.279 67.9591 122.316 67.9675 122.349 67.9816C122.382 67.9957 122.412 68.0154 122.436 68.0394C122.46 68.0634 122.478 68.0912 122.489 68.1212C122.5 68.1512 122.503 68.1827 122.499 68.2139C122.495 68.2451 122.484 68.2752 122.466 68.3026C122.447 68.3299 122.423 68.3538 122.393 68.373C122.363 68.3921 122.33 68.406 122.293 68.4138C121.675 68.5676 121.016 68.5697 120.396 68.4196C119.776 68.2696 119.22 67.9738 118.793 67.5671C118.769 67.5442 118.751 67.5176 118.74 67.4887C118.728 67.4599 118.723 67.4293 118.726 67.399C118.729 67.3686 118.738 67.3389 118.755 67.3118C118.771 67.2846 118.794 67.2605 118.821 67.2407Z" fill="#E0E0E0"/>
<path d="M119.101 68.796C119.151 68.7615 119.213 68.7427 119.276 68.7427C119.34 68.7427 119.402 68.7615 119.451 68.796C119.736 68.969 120.063 69.0876 120.408 69.1435C120.753 69.1993 121.109 69.1911 121.45 69.1194C121.522 69.1082 121.597 69.1213 121.658 69.1559C121.719 69.1906 121.761 69.244 121.775 69.3046C121.783 69.3344 121.783 69.365 121.776 69.3947C121.768 69.4245 121.754 69.4528 121.734 69.4779C121.714 69.5031 121.688 69.5246 121.658 69.5413C121.628 69.558 121.594 69.5695 121.558 69.5751C121.137 69.6573 120.699 69.6607 120.275 69.585C119.852 69.5093 119.454 69.3564 119.108 69.137C119.081 69.1173 119.058 69.0932 119.042 69.066C119.025 69.0388 119.016 69.0092 119.013 68.9788C119.01 68.9484 119.015 68.9179 119.027 68.889C119.038 68.8602 119.057 68.8335 119.08 68.8107C119.087 68.805 119.094 68.8001 119.101 68.796Z" fill="#E0E0E0"/>
<path d="M153.468 50.9767C153.436 50.9908 153.4 50.9993 153.364 51.0017C153.328 51.0042 153.291 51.0005 153.257 50.9909C153.222 50.9813 153.19 50.966 153.163 50.9459C153.135 50.9258 153.113 50.9013 153.097 50.8738C152.842 50.476 152.457 50.1471 151.988 49.9255C151.519 49.7038 150.985 49.5983 150.447 49.6214C150.411 49.6231 150.375 49.6188 150.34 49.6088C150.306 49.5987 150.274 49.583 150.247 49.5627C150.193 49.5216 150.159 49.4639 150.155 49.4023C150.151 49.3407 150.176 49.2803 150.225 49.2342C150.274 49.1882 150.343 49.1604 150.416 49.1569C151.061 49.1285 151.702 49.2553 152.265 49.5225C152.827 49.7897 153.287 50.186 153.59 50.6651C153.622 50.7202 153.628 50.7836 153.605 50.8418C153.582 50.9 153.533 50.9484 153.468 50.9767Z" fill="#E0E0E0"/>
<path d="M153.622 49.4185C153.563 49.4444 153.496 49.4515 153.431 49.4385C153.367 49.4255 153.31 49.3933 153.272 49.3479C153.046 49.1262 152.766 48.9479 152.451 48.8251C152.135 48.7024 151.792 48.638 151.445 48.6364C151.409 48.6353 151.373 48.6281 151.34 48.6154C151.307 48.6026 151.277 48.5846 151.253 48.5622C151.228 48.5398 151.209 48.5135 151.196 48.4849C151.183 48.4563 151.178 48.4259 151.179 48.3954C151.18 48.3649 151.189 48.3349 151.204 48.3071C151.219 48.2794 151.241 48.2545 151.267 48.2337C151.294 48.213 151.325 48.1968 151.359 48.1862C151.393 48.1756 151.43 48.1708 151.466 48.1719C151.898 48.1755 152.323 48.2585 152.712 48.4149C153.102 48.5714 153.446 48.7975 153.72 49.0774C153.759 49.1272 153.774 49.1879 153.761 49.2467C153.748 49.3054 153.708 49.3576 153.65 49.392L153.622 49.4185Z" fill="#E0E0E0"/>
<path d="M158.515 66.3646C158.48 66.3108 158.472 66.2475 158.492 66.1885C158.512 66.1296 158.56 66.0798 158.623 66.05C159.084 65.8172 159.457 65.4791 159.698 65.0752C159.939 64.6713 160.039 64.2182 159.985 63.7686C159.981 63.7382 159.984 63.7074 159.994 63.678C160.004 63.6486 160.02 63.6212 160.043 63.5973C160.066 63.5735 160.094 63.5537 160.126 63.5392C160.159 63.5247 160.194 63.5157 160.23 63.5128C160.303 63.5062 160.376 63.5242 160.433 63.5628C160.49 63.6014 160.527 63.6574 160.534 63.7186C160.597 64.2562 160.476 64.7977 160.187 65.2802C159.898 65.7626 159.451 66.1662 158.9 66.444C158.869 66.4604 158.834 66.4714 158.797 66.4764C158.761 66.4813 158.723 66.48 158.688 66.4726C158.652 66.4652 158.618 66.4518 158.588 66.4333C158.559 66.4147 158.534 66.3914 158.515 66.3646Z" fill="#E0E0E0"/>
<path d="M160.373 66.4205C160.342 66.3726 160.332 66.3171 160.344 66.2635C160.356 66.2098 160.39 66.1614 160.44 66.1265C160.694 65.927 160.893 65.6835 161.024 65.413C161.156 65.1425 161.215 64.8513 161.199 64.5595C161.199 64.4979 161.229 64.4388 161.28 64.3952C161.332 64.3517 161.403 64.3272 161.476 64.3272C161.549 64.3272 161.62 64.3517 161.671 64.3952C161.723 64.4388 161.752 64.4979 161.752 64.5595C161.768 64.9214 161.689 65.2818 161.522 65.6158C161.355 65.9497 161.104 66.2494 160.786 66.494C160.758 66.5129 160.725 66.527 160.69 66.5353C160.655 66.5436 160.619 66.5461 160.583 66.5425C160.547 66.539 160.512 66.5295 160.48 66.5146C160.448 66.4997 160.42 66.4797 160.398 66.4558L160.373 66.4205Z" fill="#E0E0E0"/>
<path d="M128.177 94.374C128.242 94.4018 128.292 94.45 128.316 94.5082C128.339 94.5665 128.335 94.6302 128.303 94.6856C128.081 95.0972 128.004 95.5533 128.079 96.0005C128.155 96.4477 128.381 96.8676 128.73 97.2111C128.777 97.2584 128.8 97.3195 128.795 97.3811C128.789 97.4428 128.754 97.4999 128.698 97.5403C128.643 97.5803 128.571 97.6002 128.498 97.5958C128.426 97.5914 128.358 97.563 128.31 97.5168C127.89 97.1035 127.62 96.5981 127.531 96.0601C127.441 95.5221 127.537 94.9738 127.806 94.4798C127.839 94.4249 127.896 94.3831 127.966 94.3633C128.035 94.3435 128.111 94.3474 128.177 94.374Z" fill="#E0E0E0"/>
<path d="M126.609 95.2119C126.669 95.2356 126.716 95.2765 126.743 95.3272C126.77 95.3779 126.775 95.435 126.756 95.4883C126.683 95.7739 126.684 96.0695 126.759 96.3547C126.835 96.6399 126.983 96.908 127.194 97.1406C127.235 97.1911 127.251 97.2532 127.239 97.3136C127.226 97.374 127.186 97.428 127.127 97.464C127.067 97.4994 126.993 97.5134 126.921 97.5029C126.849 97.4924 126.784 97.4583 126.742 97.4081C126.483 97.1174 126.302 96.7826 126.212 96.4272C126.123 96.0717 126.127 95.7041 126.224 95.3501C126.235 95.3206 126.252 95.2932 126.276 95.2695C126.299 95.2458 126.328 95.2262 126.361 95.212C126.393 95.1978 126.429 95.1891 126.466 95.1866C126.502 95.184 126.539 95.1877 126.574 95.1972L126.609 95.2119Z" fill="#E0E0E0"/>
<path d="M107.607 13.6562C107.59 13.3821 107.496 13.1152 107.332 12.8776C107.169 12.64 106.94 12.4383 106.666 12.2891L105.903 11.9157C105.611 11.7931 105.289 11.7292 104.963 11.7292C104.637 11.7292 104.315 11.7931 104.023 11.9157L86.296 20.5211C86.022 20.6707 85.794 20.8724 85.6304 21.11C85.4668 21.3475 85.3723 21.6142 85.3545 21.8882V29.5881C85.3725 29.8621 85.4672 30.1286 85.6307 30.3661C85.7943 30.6037 86.0222 30.8055 86.296 30.9552L87.0625 31.3256C87.3535 31.4503 87.6756 31.5153 88.0022 31.5153C88.3289 31.5153 88.651 31.4503 88.942 31.3256L106.666 22.7232C106.94 22.574 107.169 22.3723 107.332 22.1347C107.496 21.897 107.59 21.6302 107.607 21.3561V13.6562Z" fill="#4054FF"/>
<path opacity="0.5" d="M107.607 13.6562C107.59 13.3821 107.496 13.1152 107.332 12.8776C107.169 12.64 106.94 12.4383 106.666 12.2891L105.903 11.9157C105.611 11.7931 105.289 11.7292 104.963 11.7292C104.637 11.7292 104.315 11.7931 104.023 11.9157L86.296 20.5211C86.022 20.6707 85.794 20.8724 85.6304 21.11C85.4668 21.3475 85.3723 21.6142 85.3545 21.8882V29.5881C85.3725 29.8621 85.4672 30.1286 85.6307 30.3661C85.7943 30.6037 86.0222 30.8055 86.296 30.9552L87.0625 31.3256C87.3535 31.4503 87.6756 31.5153 88.0022 31.5153C88.3289 31.5153 88.651 31.4503 88.942 31.3256L106.666 22.7232C106.94 22.574 107.169 22.3723 107.332 22.1347C107.496 21.897 107.59 21.6302 107.607 21.3561V13.6562Z" fill="white"/>
<path opacity="0.2" d="M85.3545 29.5881C85.3725 29.8621 85.4672 30.1287 85.6308 30.3662C85.7943 30.6037 86.0222 30.8055 86.296 30.9552L87.0625 31.3257C87.3273 31.4378 87.6173 31.5015 87.9135 31.5126C88.2097 31.5238 88.5054 31.4821 88.781 31.3904C88.3365 31.5315 88.0005 31.3227 88.0005 30.87V23.1701C88.0119 22.8948 88.1071 22.6266 88.277 22.391L85.631 21.1092C85.4606 21.3446 85.3654 21.6129 85.3545 21.8883V29.5881Z" fill="black"/>
<path opacity="0.3" d="M107.576 13.4328C107.467 13.0977 107.103 12.9889 106.669 13.2006L88.942 21.803C88.6629 21.9468 88.4336 22.1496 88.277 22.391L85.6345 21.1092C85.7908 20.8685 86.0187 20.6659 86.296 20.5212L104.02 11.9187C104.311 11.7941 104.633 11.7291 104.96 11.7291C105.286 11.7291 105.608 11.7941 105.899 11.9187L106.669 12.2892C106.905 12.4184 107.106 12.5864 107.262 12.783C107.418 12.9795 107.525 13.2006 107.576 13.4328Z" fill="white"/>
<path d="M88.0042 25.6603L85.3617 24.3785L82.1767 26.9539C82.1288 26.9944 82.0925 27.0436 82.0705 27.0976C82.0486 27.1516 82.0415 27.2092 82.05 27.2658C82.0584 27.3225 82.0821 27.3768 82.1192 27.4246C82.1563 27.4725 82.2059 27.5126 82.2642 27.5419L84.8647 28.812C84.9723 28.8593 85.0935 28.8807 85.2147 28.8737L88.0147 28.4239V25.6603H88.0042Z" fill="#4054FF"/>
<path opacity="0.5" d="M88.0042 25.6603L85.3617 24.3785L82.1767 26.9539C82.1288 26.9944 82.0925 27.0436 82.0705 27.0976C82.0486 27.1516 82.0415 27.2092 82.05 27.2658C82.0584 27.3225 82.0821 27.3768 82.1192 27.4246C82.1563 27.4725 82.2059 27.5126 82.2642 27.5419L84.8647 28.812C84.9723 28.8593 85.0935 28.8807 85.2147 28.8737L88.0147 28.4239V25.6603H88.0042Z" fill="white"/>
<path opacity="0.3" d="M84.8645 28.812L83.4645 28.1387L83.3 28.0476L82.551 27.6831L82.46 27.636L82.2605 27.539C82.2022 27.5096 82.1526 27.4695 82.1155 27.4217C82.0784 27.3738 82.0547 27.3195 82.0463 27.2629C82.0378 27.2062 82.0449 27.1487 82.0668 27.0947C82.0888 27.0406 82.1251 26.9915 82.173 26.951L85.358 24.3755L88.004 25.6603L84.819 28.224C84.7684 28.2618 84.7288 28.3087 84.7031 28.3613C84.6774 28.4138 84.6663 28.4706 84.6707 28.5273C84.6751 28.5841 84.6948 28.6392 84.7284 28.6885C84.762 28.7378 84.8085 28.7801 84.8645 28.812Z" fill="white"/>
<path d="M93.1805 23.2936C92.8148 23.4934 92.5104 23.7628 92.2921 24.0801C92.0738 24.3973 91.9476 24.7534 91.924 25.1193C91.924 25.7896 92.4875 26.063 93.1805 25.7279C93.5457 25.5279 93.8496 25.2583 94.0673 24.9411C94.2851 24.6238 94.4105 24.2678 94.4335 23.9021C94.4335 23.2259 93.8735 22.9584 93.1805 23.2936Z" fill="white"/>
<path d="M97.804 21.0474C97.4388 21.2474 97.1349 21.517 96.9172 21.8342C96.6994 22.1515 96.574 22.5075 96.551 22.8732C96.551 23.5435 97.111 23.8169 97.804 23.4788C98.1688 23.2791 98.4723 23.01 98.6901 22.6933C98.9078 22.3766 99.0335 22.0212 99.057 21.656C99.05 20.9828 98.497 20.7093 97.804 21.0474Z" fill="white"/>
<path d="M102.427 18.7984C102.063 18.9988 101.759 19.2686 101.542 19.5857C101.324 19.9029 101.198 20.2586 101.174 20.6241C101.174 21.2974 101.734 21.5679 102.427 21.2327C102.794 21.0326 103.098 20.7627 103.317 20.4449C103.535 20.1271 103.661 19.7704 103.684 19.404C103.684 18.7366 103.12 18.4632 102.427 18.7984Z" fill="white"/>
<path d="M141.729 28.7502L140.459 26.754L141.481 24.2756V22.7497L138.352 24.2667V25.7838L139.696 27.7418C139.718 27.7711 139.749 27.7945 139.787 27.8094L141.729 28.7502Z" fill="#4054FF"/>
<path opacity="0.2" d="M141.729 28.7502L140.459 26.754L141.481 24.2756V22.7497L138.352 24.2667V25.7838L139.696 27.7418C139.718 27.7711 139.749 27.7945 139.787 27.8094L141.729 28.7502Z" fill="black"/>
<path d="M151.231 12.87C151.214 12.5966 151.12 12.3305 150.957 12.0935C150.794 11.8564 150.567 11.6551 150.293 11.5058L149.53 11.1354C149.24 11.0107 148.919 10.9457 148.592 10.9457C148.266 10.9457 147.945 11.0107 147.654 11.1354L129.969 19.7172C129.697 19.8683 129.471 20.0705 129.308 20.3078C129.145 20.5451 129.05 20.8109 129.031 21.0843V28.7666C129.048 29.0399 129.142 29.306 129.305 29.5431C129.468 29.7801 129.696 29.9815 129.969 30.1307L130.732 30.5012C131.023 30.6233 131.344 30.6869 131.67 30.6869C131.996 30.6869 132.317 30.6233 132.608 30.5012L140.308 26.738L141.652 28.6901C141.671 28.7162 141.699 28.7373 141.732 28.7508C141.765 28.7644 141.801 28.77 141.838 28.7669C141.874 28.7639 141.909 28.7523 141.938 28.7335C141.967 28.7148 141.989 28.6895 142.002 28.6607L143.423 25.2239L150.276 21.9164C150.549 21.7671 150.777 21.5658 150.94 21.3287C151.103 21.0916 151.197 20.8256 151.214 20.5522L151.231 12.87Z" fill="#4054FF"/>
<path d="M134.33 22.5733L148.47 15.7143C148.89 15.5114 149.23 15.6555 149.23 16.0377C149.21 16.2513 149.132 16.4582 149 16.6416C148.868 16.825 148.686 16.9797 148.47 17.0931L134.33 23.9522C133.914 24.155 133.574 24.011 133.574 23.6288C133.593 23.4154 133.671 23.2088 133.802 23.0254C133.934 22.8421 134.114 22.6873 134.33 22.5733Z" fill="white"/>
<path d="M134.33 25.6279L148.47 18.7718C148.89 18.569 149.23 18.713 149.23 19.0923C149.211 19.3065 149.133 19.514 149.001 19.6979C148.869 19.8818 148.687 20.037 148.47 20.1507L134.33 27.0068C133.914 27.2126 133.574 27.0656 133.574 26.6863C133.592 26.4725 133.67 26.2652 133.802 26.0814C133.933 25.8975 134.114 25.7422 134.33 25.6279Z" fill="white"/>
<path opacity="0.2" d="M129.031 28.7678C129.048 29.0412 129.142 29.3073 129.305 29.5443C129.468 29.7814 129.696 29.9828 129.969 30.132L130.732 30.5024C130.996 30.6141 131.286 30.6776 131.581 30.6887C131.877 30.6999 132.172 30.6584 132.447 30.5671C132.006 30.7053 131.67 30.4966 131.67 30.0467V22.3645C131.681 22.0905 131.775 21.8235 131.943 21.5884L129.304 20.3065C129.136 20.5427 129.042 20.8107 129.031 21.0856V28.7678Z" fill="black"/>
<path opacity="0.2" d="M151.2 12.642C151.091 12.3068 150.727 12.201 150.293 12.4097L132.608 20.9945C132.33 21.1381 132.101 21.3409 131.946 21.5825L129.307 20.3036C129.464 20.0633 129.692 19.8609 129.969 19.7156L147.651 11.1308C147.943 11.0082 148.264 10.9443 148.591 10.9443C148.917 10.9443 149.239 11.0082 149.53 11.1308L150.293 11.5013C150.529 11.6295 150.731 11.7969 150.887 11.993C151.043 12.1892 151.149 12.41 151.2 12.642Z" fill="white"/>
</svg>
