<svg width="275" height="200" viewBox="0 0 275 200" fill="none" xmlns="http://www.w3.org/2000/svg">
<rect width="275" height="200" fill="white"/>
<path d="M127.2 194.004C126.918 190.488 128.517 186.864 131.208 184.908C133.903 182.952 137.581 182.74 140.448 184.38C141.145 182.348 141.856 180.28 143.092 178.58C144.327 176.88 146.186 175.576 148.174 175.656V194.004H127.2Z" fill="#EBEBEB"/>
<path d="M71.9839 123.016L61.2662 146.596L64.4672 146.728L55.3849 165.468H60.1552L52.7156 182.116H94.2992L85.1436 165.468L89.5326 165.26L80.7582 146.528L83.9996 146.32L71.9839 123.016Z" fill="#EBEBEB"/>
<path d="M73.7953 150.368C73.8466 150.368 73.7549 160.356 73.5899 172.672C73.4249 184.992 73.2489 194.976 73.1939 194.972C73.1426 194.972 73.2343 184.988 73.3993 172.668C73.5643 160.352 73.7403 150.368 73.7953 150.368Z" fill="#E0E0E0"/>
<path d="M78.8918 155.868C78.9138 155.884 78.6498 156.304 78.1951 156.956C77.7404 157.612 77.0951 158.496 76.3691 159.464C75.6578 160.404 75.0124 161.256 74.4991 161.932C74.0188 162.56 73.7181 162.948 73.6961 162.928C73.6741 162.912 73.9381 162.492 74.3928 161.84C74.8474 161.184 75.4928 160.3 76.2188 159.332C76.9301 158.392 77.5754 157.544 78.0888 156.864C78.5691 156.236 78.8698 155.848 78.8918 155.868Z" fill="#E0E0E0"/>
<path d="M73.6925 162.932C73.6595 162.976 72.6072 162.144 71.3459 161.068C70.0809 159.992 69.0835 159.084 69.1165 159.04C69.1495 158.996 70.2018 159.828 71.4632 160.904C72.7282 161.976 73.7255 162.884 73.6925 162.932Z" fill="#E0E0E0"/>
<path d="M73.4102 174.496C73.3918 174.516 73.0985 174.252 72.6292 173.816C72.1598 173.38 71.5108 172.78 70.7812 172.132C70.0515 171.484 69.3805 170.912 68.8965 170.5C68.4125 170.088 68.1118 169.828 68.1265 169.804C68.1412 169.78 68.4675 170 68.9772 170.384C69.4832 170.768 70.1725 171.324 70.9022 171.976C71.6318 172.628 72.2698 173.248 72.7172 173.712C73.1645 174.172 73.4248 174.476 73.4102 174.496Z" fill="#E0E0E0"/>
<path d="M79.3356 167.348C79.3466 167.356 79.277 167.468 79.145 167.668C79.013 167.864 78.8113 168.14 78.551 168.476C78.0376 169.148 77.286 170.036 76.4426 170.996C75.5993 171.956 74.833 172.824 74.2976 173.468C73.7586 174.108 73.436 174.516 73.4103 174.496C73.3993 174.488 73.469 174.376 73.601 174.176C73.733 173.98 73.9346 173.704 74.195 173.368C74.7083 172.696 75.46 171.808 76.3033 170.848C77.1466 169.888 77.9093 169.02 78.4483 168.376C78.9873 167.736 79.3136 167.328 79.3356 167.348Z" fill="#E0E0E0"/>
<path d="M159.21 149.848H202.66L210.778 137.272L219.289 150.204L229.288 150.028L218.511 134.192L170.064 134.412L159.21 149.848Z" fill="#E0E0E0"/>
<path d="M180.939 150.028V194.112H224.327V150.028H219.355L210.778 137.272L202.635 149.836L180.939 150.028Z" fill="#F5F5F5"/>
<path d="M197.219 175H187.07V194.112H197.219V175Z" fill="#E0E0E0"/>
<path d="M219.289 174.46H203.302V185.264H219.289V174.46Z" fill="#E0E0E0"/>
<path d="M208.102 174.46H207.735V185.364H208.102V174.46Z" fill="#EBEBEB"/>
<path d="M214.749 174.46H214.383V185.364H214.749V174.46Z" fill="#EBEBEB"/>
<path d="M214.566 180.04H207.918V180.44H214.566V180.04Z" fill="#EBEBEB"/>
<path d="M219.289 152.84H203.302V163.644H219.289V152.84Z" fill="#E0E0E0"/>
<path d="M208.102 152.84H207.735V163.744H208.102V152.84Z" fill="#EBEBEB"/>
<path d="M214.749 152.84H214.383V163.744H214.749V152.84Z" fill="#EBEBEB"/>
<path d="M214.566 158.42H207.918V158.82H214.566V158.42Z" fill="#EBEBEB"/>
<path d="M196.159 152.936H186.076V163.352H196.159V152.936Z" fill="#E0E0E0"/>
<path d="M180.943 150.028H163.332V194.108H180.943V150.028Z" fill="#E0E0E0"/>
<path d="M191.301 152.936H190.934V163.352H191.301V152.936Z" fill="#EBEBEB"/>
<path d="M196.159 158.2H186.076V158.6H196.159V158.2Z" fill="#EBEBEB"/>
<path d="M210.756 148.02C211.937 148.02 212.894 146.976 212.894 145.688C212.894 144.4 211.937 143.356 210.756 143.356C209.576 143.356 208.619 144.4 208.619 145.688C208.619 146.976 209.576 148.02 210.756 148.02Z" fill="#E0E0E0"/>
<path d="M195.507 142.828L198.202 139.196V130.464H192.555V142.896L195.507 142.828Z" fill="#F5F5F5"/>
<path d="M195.507 142.828V130.464H198.202V139.196L195.507 142.828Z" fill="#EBEBEB"/>
<path d="M198.583 129.18H191.924V130.464H198.583V129.18Z" fill="#EBEBEB"/>
<path d="M180.939 169.312H148.174V194.112H180.939V169.312Z" fill="#F5F5F5"/>
<path d="M168.689 169.312H148.174V194.112H168.689V169.312Z" fill="#E0E0E0"/>
<path d="M165.634 177.308H152.218V194.068H165.634V177.308Z" fill="#F5F5F5"/>
<path d="M179.135 177.24H170.493V179.64H179.135V177.24Z" fill="#EBEBEB"/>
<path d="M159.21 149.848V151.124H202.635V149.836L159.21 149.848Z" fill="#EBEBEB"/>
<path d="M202.635 151.124L210.756 138.688L210.778 137.272L202.66 149.848L202.635 151.124Z" fill="#EBEBEB"/>
<path d="M229.079 150.028H219.354V150.852H229.079V150.028Z" fill="#EBEBEB"/>
<path d="M193.758 172.072H190.168V173.56H193.758V172.072Z" fill="#E0E0E0"/>
<path d="M247.562 194.112C247.562 194.168 198.282 194.216 137.504 194.216C76.7067 194.216 27.4377 194.168 27.4377 194.112C27.4377 194.056 76.7067 194.008 137.504 194.008C198.282 194.008 247.562 194.052 247.562 194.112Z" fill="#263238"/>
<path d="M162.408 78.088C154.286 65.904 142.479 60.22 130.156 60.224C130.156 60.224 99.9827 60.224 91.047 89.692C87.7543 100.552 88.484 112.344 92.4807 122.92C93.863 126.576 95.7 130.544 98.1163 134.356C105.908 146.632 130.156 180.156 130.156 180.156H135.428C142.197 169.9 159.236 135.832 164.34 124.912C170.749 111.196 171.732 92.08 162.408 78.088ZM135.19 132.596C120.956 132.596 109.417 120.008 109.417 104.476C109.417 88.948 120.956 76.36 135.19 76.36C149.424 76.36 160.963 88.948 160.963 104.476C160.963 120.008 149.424 132.596 135.19 132.596Z" fill="#5079E8"/>
<path opacity="0.4" d="M162.408 78.088C154.286 65.904 142.479 60.22 130.156 60.224C130.156 60.224 99.9827 60.224 91.047 89.692C87.7543 100.552 88.484 112.344 92.4807 122.92C93.863 126.576 95.7 130.544 98.1163 134.356C105.908 146.632 130.156 180.156 130.156 180.156H135.428C142.197 169.9 159.236 135.832 164.34 124.912C170.749 111.196 171.732 92.08 162.408 78.088ZM135.19 132.596C120.956 132.596 109.417 120.008 109.417 104.476C109.417 88.948 120.956 76.36 135.19 76.36C149.424 76.36 160.963 88.948 160.963 104.476C160.963 120.008 149.424 132.596 135.19 132.596Z" fill="black"/>
<path d="M167.713 78.316C159.592 66.132 147.785 60.448 135.461 60.452C135.461 60.452 105.288 60.452 96.3527 89.92C93.06 100.78 93.7897 112.572 97.7863 123.148C99.1687 126.804 101.006 130.772 103.422 134.584C111.214 146.86 135.461 180.384 135.461 180.384C135.461 180.384 163.478 138.336 169.646 125.14C176.055 111.424 177.041 92.312 167.713 78.316ZM135.223 132.828C120.923 132.864 109.395 120.404 109.45 104.708C109.501 89.18 120.989 76.592 135.223 76.592C149.457 76.592 161.007 89.18 160.996 104.708C160.989 120.288 149.424 132.792 135.223 132.828Z" fill="#5079E8"/>
<path d="M135.19 76.36C123.977 76.36 114.44 84.176 110.895 95.084C114.363 86.736 122.063 80.928 131.01 80.928C143.205 80.928 153.094 91.712 153.094 105.02C153.094 118.324 143.209 129.112 131.01 129.112C123.93 129.112 117.63 125.472 113.59 119.816C118.188 127.508 126.141 132.6 135.19 132.6C149.424 132.6 160.963 120.012 160.963 104.48C160.963 88.948 149.424 76.36 135.19 76.36Z" fill="#5079E8"/>
<path opacity="0.4" d="M135.19 76.36C123.977 76.36 114.44 84.176 110.895 95.084C114.363 86.736 122.063 80.928 131.01 80.928C143.205 80.928 153.094 91.712 153.094 105.02C153.094 118.324 143.209 129.112 131.01 129.112C123.93 129.112 117.63 125.472 113.59 119.816C118.188 127.508 126.141 132.6 135.19 132.6C149.424 132.6 160.963 120.012 160.963 104.48C160.963 88.948 149.424 76.36 135.19 76.36Z" fill="black"/>
<path d="M186.586 117.372C185.548 116.6 184.29 116.264 183.04 116.416C180.928 116.68 177.866 117.016 177.866 117.016L177.877 117.124L163.09 118.116L158.565 108.092L151.701 113.024C151.701 113.024 152.603 114.6 156.449 122.352C157.986 125.448 161.135 127.172 164.329 126.664L181.742 123.884V123.848C183.539 123.736 185.489 123.552 185.772 123.272C186.311 122.732 186.802 120.772 186.802 120.772C186.802 120.772 189.904 122.784 190.502 122.832C191.103 122.876 191.209 122.332 191.58 121.756C191.84 121.368 188.643 118.9 186.586 117.372Z" fill="#FFBE9D"/>
<path d="M159.474 107.444C159.474 107.444 156.6 101.408 153.967 95.708C150.733 88.708 143.598 87.308 143.598 87.308L133.265 85.828C133.265 85.828 124.63 81.564 116.582 92.144L109.967 100.192L111.371 101.568L117.92 107.992L119.214 109.26L122.177 105.932L120.798 114.364L118.367 126.116C118.371 126.12 118.371 126.12 118.375 126.124L123.629 125.432L127.186 101.732L147.217 103.476L145.644 118.42C145.966 118.368 148.39 117.844 149.178 114.252C149.486 112.84 149.391 111.644 149.197 110.768L150.355 114.004L159.474 107.444Z" fill="#455A64"/>
<path d="M127.182 101.716L123.625 125.416L118.371 126.108C122.885 130.352 128.759 132.924 135.186 132.924C138.398 132.924 141.471 132.28 144.305 131.108L145.64 118.4L147.213 103.456L127.182 101.716Z" fill="#263238"/>
<path d="M128.37 84.652L127.934 103.904L131.278 104.48L131.725 84.972C131.725 84.968 130.552 84.368 128.37 84.652Z" fill="#263238"/>
<path d="M142.509 104.008L145.262 87.472C145.42 87.288 147.682 88.172 148.361 89.016L145.889 104.356L142.509 104.008Z" fill="#263238"/>
<path d="M131.399 101.648C131.413 101.648 131.432 101.764 131.45 101.976C131.465 102.188 131.49 102.5 131.461 102.888C131.432 103.272 131.336 103.752 131.047 104.18C130.904 104.392 130.709 104.592 130.464 104.716C130.218 104.84 129.925 104.884 129.646 104.824C129.081 104.704 128.641 104.3 128.392 103.852C128.143 103.4 128.055 102.928 128.022 102.544C127.989 102.156 128.007 101.844 128.025 101.632C128.044 101.42 128.066 101.3 128.077 101.304C128.113 101.304 128.069 101.784 128.157 102.528C128.205 102.896 128.304 103.34 128.542 103.752C128.777 104.152 129.188 104.516 129.683 104.62C130.181 104.732 130.654 104.452 130.911 104.064C131.182 103.68 131.289 103.24 131.333 102.872C131.402 102.128 131.362 101.648 131.399 101.648Z" fill="#455A64"/>
<path d="M129.419 103.348C129.026 103.176 128.836 102.692 128.993 102.268C129.151 101.84 129.595 101.632 129.983 101.804C130.376 101.976 130.566 102.46 130.409 102.884C130.255 103.308 129.811 103.52 129.419 103.348Z" fill="#455A64"/>
<path d="M145.097 103.452C145.097 103.912 144.756 104.284 144.335 104.284C143.913 104.284 143.572 103.912 143.572 103.452C143.572 102.992 143.913 102.62 144.335 102.62C144.753 102.62 145.097 102.992 145.097 103.452Z" fill="#455A64"/>
<path d="M146.12 102.876C146.139 102.88 146.113 103.256 145.944 103.848C145.853 104.14 145.71 104.492 145.435 104.792C145.171 105.1 144.731 105.312 144.276 105.256C143.825 105.208 143.429 104.96 143.176 104.636C142.923 104.312 142.802 103.948 142.747 103.64C142.692 103.332 142.707 103.076 142.729 102.908C142.751 102.736 142.784 102.648 142.795 102.648C142.831 102.652 142.754 103.032 142.879 103.608C142.945 103.892 143.07 104.224 143.308 104.508C143.539 104.788 143.898 105.004 144.294 105.048C144.694 105.092 145.064 104.924 145.314 104.652C145.567 104.388 145.717 104.068 145.82 103.792C146.014 103.24 146.087 102.868 146.12 102.876Z" fill="#455A64"/>
<path d="M129.371 110.78C129.345 110.776 129.334 110.62 129.342 110.368C129.345 110.244 129.353 110.092 129.36 109.928C129.367 109.84 129.371 109.752 129.378 109.668L129.389 109.532L129.397 109.46L129.4 109.424V109.408V109.4V109.396V109.392C129.305 109.484 129.529 109.264 129.507 109.288C130.211 109.372 130.779 109.484 130.772 109.54C130.764 109.596 130.192 109.576 129.485 109.492C129.463 109.516 129.686 109.296 129.591 109.388V109.392V109.396V109.404V109.424L129.587 109.46L129.58 109.532L129.565 109.672C129.554 109.76 129.547 109.844 129.536 109.936C129.514 110.104 129.496 110.256 129.474 110.38C129.437 110.632 129.397 110.784 129.371 110.78Z" fill="#455A64"/>
<path d="M128.836 116.296C128.784 116.288 128.803 115.668 128.876 114.908C128.949 114.148 129.052 113.536 129.107 113.54C129.162 113.544 129.14 114.168 129.067 114.928C128.99 115.688 128.887 116.3 128.836 116.296Z" fill="#455A64"/>
<path d="M129.58 121.068C129.558 121.12 129.023 120.884 128.388 120.54C128.399 120.564 128.289 120.344 128.337 120.436V120.432V120.428V120.42V120.404L128.341 120.368L128.348 120.296L128.363 120.156C128.374 120.072 128.385 119.984 128.396 119.896C128.418 119.732 128.44 119.58 128.458 119.456C128.498 119.208 128.539 119.052 128.564 119.056C128.59 119.06 128.597 119.216 128.59 119.472C128.586 119.6 128.579 119.748 128.568 119.916C128.561 120.004 128.553 120.092 128.55 120.176L128.539 120.316L128.531 120.388L128.528 120.424V120.44V120.448V120.452V120.456C128.575 120.548 128.465 120.328 128.476 120.352C129.107 120.696 129.602 121.016 129.58 121.068Z" fill="#455A64"/>
<path d="M132.968 122.904C132.946 122.956 132.546 122.792 132.077 122.54C131.608 122.288 131.248 122.04 131.274 121.988C131.296 121.936 131.696 122.1 132.165 122.352C132.631 122.604 132.99 122.852 132.968 122.904Z" fill="#455A64"/>
<path d="M137.001 123.916C137.02 123.968 136.506 124.248 135.846 124.54C135.689 124.532 135.802 124.54 135.769 124.536H135.766L135.762 124.532L135.755 124.528L135.74 124.52L135.711 124.504L135.652 124.472L135.538 124.408C135.469 124.368 135.399 124.328 135.326 124.284C135.19 124.204 135.069 124.132 134.97 124.068C134.768 123.94 134.651 123.844 134.662 123.82C134.673 123.796 134.812 123.84 135.029 123.936C135.135 123.984 135.263 124.044 135.403 124.112C135.476 124.152 135.549 124.188 135.623 124.224L135.736 124.284L135.795 124.316L135.824 124.332L135.839 124.34L135.846 124.344L135.85 124.348H135.854C135.821 124.348 135.931 124.352 135.777 124.344C136.433 124.056 136.979 123.864 137.001 123.916Z" fill="#455A64"/>
<path d="M139.74 122.704C139.759 122.756 139.469 122.936 139.091 123.104C138.714 123.272 138.391 123.364 138.369 123.312C138.351 123.26 138.64 123.08 139.018 122.912C139.396 122.744 139.718 122.652 139.74 122.704Z" fill="#455A64"/>
<path d="M142.432 120.18C142.483 120.184 142.468 120.816 142.395 121.584C142.278 121.756 142.362 121.632 142.336 121.672H142.333H142.329L142.322 121.676L142.307 121.684L142.278 121.696L142.215 121.724L142.098 121.776C142.025 121.808 141.951 121.836 141.874 121.868C141.731 121.928 141.599 121.976 141.489 122.016C141.269 122.092 141.126 122.128 141.115 122.1C141.104 122.072 141.229 121.992 141.438 121.876C141.541 121.82 141.669 121.756 141.808 121.688C141.885 121.652 141.955 121.62 142.028 121.584L142.146 121.532L142.204 121.504L142.234 121.492L142.248 121.484L142.256 121.48H142.259H142.263C142.237 121.52 142.322 121.396 142.204 121.564C142.278 120.792 142.377 120.176 142.432 120.18Z" fill="#455A64"/>
<path d="M142.919 114.996C142.971 115 142.96 115.588 142.89 116.304C142.824 117.02 142.725 117.596 142.674 117.588C142.622 117.584 142.633 116.996 142.703 116.28C142.769 115.568 142.868 114.992 142.919 114.996Z" fill="#455A64"/>
<path d="M142.021 110.864C142.028 110.808 142.604 110.828 143.308 110.912C143.477 111.14 143.356 110.976 143.392 111.028V111.032V111.036V111.044V111.06L143.389 111.096L143.381 111.168L143.367 111.308C143.356 111.392 143.348 111.48 143.337 111.568C143.315 111.736 143.297 111.884 143.275 112.008C143.235 112.26 143.194 112.412 143.169 112.408C143.143 112.404 143.132 112.248 143.139 111.992C143.143 111.864 143.15 111.716 143.161 111.548C143.169 111.46 143.176 111.372 143.18 111.284L143.191 111.144L143.198 111.072L143.202 111.036V111.02V111.012V111.008V111.004C143.238 111.056 143.117 110.888 143.286 111.116C142.582 111.036 142.017 110.92 142.021 110.864Z" fill="#455A64"/>
<path d="M137.522 110.336C137.529 110.28 138.035 110.292 138.659 110.364C139.278 110.436 139.777 110.544 139.773 110.6C139.766 110.656 139.26 110.644 138.637 110.572C138.017 110.496 137.518 110.392 137.522 110.336Z" fill="#455A64"/>
<path d="M133.023 109.804C133.03 109.748 133.536 109.76 134.16 109.832C134.779 109.904 135.278 110.012 135.274 110.068C135.267 110.124 134.761 110.112 134.138 110.04C133.518 109.968 133.019 109.864 133.023 109.804Z" fill="#455A64"/>
<path d="M109.45 103.028C109.428 103.508 109.417 103.992 109.417 104.48C109.417 106.416 109.597 108.308 109.938 110.136C109.941 110.156 109.945 110.172 109.949 110.192C109.993 110.424 110.044 110.652 110.095 110.884C110.297 111.788 110.532 112.68 110.796 113.556C110.829 113.664 110.862 113.776 110.898 113.884C111.844 113.652 114.591 111.064 117.748 107.824L111.206 101.408C110.286 102.404 109.747 102.916 109.45 103.028Z" fill="#FFBE9D"/>
<path d="M150.744 61.484C150.971 64.248 153.861 66.576 156.402 66.492C157.802 66.444 159.221 65.764 160.571 66.188C162.829 66.9 163.742 70.34 166.056 70.8C167.787 71.144 169.385 69.616 171.138 69.512C172.429 69.436 173.646 70.14 174.713 70.932C175.78 71.724 176.807 72.64 178.028 73.092C179.252 73.544 180.374 72.74 181.61 72.332C181.918 73.192 182.116 74.244 182.508 75.156C182.904 76.064 183.377 77.688 182.681 78.04C182.681 78.04 180.734 79.14 179.608 79.08C180.503 80.088 181.918 80.508 183.157 80.128C183.469 82.184 183.704 84.552 182.431 86.104C181.863 86.792 181.064 87.212 180.239 87.444C176.15 88.596 171.882 85.48 167.735 86.332C166.034 86.68 164.476 87.684 162.756 87.928C161.066 88.168 159.291 87.624 157.967 86.452C156.332 85.008 155.206 82.592 153.131 82.216C152.211 82.048 151.279 82.336 150.377 82.612C149.479 82.888 148.537 83.152 147.624 82.94C146.711 82.728 145.849 81.88 145.893 80.864" fill="#263238"/>
<path d="M142.619 88.328C143.077 85.54 143.605 82.616 143.605 82.616C143.605 82.616 146.993 82.652 148.434 78.096C149.805 73.752 150.799 63.3 150.799 63.3C146.399 60.28 140.558 60.604 136.514 64.096L133.133 86.8C132.741 89.436 134.504 91.904 137.097 92.34C139.711 92.78 142.182 90.984 142.619 88.328Z" fill="#FFBE9D"/>
<path d="M148.276 71.132C148.236 71.452 147.954 71.6759 147.646 71.636C147.341 71.596 147.125 71.304 147.165 70.984C147.206 70.664 147.488 70.44 147.792 70.48C148.104 70.52 148.317 70.812 148.276 71.132Z" fill="#263238"/>
<path d="M149.277 70.6319C149.197 70.696 148.834 70.2799 148.24 70.1679C147.649 70.0479 147.158 70.2959 147.107 70.2039C147.081 70.1639 147.173 70.0359 147.385 69.9199C147.594 69.8039 147.939 69.7199 148.306 69.7959C148.676 69.8679 148.962 70.0759 149.116 70.2639C149.277 70.4479 149.318 70.5999 149.277 70.6319Z" fill="#263238"/>
<path d="M142.19 70.08C142.149 70.4 141.867 70.624 141.559 70.584C141.255 70.544 141.038 70.252 141.079 69.932C141.119 69.612 141.401 69.388 141.706 69.428C142.014 69.468 142.23 69.76 142.19 70.08Z" fill="#263238"/>
<path d="M143.055 69.6759C142.974 69.7399 142.611 69.3239 142.017 69.2119C141.427 69.0919 140.936 69.3399 140.884 69.2479C140.859 69.2079 140.95 69.0799 141.163 68.9639C141.372 68.8479 141.717 68.7639 142.083 68.8359C142.454 68.9079 142.74 69.1159 142.894 69.3039C143.055 69.4959 143.095 69.6479 143.055 69.6759Z" fill="#263238"/>
<path d="M144.43 74.8879C144.434 74.8519 144.811 74.852 145.424 74.884C145.578 74.896 145.728 74.892 145.768 74.784C145.823 74.672 145.79 74.4799 145.746 74.2759C145.669 73.8479 145.589 73.3999 145.501 72.9319C145.167 71.0239 144.954 69.4639 145.028 69.4479C145.097 69.4359 145.424 70.9719 145.757 72.8799C145.834 73.3519 145.911 73.8 145.981 74.228C146.007 74.428 146.073 74.6599 145.955 74.8919C145.893 75.0079 145.768 75.076 145.666 75.084C145.563 75.096 145.479 75.0839 145.402 75.0719C144.8 74.9919 144.426 74.9239 144.43 74.8879Z" fill="#263238"/>
<path d="M143.605 82.62C143.605 82.62 140.683 82.268 138.123 79.84C138.123 79.84 139 83.328 143.37 83.716L143.605 82.62Z" fill="#EB996E"/>
<path d="M143.928 76.396C143.763 76.048 143.418 75.808 143.04 75.78C142.78 75.76 142.498 75.848 142.303 76.044C142.109 76.244 142.025 76.56 142.131 76.804C142.252 77.08 142.578 77.2 142.875 77.168C143.172 77.136 143.447 76.98 143.711 76.82C143.785 76.776 143.858 76.732 143.913 76.66C143.964 76.592 143.99 76.492 143.95 76.42" fill="#EB996E"/>
<path d="M142.615 75C142.714 75.012 142.6 75.716 143.07 76.32C143.539 76.924 144.236 76.98 144.228 77.076C144.232 77.12 144.052 77.184 143.763 77.136C143.477 77.092 143.077 76.912 142.791 76.544C142.505 76.172 142.424 75.74 142.45 75.448C142.472 75.148 142.571 74.984 142.615 75Z" fill="#263238"/>
<path d="M139.417 60.748C140.565 63.512 144.287 66.872 147.158 68.064C146.898 67.496 145.281 65.892 145.02 65.32C146.179 66.696 147.855 68.56 149.626 69.024C149.835 69.08 150.066 69.124 150.26 69.044C150.524 68.936 150.627 68.64 150.7 68.372C151.012 67.252 151.279 65.276 151.305 64.108C151.334 62.94 151.052 61.712 150.278 60.768C149.299 59.568 147.701 58.992 146.164 58.636C144.874 58.336 143.524 58.144 142.252 58.412C140.979 58.68 139.791 59.48 139.41 60.656" fill="#263238"/>
<path d="M132.565 71.152C132.557 69.896 132.583 68.712 132.675 67.94C132.964 65.5 133.661 56.632 141.167 58.916L140.367 61.188C140.367 61.188 140.943 66.896 137.093 69.96C137.093 69.96 137.111 75.656 134.442 77.712C134.442 77.708 132.583 73.848 132.565 71.152Z" fill="#263238"/>
<path d="M137.254 69.572C136.811 69.388 136.323 69.308 135.857 69.404C135.392 69.5 134.948 69.78 134.684 70.212C134.42 70.644 134.35 71.196 134.431 71.708C134.512 72.22 134.735 72.696 135.01 73.12C135.208 73.424 135.443 73.712 135.747 73.884C136.052 74.056 136.437 74.096 136.73 73.908" fill="#FFBE9D"/>
<path d="M136.51 72.56C136.561 72.588 136.312 72.852 135.912 72.648C135.718 72.552 135.553 72.32 135.472 72.052C135.392 71.784 135.359 71.496 135.377 71.176C135.399 70.856 135.516 70.536 135.714 70.332C135.905 70.12 136.173 70.024 136.382 70.06C136.814 70.132 136.895 70.484 136.847 70.484C136.807 70.516 136.668 70.316 136.371 70.336C136.092 70.34 135.758 70.696 135.736 71.212C135.703 71.736 135.81 72.244 136.041 72.412C136.275 72.608 136.488 72.512 136.51 72.56Z" fill="#EB996E"/>
<path d="M180.693 69.956C180.693 69.956 180.649 70.088 180.492 70.284C180.334 70.476 180.041 70.72 179.597 70.844C179.161 70.972 178.574 70.98 177.973 70.72C177.364 70.472 176.766 70 176.139 69.464C175.509 68.944 174.805 68.328 173.903 68.116C173.455 68.024 172.971 68.036 172.498 68.184C172.022 68.324 171.556 68.556 171.087 68.812C170.617 69.068 170.141 69.356 169.631 69.608C169.121 69.856 168.568 70.068 167.974 70.092C167.38 70.12 166.771 69.924 166.265 69.548C165.755 69.176 165.352 68.66 164.982 68.128C164.248 67.06 163.654 65.908 162.76 65.148C162.32 64.768 161.795 64.536 161.26 64.46C160.725 64.376 160.189 64.436 159.672 64.536C158.642 64.744 157.681 65.1 156.735 65.228C155.789 65.352 154.891 65.244 154.121 64.98C152.563 64.468 151.536 63.488 150.957 62.752C150.381 61.996 150.194 61.484 150.194 61.484C150.198 61.484 150.216 61.508 150.249 61.564C150.286 61.628 150.333 61.712 150.392 61.808C150.517 62.024 150.718 62.332 151.012 62.696C151.598 63.408 152.625 64.352 154.158 64.836C154.913 65.084 155.793 65.18 156.713 65.052C157.637 64.92 158.591 64.56 159.639 64.34C160.164 64.232 160.717 64.172 161.282 64.256C161.847 64.332 162.404 64.58 162.87 64.976C163.812 65.772 164.406 66.94 165.132 67.992C165.495 68.516 165.887 69.012 166.368 69.364C166.844 69.716 167.409 69.9 167.963 69.876C168.52 69.856 169.055 69.656 169.554 69.416C170.056 69.172 170.529 68.888 171.002 68.632C171.475 68.376 171.956 68.14 172.451 68C172.942 67.852 173.459 67.84 173.932 67.94C174.885 68.176 175.593 68.816 176.22 69.344C176.843 69.884 177.426 70.356 178.009 70.608C178.589 70.872 179.153 70.872 179.579 70.764C180.011 70.656 180.297 70.428 180.462 70.252C180.627 70.072 180.686 69.952 180.693 69.956Z" fill="#263238"/>
<path d="M96.2426 149.416L89.5913 164.052L91.575 164.132L85.9393 175.764H88.902L84.282 186.096H110.092L104.408 175.764L107.133 175.632L101.688 164.008L103.701 163.88L96.2426 149.416Z" fill="#455A64"/>
<path d="M97.3645 166.392C97.4159 166.392 97.3755 172.592 97.2729 180.236C97.1702 187.884 97.0455 194.076 96.9905 194.076C96.9392 194.076 96.9795 187.88 97.0822 180.232C97.1885 172.588 97.3132 166.392 97.3645 166.392Z" fill="#263238"/>
<path d="M100.529 170.156C100.547 170.172 100.404 170.424 100.129 170.8C99.8544 171.176 99.4437 171.66 98.9707 172.172C98.4977 172.684 98.0761 173.148 97.7791 173.496C97.482 173.84 97.3024 174.06 97.2804 174.044C97.262 174.028 97.405 173.776 97.68 173.4C97.955 173.024 98.3657 172.54 98.8387 172.028C99.3117 171.516 99.7334 171.052 100.03 170.708C100.327 170.356 100.507 170.136 100.529 170.156Z" fill="#263238"/>
<path d="M97.3024 174.188C97.2694 174.232 96.6057 173.728 95.8211 173.064C95.0364 172.396 94.4277 171.82 94.4571 171.772C94.4901 171.728 95.1501 172.232 95.9384 172.9C96.7267 173.564 97.3354 174.144 97.3024 174.188Z" fill="#263238"/>
<path d="M97.1262 181.368C97.0895 181.412 96.3745 180.732 95.4725 179.932C94.5705 179.128 93.8152 178.504 93.8482 178.456C93.8775 178.412 94.6842 178.964 95.5935 179.772C96.5029 180.576 97.1629 181.328 97.1262 181.368Z" fill="#263238"/>
<path d="M100.804 176.928C100.852 176.968 100.096 178.036 99.0331 179.22C98.5381 179.784 98.0907 180.296 97.6947 180.748C97.3537 181.14 97.1484 181.388 97.1264 181.368C97.0787 181.328 97.8341 180.26 98.8974 179.076C99.3924 178.512 99.8397 178 100.236 177.552C100.573 177.156 100.782 176.912 100.804 176.928Z" fill="#263238"/>
</svg>
